<?xml version="1.0" encoding="utf-8"?>
<!-- Generator: Adobe Illustrator 16.0.0, SVG Export Plug-In . SVG Version: 6.00 Build 0)  -->
<!DOCTYPE svg PUBLIC "-//W3C//DTD SVG 1.1//EN" "http://www.w3.org/Graphics/SVG/1.1/DTD/svg11.dtd">
<svg version="1.1" id="Layer_1" xmlns="http://www.w3.org/2000/svg" xmlns:xlink="http://www.w3.org/1999/xlink" x="0px" y="0px"
	 width="41px" height="44px" viewBox="0 0 41 44" enable-background="new 0 0 41 44" xml:space="preserve">
<g enable-background="new    ">
	<path fill="#1F4D21" d="M7.637,36.988l-1.895-2.09c1.133-0.456,2.79-1.992,4.971-4.609c2.181-2.617,3.382-4.636,3.604-6.055
		c-1.068,1.028-2.572,1.543-4.512,1.543c-2.526,0-4.551-0.808-6.074-2.422s-2.285-3.835-2.285-6.66c0-2.8,0.784-5.052,2.354-6.758
		c1.569-1.706,3.538-2.559,5.908-2.559c6.276,0,9.414,4.16,9.414,12.48c0,3.464-1.228,7.009-3.682,10.635
		C12.985,34.12,10.384,36.285,7.637,36.988z M15.02,16.813c0-4.075-1.673-6.113-5.02-6.113c-1.406,0-2.517,0.53-3.33,1.592
		c-0.814,1.062-1.221,2.464-1.221,4.209c0,1.81,0.43,3.255,1.289,4.336s1.966,1.621,3.32,1.621
		C13.366,22.457,15.02,20.575,15.02,16.813z"/>
	<path fill="#1F4D21" d="M22.227,21.324c0-4.114,0.833-7.468,2.5-10.059c1.666-2.591,4.01-3.887,7.031-3.887
		c2.994,0,5.244,1.081,6.748,3.242s2.256,5.938,2.256,11.328c0,4.636-0.788,8.284-2.363,10.947
		c-1.576,2.663-3.881,3.994-6.914,3.994c-3.034,0-5.336-1.074-6.904-3.223C23.011,31.52,22.227,27.405,22.227,21.324z
		 M26.133,21.676c0,7.93,1.692,11.895,5.078,11.895c1.939,0,3.365-0.879,4.277-2.637c0.911-1.758,1.367-4.837,1.367-9.238
		c0-3.034-0.176-5.261-0.527-6.68s-0.918-2.493-1.699-3.223s-1.771-1.094-2.969-1.094C27.975,10.699,26.133,14.358,26.133,21.676z"
		/>
</g>
</svg>
