<?xml version="1.0" encoding="utf-8"?>
<!-- Generator: Adobe Illustrator 16.0.0, SVG Export Plug-In . SVG Version: 6.00 Build 0)  -->
<!DOCTYPE svg PUBLIC "-//W3C//DTD SVG 1.1//EN" "http://www.w3.org/Graphics/SVG/1.1/DTD/svg11.dtd">
<svg version="1.1" id="Layer_1" xmlns="http://www.w3.org/2000/svg" xmlns:xlink="http://www.w3.org/1999/xlink" x="0px" y="0px"
	 width="44px" height="44px" viewBox="-3.057 0.034 44 44" enable-background="new -3.057 0.034 44 44" xml:space="preserve">
<g>
	<path fill="#00550C" d="M16.928,20.076c0,2.375-0.336,4.583-1.008,6.622s-1.691,3.852-3.059,5.438
		c-1.368,1.586-3.086,2.902-5.157,3.949s-4.504,1.758-7.301,2.133L-0.065,36.6c2.109-0.531,3.914-1.203,5.414-2.016
		s2.738-1.754,3.715-2.824s1.723-2.254,2.238-3.551s0.852-2.688,1.008-4.172c-0.844,0.891-1.805,1.598-2.883,2.121
		s-2.164,0.785-3.258,0.785c-1.297,0-2.449-0.219-3.457-0.656s-1.855-1.031-2.543-1.781s-1.211-1.633-1.57-2.649
		c-0.359-1.016-0.539-2.109-0.539-3.281c0-1.188,0.242-2.391,0.727-3.609s1.164-2.324,2.039-3.316s1.918-1.805,3.129-2.438
		S6.49,8.263,7.927,8.263c1.203,0,2.352,0.227,3.445,0.68c1.094,0.453,2.051,1.16,2.872,2.121s1.473,2.184,1.957,3.668
		S16.928,17.998,16.928,20.076z M7.341,24.084c1.016,0,1.953-0.277,2.813-0.832s1.617-1.262,2.274-2.122
		c-0.031-2.016-0.215-3.684-0.551-5.004c-0.336-1.32-0.762-2.367-1.277-3.141S9.517,11.669,8.9,11.357s-1.223-0.469-1.816-0.469
		c-0.75,0-1.418,0.152-2.004,0.457s-1.082,0.734-1.488,1.289s-0.715,1.215-0.926,1.98s-0.316,1.609-0.316,2.531
		c0,1.406,0.164,2.559,0.492,3.457s0.738,1.605,1.23,2.122c0.492,0.516,1.031,0.871,1.617,1.066S6.826,24.084,7.341,24.084z"/>
	<path fill="#00550C" d="M38.889,37.209H21.803l-0.68-1.734c1.844-2.141,3.457-4.043,4.84-5.707s2.57-3.137,3.563-4.418
		s1.813-2.402,2.461-3.364c0.648-0.961,1.164-1.82,1.547-2.578s0.648-1.445,0.797-2.063s0.223-1.215,0.223-1.793
		c0-0.703-0.082-1.359-0.246-1.969s-0.422-1.141-0.773-1.594s-0.801-0.809-1.348-1.066s-1.211-0.387-1.992-0.387
		c-0.641,0-1.219,0.148-1.734,0.445s-0.949,0.684-1.301,1.16s-0.613,1.004-0.785,1.582s-0.242,1.148-0.211,1.711
		c-0.531,0.297-1.102,0.563-1.711,0.797s-1.273,0.391-1.992,0.469l-0.703-1.008c0-0.813,0.281-1.656,0.844-2.531
		s1.309-1.676,2.238-2.402s1.996-1.324,3.199-1.793s2.453-0.703,3.75-0.703c1.031,0,1.984,0.129,2.859,0.387
		s1.629,0.652,2.262,1.184s1.129,1.195,1.488,1.992s0.539,1.742,0.539,2.836c0,0.703-0.098,1.406-0.293,2.109
		s-0.512,1.457-0.949,2.262s-0.996,1.684-1.676,2.637c-0.68,0.954-1.508,2.028-2.484,3.223s-2.105,2.539-3.387,4.031
		s-2.734,3.168-4.359,5.027h9.656c0.266,0,0.504-0.063,0.715-0.188s0.398-0.289,0.563-0.492s0.305-0.434,0.422-0.691
		s0.215-0.52,0.293-0.785c0.188-0.625,0.32-1.352,0.398-2.18l1.406,0.328L38.889,37.209z"/>
</g>
</svg>
