<?xml version="1.0" encoding="utf-8"?>
<!-- Generator: Adobe Illustrator 16.0.0, SVG Export Plug-In . SVG Version: 6.00 Build 0)  -->
<!DOCTYPE svg PUBLIC "-//W3C//DTD SVG 1.1//EN" "http://www.w3.org/Graphics/SVG/1.1/DTD/svg11.dtd">
<svg version="1.1" id="Layer_1" xmlns="http://www.w3.org/2000/svg" xmlns:xlink="http://www.w3.org/1999/xlink" x="0px" y="0px"
	 width="44px" height="44px" viewBox="-3.057 0.034 44 44" enable-background="new -3.057 0.034 44 44" xml:space="preserve">
<g>
	<path fill="#00550C" d="M16.928,20.076c0,2.375-0.336,4.583-1.008,6.622s-1.691,3.852-3.059,5.438
		c-1.368,1.586-3.086,2.902-5.157,3.949s-4.504,1.758-7.301,2.133L-0.065,36.6c2.109-0.531,3.914-1.203,5.414-2.016
		s2.738-1.754,3.715-2.824s1.723-2.254,2.238-3.551s0.852-2.688,1.008-4.172c-0.844,0.891-1.805,1.598-2.883,2.121
		s-2.164,0.785-3.258,0.785c-1.297,0-2.449-0.219-3.457-0.656s-1.855-1.031-2.543-1.781s-1.211-1.633-1.57-2.649
		c-0.359-1.016-0.539-2.109-0.539-3.281c0-1.188,0.242-2.391,0.727-3.609s1.164-2.324,2.039-3.316s1.918-1.805,3.129-2.438
		S6.49,8.263,7.927,8.263c1.203,0,2.352,0.227,3.445,0.68c1.094,0.453,2.051,1.16,2.872,2.121s1.473,2.184,1.957,3.668
		S16.928,17.998,16.928,20.076z M7.341,24.084c1.016,0,1.953-0.277,2.813-0.832s1.617-1.262,2.274-2.122
		c-0.031-2.016-0.215-3.684-0.551-5.004c-0.336-1.32-0.762-2.367-1.277-3.141S9.517,11.669,8.9,11.357s-1.223-0.469-1.816-0.469
		c-0.75,0-1.418,0.152-2.004,0.457s-1.082,0.734-1.488,1.289s-0.715,1.215-0.926,1.98s-0.316,1.609-0.316,2.531
		c0,1.406,0.164,2.559,0.492,3.457s0.738,1.605,1.23,2.122c0.492,0.516,1.031,0.871,1.617,1.066S6.826,24.084,7.341,24.084z"/>
	<path fill="#00550C" d="M39.193,27.6c0,1.359-0.207,2.66-0.621,3.902s-1.031,2.34-1.852,3.293s-1.832,1.711-3.035,2.273
		s-2.602,0.844-4.195,0.844c-1.453,0-2.93-0.281-4.43-0.844s-2.93-1.477-4.289-2.742l0.938-1.734
		c0.828,0.578,1.59,1.047,2.285,1.406s1.336,0.637,1.922,0.832s1.129,0.328,1.629,0.398s0.977,0.105,1.43,0.105
		c0.938,0,1.77-0.184,2.496-0.551s1.336-0.859,1.828-1.477s0.863-1.332,1.113-2.145s0.375-1.664,0.375-2.555
		c0-1.063-0.133-2.023-0.398-2.883s-0.656-1.59-1.172-2.191s-1.156-1.063-1.922-1.383s-1.656-0.48-2.672-0.48
		c-0.859,0-1.762,0.168-2.707,0.504c-0.945,0.336-1.832,0.817-2.66,1.442l-1.102-0.773c0.094-0.563,0.203-1.223,0.328-1.981
		s0.254-1.559,0.387-2.402s0.266-1.707,0.398-2.59s0.254-1.746,0.363-2.59s0.203-1.637,0.281-2.379s0.133-1.387,0.164-1.934h10.922
		c0.453,0,0.852-0.02,1.195-0.059s0.641-0.09,0.891-0.152c0.281-0.063,0.531-0.133,0.75-0.211l0.75,0.727
		c-0.172,0.25-0.379,0.531-0.621,0.844s-0.496,0.613-0.762,0.902s-0.523,0.559-0.773,0.809s-0.469,0.445-0.656,0.586H26.35
		c-0.031,0.453-0.082,1.016-0.152,1.688s-0.156,1.352-0.258,2.039s-0.203,1.34-0.305,1.957s-0.184,1.098-0.246,1.441
		c0.656-0.219,1.406-0.395,2.25-0.527s1.703-0.199,2.578-0.199c1.469,0,2.762,0.242,3.879,0.727s2.055,1.133,2.813,1.945
		s1.328,1.75,1.711,2.813S39.193,26.459,39.193,27.6z"/>
</g>
</svg>
