<?xml version="1.0" encoding="utf-8"?>
<!-- Generator: Adobe Illustrator 16.0.0, SVG Export Plug-In . SVG Version: 6.00 Build 0)  -->
<!DOCTYPE svg PUBLIC "-//W3C//DTD SVG 1.1//EN" "http://www.w3.org/Graphics/SVG/1.1/DTD/svg11.dtd">
<svg version="1.1" id="Layer_1" xmlns="http://www.w3.org/2000/svg" xmlns:xlink="http://www.w3.org/1999/xlink" x="0px" y="0px"
	 width="44px" height="44px" viewBox="-3.057 0.034 44 44" enable-background="new -3.057 0.034 44 44" xml:space="preserve">
<g>
	<path fill="#00550C" d="M16.857,28.959c0,1.219-0.266,2.367-0.797,3.445s-1.254,2.027-2.168,2.848s-1.985,1.469-3.211,1.945
		s-2.535,0.715-3.926,0.715c-1.422,0-2.684-0.203-3.785-0.609s-2.027-0.953-2.777-1.641s-1.316-1.473-1.699-2.355
		s-0.574-1.809-0.574-2.777c0-0.844,0.152-1.652,0.457-2.426s0.73-1.512,1.277-2.215s1.207-1.363,1.98-1.98s1.629-1.184,2.566-1.7
		c-0.688-0.328-1.336-0.68-1.945-1.055s-1.148-0.813-1.617-1.313s-0.84-1.082-1.113-1.746s-0.41-1.441-0.41-2.332
		c0-1.078,0.227-2.078,0.68-3s1.07-1.715,1.852-2.379s1.703-1.184,2.766-1.559s2.203-0.563,3.422-0.563
		c1.281,0,2.41,0.156,3.387,0.469c0.977,0.313,1.797,0.742,2.461,1.289s1.164,1.203,1.5,1.969s0.504,1.602,0.504,2.508
		c0,0.641-0.125,1.25-0.375,1.828s-0.59,1.129-1.02,1.652s-0.941,1.035-1.535,1.535s-1.243,0.984-1.946,1.453
		c0.781,0.375,1.536,0.797,2.262,1.266c0.727,0.469,1.371,1.02,1.934,1.653s1.012,1.363,1.348,2.191S16.857,27.865,16.857,28.959z
		 M12.357,29.967c0-1-0.172-1.855-0.516-2.566c-0.344-0.711-0.801-1.324-1.371-1.84s-1.223-0.965-1.957-1.348
		s-1.492-0.746-2.273-1.09c-0.656,0.516-1.223,1.027-1.699,1.535s-0.871,1.031-1.184,1.57s-0.543,1.102-0.691,1.688
		s-0.223,1.223-0.223,1.91c0,0.813,0.133,1.559,0.398,2.238s0.633,1.266,1.102,1.758s1.031,0.875,1.688,1.148s1.375,0.41,2.156,0.41
		c0.797,0,1.48-0.156,2.051-0.469s1.043-0.719,1.418-1.219s0.652-1.074,0.833-1.723C12.268,31.322,12.357,30.654,12.357,29.967z
		 M2.935,14.943c0,0.656,0.156,1.23,0.469,1.723s0.734,0.93,1.266,1.313s1.145,0.738,1.84,1.066s1.418,0.656,2.168,0.984
		c0.984-0.797,1.688-1.598,2.109-2.402s0.633-1.605,0.633-2.402c0-0.813-0.117-1.508-0.352-2.086s-0.559-1.055-0.973-1.43
		s-0.906-0.648-1.477-0.82S7.427,10.63,6.755,10.63c-0.641,0-1.199,0.125-1.676,0.375s-0.875,0.578-1.195,0.984
		s-0.559,0.867-0.715,1.383S2.935,14.412,2.935,14.943z"/>
	<path fill="#00550C" d="M40.084,27.014c-0.328,0.5-0.66,0.91-0.996,1.23s-0.684,0.613-1.043,0.879h-1.523v5.414
		c0,0.125,0.047,0.238,0.141,0.34s0.266,0.211,0.516,0.328s0.586,0.238,1.008,0.363s0.953,0.258,1.594,0.398v1.242H27.615v-1.242
		c1.016-0.172,1.844-0.332,2.484-0.48s1.141-0.289,1.5-0.422s0.605-0.262,0.738-0.387s0.199-0.258,0.199-0.398v-5.156H21.076
		l-0.844-0.844L31.74,9.74c0.688-0.266,1.367-0.555,2.039-0.867s1.281-0.594,1.828-0.844l0.914,0.867v17.415h2.953L40.084,27.014z
		 M32.537,13.302L24.24,26.311h8.297V13.302z"/>
</g>
</svg>
