<?xml version="1.0" encoding="utf-8"?>
<!-- Generator: Adobe Illustrator 16.0.0, SVG Export Plug-In . SVG Version: 6.00 Build 0)  -->
<!DOCTYPE svg PUBLIC "-//W3C//DTD SVG 1.1//EN" "http://www.w3.org/Graphics/SVG/1.1/DTD/svg11.dtd">
<svg version="1.1" id="Layer_1" xmlns="http://www.w3.org/2000/svg" xmlns:xlink="http://www.w3.org/1999/xlink" x="0px" y="0px"
	 width="44px" height="44px" viewBox="-3.057 0.034 44 44" enable-background="new -3.057 0.034 44 44" xml:space="preserve">
<g>
	<path fill="#00550C" d="M16.928,20.076c0,2.375-0.336,4.583-1.008,6.622s-1.691,3.852-3.059,5.438
		c-1.368,1.586-3.086,2.902-5.157,3.949s-4.504,1.758-7.301,2.133L-0.065,36.6c2.109-0.531,3.914-1.203,5.414-2.016
		s2.738-1.754,3.715-2.824s1.723-2.254,2.238-3.551s0.852-2.688,1.008-4.172c-0.844,0.891-1.805,1.598-2.883,2.121
		s-2.164,0.785-3.258,0.785c-1.297,0-2.449-0.219-3.457-0.656s-1.855-1.031-2.543-1.781s-1.211-1.633-1.57-2.649
		c-0.359-1.016-0.539-2.109-0.539-3.281c0-1.188,0.242-2.391,0.727-3.609s1.164-2.324,2.039-3.316s1.918-1.805,3.129-2.438
		S6.49,8.263,7.927,8.263c1.203,0,2.352,0.227,3.445,0.68c1.094,0.453,2.051,1.16,2.872,2.121s1.473,2.184,1.957,3.668
		S16.928,17.998,16.928,20.076z M7.341,24.084c1.016,0,1.953-0.277,2.813-0.832s1.617-1.262,2.274-2.122
		c-0.031-2.016-0.215-3.684-0.551-5.004c-0.336-1.32-0.762-2.367-1.277-3.141S9.517,11.669,8.9,11.357s-1.223-0.469-1.816-0.469
		c-0.75,0-1.418,0.152-2.004,0.457s-1.082,0.734-1.488,1.289s-0.715,1.215-0.926,1.98s-0.316,1.609-0.316,2.531
		c0,1.406,0.164,2.559,0.492,3.457s0.738,1.605,1.23,2.122c0.492,0.516,1.031,0.871,1.617,1.066S6.826,24.084,7.341,24.084z"/>
	<path fill="#00550C" d="M38.982,28.279c0,1.313-0.227,2.555-0.68,3.727s-1.109,2.195-1.969,3.07s-1.914,1.566-3.164,2.074
		s-2.68,0.762-4.289,0.762c-0.609,0-1.254-0.063-1.934-0.188s-1.371-0.328-2.074-0.609s-1.414-0.652-2.133-1.113
		s-1.43-1.027-2.133-1.699l0.844-1.805c0.703,0.531,1.355,0.973,1.957,1.324s1.18,0.633,1.734,0.844s1.098,0.363,1.629,0.457
		s1.094,0.141,1.688,0.141c0.875,0,1.684-0.141,2.426-0.422s1.379-0.691,1.91-1.23s0.945-1.195,1.242-1.969s0.445-1.66,0.445-2.66
		c0-1.141-0.18-2.105-0.539-2.895s-0.813-1.43-1.359-1.922s-1.16-0.848-1.84-1.066s-1.332-0.328-1.957-0.328h-0.516
		c-0.109,0-0.211,0.008-0.305,0.023s-0.207,0.031-0.34,0.047s-0.316,0.047-0.551,0.094l-0.352-1.641
		c1.406-0.375,2.531-0.816,3.375-1.324s1.492-1.035,1.945-1.582s0.75-1.098,0.891-1.652s0.211-1.074,0.211-1.559
		c0-0.531-0.074-1.074-0.223-1.629s-0.383-1.055-0.703-1.5s-0.727-0.809-1.219-1.09s-1.082-0.422-1.77-0.422
		c-0.563,0-1.066,0.109-1.512,0.328s-0.816,0.508-1.113,0.867s-0.504,0.781-0.621,1.266s-0.121,0.992-0.012,1.523
		c-0.563,0.313-1.168,0.566-1.816,0.762s-1.34,0.324-2.074,0.387l-0.703-0.961c0-0.656,0.238-1.359,0.715-2.109
		s1.133-1.449,1.969-2.098s1.813-1.184,2.93-1.605s2.309-0.633,3.574-0.633c1.25,0,2.324,0.188,3.223,0.563s1.633,0.871,2.203,1.488
		s0.988,1.313,1.254,2.086s0.398,1.559,0.398,2.355c0,0.594-0.117,1.184-0.352,1.77s-0.57,1.148-1.008,1.688
		s-0.961,1.035-1.57,1.488s-1.297,0.836-2.063,1.148c0.906,0.109,1.746,0.379,2.52,0.809s1.441,0.977,2.004,1.641
		s1.004,1.422,1.324,2.273S38.982,27.326,38.982,28.279z"/>
</g>
</svg>
