<?xml version="1.0" encoding="utf-8"?>
<!-- Generator: Adobe Illustrator 16.0.0, SVG Export Plug-In . SVG Version: 6.00 Build 0)  -->
<!DOCTYPE svg PUBLIC "-//W3C//DTD SVG 1.1//EN" "http://www.w3.org/Graphics/SVG/1.1/DTD/svg11.dtd">
<svg version="1.1" id="Layer_1" xmlns="http://www.w3.org/2000/svg" xmlns:xlink="http://www.w3.org/1999/xlink" x="0px" y="0px"
	 width="44px" height="44px" viewBox="-3.057 0.034 44 44" enable-background="new -3.057 0.034 44 44" xml:space="preserve">
<g>
	<path fill="#00550C" d="M16.928,20.076c0,2.375-0.336,4.583-1.008,6.622s-1.691,3.852-3.059,5.438
		c-1.368,1.586-3.086,2.902-5.157,3.949s-4.504,1.758-7.301,2.133L-0.065,36.6c2.109-0.531,3.914-1.203,5.414-2.016
		s2.738-1.754,3.715-2.824s1.723-2.254,2.238-3.551s0.852-2.688,1.008-4.172c-0.844,0.891-1.805,1.598-2.883,2.121
		s-2.164,0.785-3.258,0.785c-1.297,0-2.449-0.219-3.457-0.656s-1.855-1.031-2.543-1.781s-1.211-1.633-1.57-2.649
		c-0.359-1.016-0.539-2.109-0.539-3.281c0-1.188,0.242-2.391,0.727-3.609s1.164-2.324,2.039-3.316s1.918-1.805,3.129-2.438
		S6.49,8.263,7.927,8.263c1.203,0,2.352,0.227,3.445,0.68c1.094,0.453,2.051,1.16,2.872,2.121s1.473,2.184,1.957,3.668
		S16.928,17.998,16.928,20.076z M7.341,24.084c1.016,0,1.953-0.277,2.813-0.832s1.617-1.262,2.274-2.122
		c-0.031-2.016-0.215-3.684-0.551-5.004c-0.336-1.32-0.762-2.367-1.277-3.141S9.517,11.669,8.9,11.357s-1.223-0.469-1.816-0.469
		c-0.75,0-1.418,0.152-2.004,0.457s-1.082,0.734-1.488,1.289s-0.715,1.215-0.926,1.98s-0.316,1.609-0.316,2.531
		c0,1.406,0.164,2.559,0.492,3.457s0.738,1.605,1.23,2.122c0.492,0.516,1.031,0.871,1.617,1.066S6.826,24.084,7.341,24.084z"/>
	<path fill="#00550C" d="M40.084,27.014c-0.328,0.5-0.66,0.91-0.996,1.23s-0.684,0.613-1.043,0.879h-1.523v5.414
		c0,0.125,0.047,0.238,0.141,0.34s0.266,0.211,0.516,0.328s0.586,0.238,1.008,0.363s0.953,0.258,1.594,0.398v1.242H27.615v-1.242
		c1.016-0.172,1.844-0.332,2.484-0.48s1.141-0.289,1.5-0.422s0.605-0.262,0.738-0.387s0.199-0.258,0.199-0.398v-5.156H21.076
		l-0.844-0.844L31.74,9.74c0.688-0.266,1.367-0.555,2.039-0.867s1.281-0.594,1.828-0.844l0.914,0.867v17.415h2.953L40.084,27.014z
		 M32.537,13.302L24.24,26.311h8.297V13.302z"/>
</g>
</svg>
