<svg width="800" height="135" xmlns="http://www.w3.org/2000/svg">
 <g stroke="null">
  <title>background</title>
  <rect stroke="null" fill="none" id="canvas_background" height="137" width="802" y="-1" x="-1"/>
 </g>

 <g stroke="null">
  <title>Layer 1</title>
  <g stroke="null" id="svg_1">
   <path stroke="null" id="svg_2" d="m40.00662,93.2224c3.14638,0 6.42899,-0.33233 9.84785,-1.00083c3.42014,-0.66722 6.88484,-1.61966 10.39665,-2.85987l0,13.51373c-2.09716,0.95499 -5.31356,1.85905 -9.64412,2.71726c-4.33183,0.85822 -8.82282,1.28733 -13.47298,1.28733c-4.696,0 -9.15389,-0.63284 -13.37112,-1.8947c-4.21851,-1.26313 -7.89967,-3.30044 -11.04477,-6.1132c-3.14637,-2.81149 -5.64335,-6.45828 -7.48966,-10.93909c-1.84631,-4.47953 -2.76947,-9.91406 -2.76947,-16.3023c0,-6.29146 0.86586,-11.7973 2.59884,-16.51621c1.73299,-4.71892 4.05807,-8.62674 6.97652,-11.726c2.91717,-3.09798 6.25836,-5.42179 10.01974,-6.97142c3.76139,-1.54835 7.64883,-2.3238 11.66106,-2.3238c4.19431,0 8.05883,0.66849 11.59229,2.00165c3.53219,1.33444 6.58815,3.4316 9.16408,6.29147c2.57465,2.85987 4.58267,6.54231 6.01898,11.04604c1.4363,4.505 2.15445,9.8313 2.15445,15.98015c-0.04584,2.38493 -0.1146,4.40951 -0.205,6.07755l-43.43036,0c0.22792,3.19349 0.91169,5.92348 2.05132,8.18744c1.13962,2.26396 2.63322,4.10009 4.47953,5.50456c1.84631,1.40702 4.00204,2.43077 6.46337,3.07507c2.4626,0.64302 5.1302,0.96517 8.00281,0.96517l-0.00001,0zm-6.49774,-45.90187c-2.05132,0 -3.87598,0.39346 -5.47145,1.18037c-1.59547,0.78564 -2.97448,1.85904 -4.13829,3.2164c-1.16254,1.35863 -2.08569,2.94391 -2.76947,4.75457c-0.68377,1.81194 -1.14089,3.74229 -1.36754,5.79106l26.0572,0c0,-2.04877 -0.26231,-3.97912 -0.78564,-5.79106c-0.52461,-1.81066 -1.30006,-3.39594 -2.32508,-4.75457c-1.0263,-1.35736 -2.30344,-2.43076 -3.83142,-3.2164c-1.52671,-0.78819 -3.31572,-1.18037 -5.36831,-1.18037z" fill="#006837"/>
   <path stroke="null" id="svg_3" d="m74.27163,71.84465c0,-6.05208 0.7971,-11.45095 2.39384,-16.19407c1.59547,-4.74311 3.77285,-8.7235 6.53213,-11.94118c2.75801,-3.2164 5.91584,-5.62425 9.47222,-7.22099c3.55638,-1.59674 7.249,-2.39512 11.07914,-2.39512c1.77756,0 3.4647,0.16808 5.06145,0.50042c1.59546,0.33361 3.10053,0.78691 4.51391,1.35863c1.41211,0.57172 2.73509,1.21602 3.96639,1.93035s2.36964,1.4554 3.42013,2.21685l0.13625,0c-0.04584,-0.95372 -0.08022,-2.29961 -0.10187,-4.03897c-0.02419,-1.73935 -0.03438,-3.63405 -0.03438,-5.68409l0,-28.81648l16.20935,0l0,82.94017c0,4.5763 0.04457,8.50831 0.13624,11.7973c0.09041,3.28898 0.18209,6.22016 0.27377,8.79481l-14.6368,0l-0.68377,-7.36488l-0.27377,0c-0.95753,1.19183 -2.10861,2.35946 -3.45324,3.5029c-1.3459,1.14344 -2.82804,2.13408 -4.44515,2.96684c-1.61839,0.83529 -3.39722,1.48978 -5.33521,1.966c-1.93799,0.47622 -4.04661,0.7156 -6.32585,0.7156c-3.60222,0 -7.05673,-0.66849 -10.36227,-2.00165c-3.30681,-1.33317 -6.26982,-3.39594 -8.89031,-6.18451c-2.62303,-2.78857 -4.71892,-6.43536 -6.29147,-10.94036c-1.57382,-4.50373 -2.36073,-9.80583 -2.36073,-15.90757zm31.93993,21.52164c1.59547,0 3.11072,-0.21392 4.54702,-0.64303c1.43758,-0.42911 2.79239,-1.00083 4.06953,-1.71643c1.27587,-0.71561 2.4053,-1.50125 3.38576,-2.35946c0.98045,-0.85822 1.81193,-1.69097 2.4957,-2.50207l0,-32.88983c-1.91507,-1.61966 -4.05934,-2.96811 -6.42899,-4.03897c-2.37092,-1.0734 -4.87935,-1.60947 -7.52276,-1.60947c-1.68715,0 -3.45452,0.3578 -5.30083,1.07213s-3.53346,1.93035 -5.06144,3.64679c-1.52799,1.71643 -2.80385,4.10008 -3.83015,7.14968c-1.02629,3.05087 -1.53816,6.93577 -1.53816,11.65469c0,6.95996 1.28732,12.39448 3.86324,16.3023c2.5772,3.90782 6.35132,5.88655 11.32108,5.93367z" fill="#006837"/>
   <path stroke="null" id="svg_4" d="m155.79587,1.56l17.03064,0l0,18.37526l-17.03064,0l0,-18.37526zm0.41128,34.24846l16.20935,0l0,69.28382l-16.20935,0l0,-69.28382z" fill="#006837"/>
   <path stroke="null" id="svg_5" d="m254.28199,69.27c0,6.24563 -0.86713,11.77438 -2.59885,16.58752c-1.73298,4.8157 -4.00204,8.77062 -6.80589,11.86861c-2.80384,3.09926 -5.96295,5.39887 -9.47221,6.89884c-3.51182,1.50252 -7.044,2.2525 -10.60038,2.2525c-2.50844,0 -4.76476,-0.32087 -6.77024,-0.96517c-2.00675,-0.64303 -3.76138,-1.44013 -5.26645,-2.39512c-1.50506,-0.95371 -2.77074,-1.95454 -3.79576,-3.00248c-1.02629,-1.04794 -1.83485,-1.97747 -2.42694,-2.78857l-0.27377,0l-1.57255,7.36487l-13.4055,0c0.09041,-2.04877 0.1719,-4.58776 0.23939,-7.61444c0.06876,-3.02541 0.10186,-5.89801 0.10186,-8.61528l0,-87.30128l16.20935,0l0,28.81393c0,2.05004 -0.01273,3.94474 -0.03438,5.6841c-0.02419,1.74062 -0.0573,3.08652 -0.10187,4.03896l0.13625,0c1.04794,-0.76144 2.18883,-1.50124 3.42013,-2.21684s2.57465,-1.35864 4.03515,-1.93036c1.45922,-0.57172 3.03177,-1.02502 4.71892,-1.35863c1.68587,-0.33233 3.4647,-0.50041 5.33393,-0.50041c3.69263,0 7.28466,0.70414 10.77228,2.10989c3.48762,1.40574 6.58815,3.55128 9.30159,6.43535c2.71217,2.88407 4.86663,6.57797 6.46337,11.0817c1.59419,4.50627 2.39256,9.68995 2.39256,15.55231l0.00001,0zm-16.75688,0.85822c0,-4.33693 -0.50296,-8.06648 -1.50506,-11.18993c-1.00338,-3.12218 -2.31362,-5.50583 -3.93201,-7.14968c-1.61839,-1.64513 -3.30681,-2.75292 -5.06144,-3.32464c-1.75591,-0.57172 -3.50035,-0.85822 -5.23207,-0.85822c-2.37092,0 -4.78768,0.50042 -7.249,1.50125s-4.696,2.33526 -6.70275,4.00459l0,33.17632c0.63793,0.76272 1.42357,1.56236 2.35946,2.39511c0.93334,0.83402 1.98383,1.59674 3.14637,2.28815c1.16254,0.69142 2.42822,1.26314 3.79576,1.71644c1.36755,0.4533 2.82677,0.67868 4.37767,0.67868c2.64341,0 4.95958,-0.55899 6.94214,-1.67951c1.98383,-1.11925 3.64678,-2.7058 4.99268,-4.75457c1.34462,-2.04877 2.35946,-4.49227 3.04323,-7.32922c0.6825,-2.83569 1.02502,-5.99479 1.02502,-9.47477z" fill="#006837"/>
   <path stroke="null" id="svg_6" d="m269.32752,105.09228l0,-103.53228l16.20935,0l0,103.53228l-16.20935,0z" fill="#006837"/>
   <path stroke="null" id="svg_7" d="m338.13258,93.2224c3.14637,0 6.42899,-0.33233 9.84785,-1.00083c3.42013,-0.66722 6.88483,-1.61966 10.39664,-2.85987l0,13.51373c-2.09715,0.95499 -5.31355,1.85905 -9.64411,2.71726c-4.33183,0.85822 -8.82283,1.28733 -13.47299,1.28733c-4.696,0 -9.15389,-0.63284 -13.37112,-1.8947c-4.2185,-1.26313 -7.89967,-3.30044 -11.04604,-6.1132c-3.14637,-2.81149 -5.64208,-6.45828 -7.48839,-10.93909c-1.84631,-4.47953 -2.77074,-9.91406 -2.77074,-16.3023c0,-6.29146 0.86586,-11.7973 2.59884,-16.51621c1.73172,-4.71892 4.05807,-8.62674 6.97652,-11.726c2.91844,-3.09798 6.25836,-5.42179 10.01974,-6.97142c3.76139,-1.54835 7.64883,-2.3238 11.66106,-2.3238c4.19431,0 8.05883,0.66849 11.59229,2.00165c3.53219,1.33444 6.58815,3.4316 9.16408,6.29147c2.57465,2.85987 4.58267,6.54231 6.01897,11.04604c1.43631,4.505 2.15446,9.8313 2.15446,15.98015c-0.04584,2.38493 -0.1146,4.40951 -0.205,6.07755l-43.42909,0c0.22792,3.19349 0.9117,5.92348 2.05132,8.18744c1.13962,2.26396 2.63195,4.10009 4.47953,5.50456c1.84632,1.40702 4.00204,2.43077 6.46337,3.07507c2.4626,0.64302 5.1302,0.96517 8.00281,0.96517zm-6.49775,-45.90187c-2.05131,0 -3.87598,0.39346 -5.47145,1.18037c-1.59674,0.78564 -2.97574,1.85904 -4.13828,3.2164c-1.16254,1.35863 -2.0857,2.94391 -2.76947,4.75457c-0.68377,1.81194 -1.1409,3.74229 -1.36755,5.79106l26.0572,0c0,-2.04877 -0.26231,-3.97912 -0.78564,-5.79106c-0.52461,-1.81066 -1.30006,-3.39594 -2.32508,-4.75457c-1.02629,-1.35736 -2.30343,-2.43076 -3.83142,-3.2164c-1.5267,-0.78819 -3.31699,-1.18037 -5.36831,-1.18037z" fill="#006837"/>
   <path stroke="null" id="svg_8" d="m401.25863,71.84465c0,-6.05208 0.79583,-11.45095 2.39257,-16.19407c1.59674,-4.74311 3.77284,-8.7235 6.5334,-11.94118c2.75801,-3.2164 5.91456,-5.62425 9.47222,-7.22099c3.55637,-1.59674 7.249,-2.39512 11.07914,-2.39512c1.77756,0 3.4647,0.16808 5.06144,0.50042c1.5942,0.33361 3.09926,0.78691 4.51392,1.35863c1.41211,0.57172 2.73509,1.21602 3.96639,1.93035s2.36964,1.4554 3.42013,2.21685l0.13625,0c-0.04712,-0.95372 -0.08022,-2.29961 -0.10187,-4.03897c-0.02547,-1.73935 -0.03438,-3.63405 -0.03438,-5.68409l0,-28.81648l16.20935,0l0,82.94017c0,4.5763 0.04456,8.50831 0.13624,11.7973c0.08914,3.28898 0.18209,6.22016 0.27377,8.79481l-14.63808,0l-0.68377,-7.36488l-0.27376,0c-0.95754,1.19183 -2.10862,2.35946 -3.45197,3.5029c-1.3459,1.14344 -2.82804,2.13408 -4.44643,2.96684c-1.61839,0.83529 -3.39721,1.48978 -5.33393,1.966c-1.93926,0.47622 -4.04661,0.7156 -6.32712,0.7156c-3.60095,0 -7.05546,-0.66849 -10.361,-2.00165c-3.30808,-1.33317 -6.26982,-3.39594 -8.89031,-6.18451c-2.62431,-2.78857 -4.72019,-6.43536 -6.29147,-10.94036c-1.57509,-4.50373 -2.36073,-9.80583 -2.36073,-15.90757zm31.93993,21.52164c1.5942,0 3.11072,-0.21392 4.54575,-0.64303c1.43758,-0.42911 2.79239,-1.00083 4.0708,-1.71643c1.27586,-0.71561 2.4053,-1.50125 3.38448,-2.35946s1.81321,-1.69097 2.49698,-2.50207l0,-32.88983c-1.91507,-1.61966 -4.05934,-2.96811 -6.42899,-4.03897c-2.37219,-1.0734 -4.87936,-1.60947 -7.52277,-1.60947c-1.68842,0 -3.45451,0.3578 -5.3021,1.07213c-1.84504,0.71561 -3.53346,1.93035 -5.06144,3.64679s-2.80257,4.10008 -3.83014,7.14968c-1.02502,3.05087 -1.5369,6.93577 -1.5369,11.65469c0,6.95996 1.28605,12.39448 3.86198,16.3023c2.57847,3.90782 6.35131,5.88655 11.32235,5.93367z" fill="#006837"/>
   <path stroke="null" id="svg_9" d="m482.78414,1.56l17.03064,0l0,18.37526l-17.03064,0l0,-18.37526zm0.41001,34.24846l16.20935,0l0,69.28382l-16.20935,0l0,-69.28382z" fill="#006837"/>
   <path stroke="null" id="svg_10" d="m556.57933,97.7274l-0.27376,0c-0.91297,1.00083 -2.00675,2.02713 -3.28262,3.07507c-1.27586,1.04921 -2.73509,2.03858 -4.37767,2.96683c-1.6413,0.92952 -3.4647,1.68078 -5.47145,2.2525s-4.17012,0.85822 -6.49647,0.85822c-3.14637,0 -6.08774,-0.51315 -8.8241,-1.53817c-2.73509,-1.02375 -5.08564,-2.50207 -7.04527,-4.43242c-1.95964,-1.93035 -3.49908,-4.26562 -4.61578,-7.00708c-1.1167,-2.74018 -1.67569,-5.80251 -1.67569,-9.18699c0,-3.71809 0.65194,-7.05419 1.94945,-10.00956c1.30006,-2.95537 3.11072,-5.45744 5.43707,-7.50749c2.32508,-2.04877 5.10855,-3.61113 8.3466,-4.68327c3.23551,-1.0734 6.81481,-1.60947 10.73663,-1.60947c2.87261,0 5.51602,0.191 7.93277,0.57172c2.41676,0.382 4.53684,0.83402 6.36151,1.35863l0,-2.78857c0,-1.61966 -0.26358,-3.18202 -0.78564,-4.68326c-0.52461,-1.50252 -1.36755,-2.83569 -2.53136,-4.00459c-1.16127,-1.16764 -2.67906,-2.09716 -4.5483,-2.78857c-1.8705,-0.69014 -4.14847,-1.03648 -6.83899,-1.03648c-3.28262,0 -6.56523,0.38199 -9.84785,1.14344c-3.28261,0.76272 -6.83899,1.90743 -10.66914,3.43159l0,-13.22596c3.32719,-1.52544 6.86192,-2.6918 10.60166,-3.5029c3.73846,-0.80983 7.66028,-1.23894 11.76291,-1.28733c4.83225,0 9.06221,0.62011 12.68608,1.85905c3.62641,1.24021 6.65818,2.94391 9.09786,5.11237c2.43713,2.16974 4.26307,4.73038 5.47145,7.68576c1.20584,2.95664 1.81066,6.17432 1.81066,9.65303l0,26.09794c0,4.57631 0.04712,8.50831 0.13625,11.7973c0.09168,3.28898 0.18463,6.22016 0.27631,8.79481l-14.63808,0l-0.68504,-7.36615zm-1.29878,-22.16466c-1.55218,-0.38072 -3.32973,-0.72579 -5.33393,-1.03648c-2.00675,-0.30942 -4.03642,-0.46476 -6.08774,-0.46476c-3.96639,0 -7.10257,0.82256 -9.40346,2.46769c-2.30343,1.64386 -3.45451,4.15866 -3.45451,7.54314c0,1.57255 0.26103,2.94391 0.78563,4.11155c0.52461,1.16891 1.2313,2.13408 2.12135,2.89553c0.88751,0.76271 1.92526,1.33443 3.11072,1.71643c1.18673,0.382 2.43968,0.57172 3.76266,0.57172c1.64131,0 3.19094,-0.22538 4.65016,-0.67868c1.45795,-0.45203 2.80257,-1.02502 4.03387,-1.71643c1.2313,-0.69014 2.33782,-1.46559 3.317,-2.32381s1.8132,-1.69097 2.49698,-2.50207l0,-10.58383l0.00127,0z" fill="#006837"/>
   <path stroke="null" id="svg_11" d="m590.36685,105.09228l0,-103.53228l16.20935,0l0,103.53228l-16.20935,0z" fill="#006837"/>
   <path stroke="null" id="svg_12" d="m659.17063,93.2224c3.14637,0 6.42899,-0.33233 9.84785,-1.00083c3.42013,-0.66722 6.88356,-1.61966 10.39537,-2.85987l0,13.51373c-2.09588,0.95499 -5.31228,1.85905 -9.64411,2.71726s-8.82156,1.28733 -13.47172,1.28733c-4.69727,0 -9.15389,-0.63284 -13.37239,-1.8947c-4.21851,-1.26313 -7.8984,-3.30044 -11.04477,-6.1132c-3.14637,-2.81149 -5.64335,-6.45828 -7.48839,-10.93909c-1.84758,-4.47953 -2.77074,-9.91406 -2.77074,-16.3023c0,-6.29146 0.86586,-11.7973 2.59885,-16.51621c1.73044,-4.71892 4.05679,-8.62674 6.97651,-11.726c2.91717,-3.09798 6.25709,-5.42179 10.01975,-6.97142c3.76011,-1.54835 7.64755,-2.3238 11.66105,-2.3238c4.19304,0 8.05756,0.66849 11.59229,2.00165c3.53346,1.33444 6.58816,3.4316 9.16408,6.29147s4.58395,6.54231 6.01898,11.04604c1.43757,4.505 2.15573,9.8313 2.15573,15.98015c-0.04712,2.38493 -0.1146,4.40951 -0.20628,6.07755l-43.42909,0c0.2292,3.19349 0.91297,5.92348 2.05132,8.18744c1.13962,2.26396 2.63322,4.10009 4.47954,5.50456c1.84758,1.40702 4.00204,2.43077 6.46336,3.07507c2.46133,0.64302 5.1302,0.96517 8.00281,0.96517zm-6.49775,-45.90187c-2.05131,0 -3.87471,0.39346 -5.47145,1.18037c-1.59674,0.78564 -2.97447,1.85904 -4.13828,3.2164c-1.16127,1.35863 -2.08443,2.94391 -2.7682,4.75457c-0.68377,1.81194 -1.14089,3.74229 -1.36754,5.79106l26.05592,0c0,-2.04877 -0.26103,-3.97912 -0.78564,-5.79106c-0.5246,-1.81066 -1.29878,-3.39594 -2.32508,-4.75457c-1.02502,-1.35736 -2.30343,-2.43076 -3.83014,-3.2164c-1.52798,-0.78819 -3.31827,-1.18037 -5.36958,-1.18037l-0.00001,0z" fill="#006837"/>
   <path stroke="null" id="svg_13" d="m744.5925,103.58976c-2.05132,0.90533 -4.56103,1.68078 -7.52277,2.32381c-2.96429,0.6443 -6.08774,0.96518 -9.37036,0.96518c-4.78767,0 -9.25702,-0.71561 -13.40422,-2.14555s-7.77361,-3.59839 -10.87542,-6.50665c-3.1018,-2.90699 -5.53894,-6.58943 -7.31649,-11.04732c-1.77755,-4.45661 -2.66887,-9.66322 -2.66887,-15.62235c0,-6.67346 1.02756,-12.39321 3.07888,-17.16051c2.05132,-4.76604 4.70746,-8.63947 7.96843,-11.61904c3.25842,-2.97829 6.92813,-5.17222 11.00911,-6.57796c4.08099,-1.40575 8.10468,-2.10989 12.07107,-2.10989c2.96428,0 5.81397,0.27503 8.55033,0.82256c2.73509,0.5488 5.22061,1.29879 7.45401,2.2525l0,13.79896c-2.00675,-0.90406 -4.13574,-1.6324 -6.39333,-2.17992c-2.25505,-0.54753 -4.68582,-0.82257 -7.28466,-0.82257s-5.08309,0.41765 -7.45401,1.25167c-2.37219,0.83403 -4.46935,2.15701 -6.29147,3.96767c-1.82594,1.81193 -3.27243,4.20704 -4.34456,7.18661c-1.07214,2.97956 -1.60693,6.5665 -1.60693,10.76081c0,3.05088 0.41001,5.92348 1.2313,8.61528c0.82129,2.69434 2.01694,4.99395 3.59076,6.90011c1.57127,1.90744 3.5793,3.44433 6.01898,4.61196c2.43713,1.16764 5.32247,1.75082 8.6522,1.75082c2.96174,0 5.65226,-0.30942 8.07029,-0.92953c2.41421,-0.61883 4.696,-1.38155 6.839,-2.28815l0,13.8015l-0.00128,0l0.00001,0z" fill="#006837"/>
   <path stroke="null" id="svg_14" d="m799.102,105.02097c-1.82339,0.57172 -3.99949,1.02503 -6.53085,1.35863c-2.53136,0.33234 -4.88955,0.50042 -7.07838,0.50042c-5.56313,0 -10.11143,-0.94226 -13.64616,-2.82422c-3.53346,-1.88197 -6.03044,-4.5865 -7.48839,-8.11486c-1.04921,-2.52627 -1.57382,-5.95786 -1.57382,-10.29606l0,-35.89358l-12.37793,0l0,-13.94284l12.37793,0l0,-19.3761l16.20935,0l0,19.3761l19.14944,0l0,13.94284l-19.14944,0l0,33.67673c0,2.67015 0.38836,4.64762 1.16381,5.93494c1.36755,2.19266 4.07844,3.28898 8.13778,3.28898c1.87051,0 3.72828,-0.15407 5.57587,-0.46476c1.84504,-0.30941 3.58821,-0.70287 5.22952,-1.17909l0,14.01287l0.00127,0z" fill="#006837"/>
  </g>
  <g stroke="null" id="svg_15">
   <path stroke="null" id="svg_16" d="m634.093694,120.328827c-0.20428,0.980486 -0.444993,1.929826 -0.722137,2.849176l-1.28033,4.308369l-2.547648,0l-3.709573,-9.824466l2.735013,0l1.367507,4.115733c0.313577,0.952801 0.590721,1.875611 0.832735,2.767277l0.042938,0c0.20428,-0.865134 0.448896,-1.787944 0.732546,-2.767277l1.215272,-4.115733l2.735013,0l1.191852,4.115733c0.255025,0.872055 0.499641,1.794865 0.732546,2.767277l0.042938,0c0.247218,-0.912428 0.525664,-1.835238 0.832735,-2.767277l1.367507,-4.115733l2.735013,0l-3.708272,9.824466l-2.548949,0l-1.28033,-4.308369c-0.291457,-0.966643 -0.53217,-1.915984 -0.722137,-2.849176l-0.044239,0z"/>
   <path stroke="null" id="svg_17" d="m649.386087,125.804551c0.503544,0 1.027907,-0.047294 1.57569,-0.141882c0.546482,-0.094588 1.100771,-0.229549 1.661566,-0.406036l0,1.915984c-0.335696,0.134961 -0.848349,0.264154 -1.543162,0.385273c-0.692211,0.121119 -1.410445,0.182255 -2.154701,0.182255c-0.750762,0 -1.463792,-0.089974 -2.139087,-0.268768s-1.263415,-0.468326 -1.765658,-0.866288s-0.901696,-0.915889 -1.198357,-1.551474c-0.295361,-0.635585 -0.44239,-1.406132 -0.44239,-2.311639c0,-0.891665 0.137922,-1.672593 0.415066,-2.34163s0.649273,-1.223877 1.115084,-1.662212s1.001884,-0.769393 1.601713,-0.98856c0.602432,-0.219167 1.223079,-0.329905 1.865846,-0.329905c0.671392,0 1.288137,0.094588 1.854136,0.283764s1.055231,0.486782 1.466394,0.891665s0.732546,0.927424 0.961548,1.56647c0.230303,0.639046 0.346105,1.393443 0.346105,2.265499c-0.007807,0.337979 -0.019517,0.625204 -0.032529,0.861674l-6.94683,0c0.036432,0.45333 0.145729,0.839757 0.327889,1.160434c0.183462,0.320676 0.421572,0.58137 0.716933,0.780928c0.296662,0.199558 0.640165,0.3449 1.034413,0.436028s0.819723,0.138422 1.28033,0.138422zm-1.039617,-6.509271c-0.327889,0 -0.620648,0.055369 -0.875673,0.167259s-0.474919,0.264154 -0.660983,0.456791c-0.187365,0.192637 -0.334395,0.417572 -0.443691,0.673651s-0.183462,0.530616 -0.218593,0.821301l4.167577,0c0,-0.290685 -0.041637,-0.564068 -0.126211,-0.821301s-0.208184,-0.481015 -0.372128,-0.673651s-0.368225,-0.3449 -0.612841,-0.456791s-0.529567,-0.167259 -0.857457,-0.167259z"/>
   <path stroke="null" id="svg_18" d="m656.322508,113.922219l2.777951,0l-2.122173,5.586461l-2.329055,0l1.673276,-5.586461z"/>
   <path stroke="null" id="svg_19" d="m667.150662,119.568662l-0.218593,0c-0.795001,0 -1.492417,0.109584 -2.094848,0.329905c-0.60113,0.219167 -1.06564,0.555993 -1.394831,1.009323l0,6.579635l-2.591887,0l0,-9.824466l2.144292,0l0.240712,1.369219l0.042938,0c0.30577,-0.500624 0.728643,-0.893972 1.264716,-1.181197s1.17884,-0.431414 1.929603,-0.431414c0.262832,0 0.489232,0.013842 0.677898,0.040373l0,2.108621z"/>
   <path stroke="null" id="svg_20" d="m674.14043,125.804551c0.503544,0 1.027907,-0.047294 1.57569,-0.141882c0.546482,-0.094588 1.100771,-0.229549 1.661566,-0.406036l0,1.915984c-0.335696,0.134961 -0.848349,0.264154 -1.543162,0.385273c-0.692211,0.121119 -1.410445,0.182255 -2.154701,0.182255c-0.750762,0 -1.463792,-0.089974 -2.139087,-0.268768s-1.263415,-0.468326 -1.765658,-0.866288s-0.901696,-0.915889 -1.198357,-1.551474c-0.295361,-0.635585 -0.44239,-1.406132 -0.44239,-2.311639c0,-0.891665 0.137922,-1.672593 0.415066,-2.34163s0.649273,-1.223877 1.115084,-1.662212s1.001884,-0.769393 1.601713,-0.98856c0.602432,-0.219167 1.223079,-0.329905 1.865846,-0.329905c0.671392,0 1.288137,0.094588 1.854136,0.283764s1.055231,0.486782 1.466394,0.891665s0.732546,0.927424 0.961548,1.56647c0.230303,0.639046 0.346105,1.393443 0.346105,2.265499c-0.007807,0.337979 -0.019517,0.625204 -0.032529,0.861674l-6.94683,0c0.036432,0.45333 0.145729,0.839757 0.327889,1.160434c0.183462,0.320676 0.421572,0.58137 0.716933,0.780928c0.296662,0.199558 0.640165,0.3449 1.034413,0.436028s0.819723,0.138422 1.28033,0.138422zm-1.039617,-6.509271c-0.327889,0 -0.620648,0.055369 -0.875673,0.167259s-0.474919,0.264154 -0.660983,0.456791c-0.187365,0.192637 -0.334395,0.417572 -0.443691,0.673651s-0.183462,0.530616 -0.218593,0.821301l4.167577,0c0,-0.290685 -0.041637,-0.564068 -0.126211,-0.821301s-0.208184,-0.481015 -0.372128,-0.673651s-0.368225,-0.3449 -0.612841,-0.456791s-0.529567,-0.167259 -0.857457,-0.167259z"/>
   <path stroke="null" id="svg_21" d="m691.260936,127.477144c-0.292758,0.080746 -0.640165,0.145343 -1.044822,0.192637c-0.405958,0.047294 -0.783291,0.071518 -1.1333,0.071518c-0.889985,0 -1.616026,-0.133807 -2.182025,-0.400269s-0.964151,-0.650581 -1.198357,-1.151205c-0.167848,-0.358742 -0.251122,-0.844371 -0.251122,-1.460347l0,-5.089297l-1.979046,0l0,-1.97712l1.979046,0l0,-2.747667l2.593188,0l0,2.747667l3.062903,0l0,1.97712l-3.062903,0l0,4.775542c0,0.378352 0.061154,0.658656 0.186064,0.840911c0.218593,0.311448 0.653176,0.466019 1.301148,0.466019c0.299264,0 0.597227,-0.021917 0.892588,-0.06575c0.296662,-0.043833 0.573806,-0.099202 0.837939,-0.167259l0,1.987502l-0.001301,0z"/>
   <path stroke="null" id="svg_22" d="m699.519323,126.442443l-0.042938,0c-0.145729,0.141882 -0.321384,0.287225 -0.524363,0.436028c-0.20428,0.148803 -0.438487,0.288378 -0.700018,0.421032c-0.262832,0.1315 -0.55559,0.238777 -0.875673,0.319523c-0.321384,0.080746 -0.667489,0.121119 -1.039617,0.121119c-0.503544,0 -0.973259,-0.072671 -1.410445,-0.218014c-0.438487,-0.145343 -0.814519,-0.355282 -1.126794,-0.628664c-0.313577,-0.273382 -0.560795,-0.604441 -0.737751,-0.993174c-0.179558,-0.388734 -0.268037,-0.822454 -0.268037,-1.302316c0,-0.527155 0.104092,-1.000095 0.310974,-1.41882c0.208184,-0.418725 0.49834,-0.774007 0.870468,-1.064692c0.370827,-0.290685 0.81582,-0.51216 1.333677,-0.664423c0.516556,-0.152264 1.090362,-0.228395 1.716214,-0.228395c0.460606,0 0.88348,0.026531 1.269921,0.080746s0.726041,0.118812 1.017498,0.192637l0,-0.395655c0,-0.229549 -0.041637,-0.451023 -0.126211,-0.664423s-0.218593,-0.402576 -0.405958,-0.567528c-0.186064,-0.166106 -0.428078,-0.297606 -0.727342,-0.395655c-0.299264,-0.098049 -0.664887,-0.146496 -1.094266,-0.146496c-0.524363,0 -1.051328,0.054215 -1.57569,0.162645s-1.094266,0.269922 -1.707106,0.486782l0,-1.875611c0.53217,-0.21686 1.098169,-0.381813 1.695396,-0.497164c0.598528,-0.115351 1.225682,-0.175334 1.88146,-0.182255c0.772882,0 1.449479,0.087667 2.029791,0.264154s1.064339,0.417572 1.454684,0.724406s0.681802,0.671344 0.875673,1.090069s0.290156,0.875516 0.290156,1.369219l0,3.700468c0,0.649428 0.007807,1.206574 0.02212,1.672593c0.015614,0.466019 0.028625,0.882437 0.044239,1.246947l-2.342067,0l-0.107995,-1.045082zm-0.206883,-3.142168c-0.247218,-0.054215 -0.53217,-0.102663 -0.853553,-0.146496c-0.320082,-0.043833 -0.645369,-0.06575 -0.973259,-0.06575c-0.633659,0 -1.135902,0.116505 -1.504127,0.349514s-0.551687,0.589445 -0.551687,1.069306c0,0.222628 0.040336,0.417572 0.126211,0.582524c0.081972,0.166106 0.195172,0.30222 0.338299,0.41065s0.308372,0.189176 0.49834,0.243391s0.390344,0.080746 0.602432,0.080746c0.261531,0 0.51005,-0.032298 0.742956,-0.095742s0.448896,-0.145343 0.645369,-0.243391s0.37343,-0.207632 0.529567,-0.329905c0.157439,-0.121119 0.291457,-0.239931 0.400754,-0.355282l0,-1.499566l-0.001301,0z"/>
   <path stroke="null" id="svg_23" d="m704.92169,127.487526l0,-14.680754l2.593188,0l0,14.680754l-2.593188,0z"/>
   <path stroke="null" id="svg_24" d="m710.577781,112.806772l2.593188,0l0,8.84052l0.054648,0l4.036161,-3.984232l3.206029,0l-4.649002,4.612897l4.682832,5.21157l-3.13967,0l-4.146759,-4.572524l-0.042938,0l0,4.572524l-2.593188,0l0,-14.680754l-0.001301,0z"/>
   <path stroke="null" id="svg_25" d="m722.031788,112.806772l2.724604,0l0,2.605785l-2.724604,0l0,-2.605785zm0.065057,4.856288l2.591887,0l0,9.824466l-2.591887,0l0,-9.824466z"/>
   <path stroke="null" id="svg_26" d="m729.984405,119.031125l0.042938,0c0.153535,-0.203018 0.347407,-0.402576 0.580312,-0.598673c0.232906,-0.196097 0.499641,-0.36797 0.797604,-0.516774s0.628455,-0.268768 0.990174,-0.359896s0.745558,-0.137268 1.154118,-0.137268c0.387742,0 0.761172,0.040373 1.12159,0.121119s0.69091,0.207632 0.990174,0.380659s0.563397,0.395655 0.792399,0.669037s0.409862,0.599827 0.541278,0.978179c0.074165,0.209939 0.122308,0.437181 0.14703,0.684033c0.027324,0.246852 0.039034,0.531769 0.039034,0.85706l0,6.376617l-2.593188,0l0,-6.001726c0,-0.264154 -0.010409,-0.490243 -0.032529,-0.679419c-0.02212,-0.189176 -0.061154,-0.355282 -0.119706,-0.497164c-0.132717,-0.311448 -0.330492,-0.534076 -0.595926,-0.669037c-0.266735,-0.134961 -0.58942,-0.203018 -0.968054,-0.203018c-0.503544,0 -0.987571,0.109584 -1.449479,0.329905c-0.463209,0.219167 -0.87307,0.53869 -1.230886,0.958569l0,6.76189l-2.591887,0l0,-9.824466l2.144292,0l0.240712,1.370373z"/>
   <path stroke="null" id="svg_27" d="m746.907137,127.740145c0,-0.134961 0.002602,-0.30222 0.005205,-0.501778c0.003903,-0.199558 0.013011,-0.366817 0.027324,-0.501778l-0.02212,0c-0.161342,0.121119 -0.344804,0.241084 -0.552988,0.359896s-0.435885,0.226088 -0.683103,0.324137s-0.520459,0.175334 -0.821024,0.23301c-0.297963,0.057676 -0.605034,0.086513 -0.918611,0.086513c-0.562096,0 -1.11118,-0.093435 -1.645952,-0.27915c-0.536073,-0.185716 -1.012293,-0.479861 -1.428661,-0.882437s-0.750762,-0.917042 -1.005787,-1.545707s-0.382538,-1.385369 -0.382538,-2.271266s0.130115,-1.661058 0.387742,-2.326635c0.258928,-0.665577 0.603733,-1.22157 1.034413,-1.667979c0.429379,-0.446409 0.923815,-0.782081 1.482008,-1.009323s1.131999,-0.339133 1.72272,-0.339133c0.649273,0 1.225682,0.126886 1.729226,0.380659s0.914707,0.576756 1.23479,0.967797l0.044239,0l0.109296,-1.105065l2.275708,0l0,10.006721c0,0.574449 -0.052046,1.068153 -0.153535,1.479957s-0.251122,0.777467 -0.448896,1.094683c-0.234207,0.371431 -0.530868,0.696722 -0.892588,0.973565s-0.772882,0.506392 -1.23479,0.6898c-0.463209,0.182255 -0.971958,0.319523 -1.526247,0.409497c-0.55559,0.092281 -1.142408,0.137268 -1.761755,0.137268c-0.35131,0 -0.693512,-0.012689 -1.029208,-0.035759s-0.650574,-0.057676 -0.945935,-0.101509c-0.296662,-0.043833 -0.565999,-0.094588 -0.809314,-0.15111c-0.244616,-0.058829 -0.451498,-0.117658 -0.619346,-0.177641l0,-1.956357c0.481425,0.148803 0.98627,0.261847 1.515838,0.339133c0.528266,0.077285 1.083856,0.117658 1.666771,0.117658c1.160624,0 2.057115,-0.207632 2.690774,-0.62405c0.63496,-0.414111 0.951139,-1.045082 0.951139,-1.890607l0,-0.23301l0.005205,0zm-2.318646,-1.915984c0.262832,0 0.511351,-0.029991 0.744257,-0.091127c0.232906,-0.061136 0.447595,-0.138422 0.644068,-0.23301s0.37343,-0.199558 0.530868,-0.313755c0.156138,-0.115351 0.290156,-0.229549 0.399452,-0.3449l0,-4.390269c-0.277145,-0.304527 -0.620648,-0.557147 -1.027907,-0.760165c-0.408561,-0.203018 -0.841843,-0.307988 -1.302449,-0.313755c-0.160041,0 -0.32919,0.018456 -0.508749,0.055369s-0.359117,0.102663 -0.541278,0.197251c-0.183462,0.094588 -0.355213,0.221474 -0.519158,0.380659s-0.307071,0.359896 -0.431981,0.603287s-0.223797,0.534076 -0.300565,0.872055c-0.076768,0.337979 -0.114501,0.730173 -0.114501,1.176583c0,0.493703 0.050745,0.934345 0.152234,1.323079c0.102791,0.388734 0.255025,0.719792 0.460606,0.993174s0.458004,0.483322 0.75987,0.628664s0.653176,0.21686 1.055231,0.21686z"/>
   <path stroke="null" id="svg_28" d="m763.599566,114.752748c-0.284951,-0.068057 -0.57771,-0.123426 -0.880877,-0.167259s-0.58942,-0.06575 -0.858758,-0.06575c-0.292758,0 -0.550386,0.032298 -0.776785,0.095742s-0.417669,0.17072 -0.573806,0.319523c-0.157439,0.148803 -0.275843,0.34144 -0.355213,0.57791s-0.121007,0.523695 -0.121007,0.861674l0,1.28732l2.943197,0l0,1.97712l-2.943197,0l0,7.847346l-2.591887,0l0,-7.847346l-1.794283,0l0,-1.97712l1.794283,0l0,-1.166201c0,-0.6898 0.104092,-1.282706 0.310974,-1.778716c0.208184,-0.497164 0.49834,-0.905507 0.870468,-1.226184c0.370827,-0.320676 0.809314,-0.557147 1.312858,-0.70941s1.050027,-0.228395 1.640748,-0.228395c0.364321,0 0.728643,0.028838 1.089061,0.086513s0.672694,0.126886 0.935525,0.207632l0,1.905603l-0.001301,0z"/>
   <path stroke="null" id="svg_29" d="m774.418612,122.580483c0,0.770546 -0.12491,1.473035 -0.372128,2.108621s-0.603733,1.17889 -1.06564,1.63222c-0.463209,0.45333 -1.022702,0.802845 -1.679782,1.049696c-0.655779,0.246852 -1.388325,0.370278 -2.197639,0.370278c-0.831434,0 -1.576991,-0.123426 -2.237975,-0.370278c-0.659682,-0.246852 -1.220477,-0.596366 -1.678481,-1.049696c-0.460606,-0.45333 -0.811916,-0.996635 -1.056532,-1.63222s-0.365623,-1.338075 -0.365623,-2.108621s0.123609,-1.473035 0.370827,-2.108621s0.603733,-1.17889 1.066941,-1.63222c0.461908,-0.45333 1.022702,-0.802845 1.678481,-1.049696c0.65708,-0.246852 1.389626,-0.370278 2.19894,-0.370278c0.831434,0 1.576991,0.123426 2.236674,0.370278c0.660983,0.246852 1.220477,0.596366 1.679782,1.049696c0.459305,0.45333 0.810615,0.996635 1.055231,1.63222c0.245917,0.634432 0.366924,1.338075 0.366924,2.108621zm-2.679064,0c0,-0.520234 -0.066359,-0.980486 -0.196473,-1.378447c-0.132717,-0.399115 -0.313577,-0.733634 -0.547783,-1.003556s-0.513953,-0.47294 -0.841843,-0.607901c-0.327889,-0.134961 -0.684404,-0.203018 -1.070845,-0.203018c-0.379935,0 -0.732546,0.068057 -1.056532,0.203018c-0.325287,0.134961 -0.603733,0.337979 -0.837939,0.607901c-0.232906,0.269922 -0.415066,0.604441 -0.546482,1.003556s-0.196473,0.858213 -0.196473,1.378447s0.066359,0.980486 0.196473,1.378447s0.314878,0.731327 0.552988,0.998942c0.236809,0.266461 0.516556,0.46948 0.841843,0.607901c0.323986,0.138422 0.679199,0.207632 1.06564,0.207632s0.739052,-0.069211 1.060436,-0.207632c0.320082,-0.138422 0.597227,-0.34144 0.831434,-0.607901s0.415066,-0.599827 0.547783,-0.998942c0.131416,-0.399115 0.197775,-0.858213 0.197775,-1.378447z"/>
   <path stroke="null" id="svg_30" d="m786.823758,122.580483c0,0.770546 -0.12491,1.473035 -0.372128,2.108621s-0.603733,1.17889 -1.06564,1.63222c-0.463209,0.45333 -1.022702,0.802845 -1.679782,1.049696c-0.655779,0.246852 -1.388325,0.370278 -2.197639,0.370278c-0.831434,0 -1.576991,-0.123426 -2.237975,-0.370278c-0.659682,-0.246852 -1.220477,-0.596366 -1.678481,-1.049696c-0.460606,-0.45333 -0.811916,-0.996635 -1.056532,-1.63222s-0.365623,-1.338075 -0.365623,-2.108621s0.123609,-1.473035 0.370827,-2.108621s0.603733,-1.17889 1.066941,-1.63222c0.461908,-0.45333 1.022702,-0.802845 1.678481,-1.049696c0.65708,-0.246852 1.389626,-0.370278 2.19894,-0.370278c0.831434,0 1.576991,0.123426 2.236674,0.370278c0.660983,0.246852 1.220477,0.596366 1.679782,1.049696c0.459305,0.45333 0.810615,0.996635 1.055231,1.63222c0.244616,0.634432 0.366924,1.338075 0.366924,2.108621zm-2.680365,0c0,-0.520234 -0.066359,-0.980486 -0.196473,-1.378447c-0.132717,-0.399115 -0.313577,-0.733634 -0.547783,-1.003556s-0.513953,-0.47294 -0.841843,-0.607901c-0.327889,-0.134961 -0.684404,-0.203018 -1.070845,-0.203018c-0.379935,0 -0.732546,0.068057 -1.056532,0.203018c-0.325287,0.134961 -0.603733,0.337979 -0.837939,0.607901c-0.232906,0.269922 -0.415066,0.604441 -0.546482,1.003556s-0.196473,0.858213 -0.196473,1.378447s0.066359,0.980486 0.196473,1.378447s0.314878,0.731327 0.552988,0.998942c0.236809,0.266461 0.516556,0.46948 0.841843,0.607901c0.323986,0.138422 0.679199,0.207632 1.06564,0.207632s0.739052,-0.069211 1.060436,-0.207632c0.320082,-0.138422 0.597227,-0.34144 0.831434,-0.607901s0.415066,-0.599827 0.547783,-0.998942c0.131416,-0.399115 0.197775,-0.858213 0.197775,-1.378447z"/>
   <path stroke="null" id="svg_31" d="m788.573802,122.77312c0,-0.858213 0.127513,-1.624146 0.382538,-2.296643s0.603733,-1.236565 1.044822,-1.693356s0.947236,-0.797077 1.515838,-1.024319c0.568602,-0.226088 1.159323,-0.339133 1.770863,-0.339133c0.284951,0 0.554289,0.024224 0.809314,0.071518s0.495737,0.111891 0.722137,0.192637s0.438487,0.171873 0.63496,0.273382s0.378634,0.206479 0.546482,0.313755l0.02212,0c-0.006506,-0.134961 -0.013011,-0.326444 -0.016915,-0.573296c-0.002602,-0.246852 -0.005205,-0.51562 -0.005205,-0.806305l0,-4.085741l2.593188,0l0,11.76006c0,0.649428 0.006506,1.206574 0.02212,1.672593c0.014313,0.466019 0.028625,0.882437 0.042938,1.246947l-2.340765,0l-0.109296,-1.043929l-0.044239,0c-0.152234,0.168413 -0.336997,0.334519 -0.551687,0.497164c-0.215991,0.162645 -0.4528,0.30222 -0.711728,0.421032s-0.54388,0.211093 -0.853553,0.27915s-0.646671,0.101509 -1.010992,0.101509c-0.575107,0 -1.128095,-0.094588 -1.656362,-0.283764s-1.003185,-0.481015 -1.422155,-0.87667s-0.754666,-0.912428 -1.005787,-1.551474s-0.378634,-1.389983 -0.378634,-2.255117zm5.108307,3.051041c0.255025,0 0.49834,-0.029991 0.728643,-0.091127c0.229002,-0.061136 0.446294,-0.141882 0.650574,-0.243391c0.202979,-0.101509 0.383839,-0.2134 0.541278,-0.334519c0.156138,-0.121119 0.290156,-0.239931 0.399452,-0.355282l0,-4.663651c-0.30577,-0.229549 -0.649273,-0.421032 -1.027907,-0.573296c-0.379935,-0.152264 -0.780689,-0.228395 -1.203562,-0.228395c-0.269338,0 -0.552988,0.050755 -0.847047,0.152264c-0.296662,0.101509 -0.565999,0.273382 -0.809314,0.516774c-0.244616,0.243391 -0.448896,0.58137 -0.612841,1.013937c-0.165246,0.432567 -0.245917,0.983946 -0.245917,1.652983c0,0.986253 0.205581,1.7568 0.618045,2.311639s1.013594,0.835143 1.808596,0.842064z"/>
  </g>
  <g stroke="null" id="svg_32"/>
  <g stroke="null" id="svg_33"/>
  <g stroke="null" id="svg_34"/>
  <g stroke="null" id="svg_35"/>
  <g stroke="null" id="svg_36"/>
  <g stroke="null" id="svg_37"/>
  <g stroke="null" id="svg_38"/>
  <g stroke="null" id="svg_39"/>
  <g stroke="null" id="svg_40"/>
  <g stroke="null" id="svg_41"/>
  <g stroke="null" id="svg_42"/>
  <g stroke="null" id="svg_43"/>
  <g stroke="null" id="svg_44"/>
  <g stroke="null" id="svg_45"/>
  <g stroke="null" id="svg_46"/>
 </g>
</svg>