<svg width="800" height="130" xmlns="http://www.w3.org/2000/svg">
 <g stroke="null">
  <title>background</title>
  <rect x="-1" y="-1" width="802" height="132" id="canvas_background" fill="none" stroke="null"/>
 </g>

 <g stroke="null">
  <title>Layer 1</title>
  <g id="svg_1" stroke="null">
   <path fill="#006837" d="m40.00662,93.2224c3.14638,0 6.42899,-0.33233 9.84785,-1.00083c3.42014,-0.66722 6.88484,-1.61966 10.39665,-2.85987l0,13.51373c-2.09716,0.95499 -5.31356,1.85905 -9.64412,2.71726c-4.33183,0.85822 -8.82282,1.28733 -13.47298,1.28733c-4.696,0 -9.15389,-0.63284 -13.37112,-1.8947c-4.21851,-1.26313 -7.89967,-3.30044 -11.04477,-6.1132c-3.14637,-2.81149 -5.64335,-6.45828 -7.48966,-10.93909c-1.84631,-4.47953 -2.76947,-9.91406 -2.76947,-16.3023c0,-6.29146 0.86586,-11.7973 2.59884,-16.51621c1.73299,-4.71892 4.05807,-8.62674 6.97652,-11.726c2.91717,-3.09798 6.25836,-5.42179 10.01974,-6.97142c3.76139,-1.54835 7.64883,-2.3238 11.66106,-2.3238c4.19431,0 8.05883,0.66849 11.59229,2.00165c3.53219,1.33444 6.58815,3.4316 9.16408,6.29147c2.57465,2.85987 4.58267,6.54231 6.01898,11.04604c1.4363,4.505 2.15445,9.8313 2.15445,15.98015c-0.04584,2.38493 -0.1146,4.40951 -0.205,6.07755l-43.43036,0c0.22792,3.19349 0.91169,5.92348 2.05132,8.18744c1.13962,2.26396 2.63322,4.10009 4.47953,5.50456c1.84631,1.40702 4.00204,2.43077 6.46337,3.07507c2.4626,0.64302 5.1302,0.96517 8.00281,0.96517l-0.00001,0zm-6.49774,-45.90187c-2.05132,0 -3.87598,0.39346 -5.47145,1.18037c-1.59547,0.78564 -2.97448,1.85904 -4.13829,3.2164c-1.16254,1.35863 -2.08569,2.94391 -2.76947,4.75457c-0.68377,1.81194 -1.14089,3.74229 -1.36754,5.79106l26.0572,0c0,-2.04877 -0.26231,-3.97912 -0.78564,-5.79106c-0.52461,-1.81066 -1.30006,-3.39594 -2.32508,-4.75457c-1.0263,-1.35736 -2.30344,-2.43076 -3.83142,-3.2164c-1.52671,-0.78819 -3.31572,-1.18037 -5.36831,-1.18037z" id="svg_2" stroke="null"/>
   <path fill="#006837" d="m74.27163,71.84465c0,-6.05208 0.7971,-11.45095 2.39384,-16.19407c1.59547,-4.74311 3.77285,-8.7235 6.53213,-11.94118c2.75801,-3.2164 5.91584,-5.62425 9.47222,-7.22099c3.55638,-1.59674 7.249,-2.39512 11.07914,-2.39512c1.77756,0 3.4647,0.16808 5.06145,0.50042c1.59546,0.33361 3.10053,0.78691 4.51391,1.35863c1.41211,0.57172 2.73509,1.21602 3.96639,1.93035s2.36964,1.4554 3.42013,2.21685l0.13625,0c-0.04584,-0.95372 -0.08022,-2.29961 -0.10187,-4.03897c-0.02419,-1.73935 -0.03438,-3.63405 -0.03438,-5.68409l0,-28.81648l16.20935,0l0,82.94017c0,4.5763 0.04457,8.50831 0.13624,11.7973c0.09041,3.28898 0.18209,6.22016 0.27377,8.79481l-14.6368,0l-0.68377,-7.36488l-0.27377,0c-0.95753,1.19183 -2.10861,2.35946 -3.45324,3.5029c-1.3459,1.14344 -2.82804,2.13408 -4.44515,2.96684c-1.61839,0.83529 -3.39722,1.48978 -5.33521,1.966c-1.93799,0.47622 -4.04661,0.7156 -6.32585,0.7156c-3.60222,0 -7.05673,-0.66849 -10.36227,-2.00165c-3.30681,-1.33317 -6.26982,-3.39594 -8.89031,-6.18451c-2.62303,-2.78857 -4.71892,-6.43536 -6.29147,-10.94036c-1.57382,-4.50373 -2.36073,-9.80583 -2.36073,-15.90757zm31.93993,21.52164c1.59547,0 3.11072,-0.21392 4.54702,-0.64303c1.43758,-0.42911 2.79239,-1.00083 4.06953,-1.71643c1.27587,-0.71561 2.4053,-1.50125 3.38576,-2.35946c0.98045,-0.85822 1.81193,-1.69097 2.4957,-2.50207l0,-32.88983c-1.91507,-1.61966 -4.05934,-2.96811 -6.42899,-4.03897c-2.37092,-1.0734 -4.87935,-1.60947 -7.52276,-1.60947c-1.68715,0 -3.45452,0.3578 -5.30083,1.07213s-3.53346,1.93035 -5.06144,3.64679c-1.52799,1.71643 -2.80385,4.10008 -3.83015,7.14968c-1.02629,3.05087 -1.53816,6.93577 -1.53816,11.65469c0,6.95996 1.28732,12.39448 3.86324,16.3023c2.5772,3.90782 6.35132,5.88655 11.32108,5.93367z" id="svg_3" stroke="null"/>
   <path fill="#006837" d="m155.79587,1.56l17.03064,0l0,18.37526l-17.03064,0l0,-18.37526zm0.41128,34.24846l16.20935,0l0,69.28382l-16.20935,0l0,-69.28382z" id="svg_4" stroke="null"/>
   <path fill="#006837" d="m254.28199,69.27c0,6.24563 -0.86713,11.77438 -2.59885,16.58752c-1.73298,4.8157 -4.00204,8.77062 -6.80589,11.86861c-2.80384,3.09926 -5.96295,5.39887 -9.47221,6.89884c-3.51182,1.50252 -7.044,2.2525 -10.60038,2.2525c-2.50844,0 -4.76476,-0.32087 -6.77024,-0.96517c-2.00675,-0.64303 -3.76138,-1.44013 -5.26645,-2.39512c-1.50506,-0.95371 -2.77074,-1.95454 -3.79576,-3.00248c-1.02629,-1.04794 -1.83485,-1.97747 -2.42694,-2.78857l-0.27377,0l-1.57255,7.36487l-13.4055,0c0.09041,-2.04877 0.1719,-4.58776 0.23939,-7.61444c0.06876,-3.02541 0.10186,-5.89801 0.10186,-8.61528l0,-87.30128l16.20935,0l0,28.81393c0,2.05004 -0.01273,3.94474 -0.03438,5.6841c-0.02419,1.74062 -0.0573,3.08652 -0.10187,4.03896l0.13625,0c1.04794,-0.76144 2.18883,-1.50124 3.42013,-2.21684s2.57465,-1.35864 4.03515,-1.93036c1.45922,-0.57172 3.03177,-1.02502 4.71892,-1.35863c1.68587,-0.33233 3.4647,-0.50041 5.33393,-0.50041c3.69263,0 7.28466,0.70414 10.77228,2.10989c3.48762,1.40574 6.58815,3.55128 9.30159,6.43535c2.71217,2.88407 4.86663,6.57797 6.46337,11.0817c1.59419,4.50627 2.39256,9.68995 2.39256,15.55231l0.00001,0zm-16.75688,0.85822c0,-4.33693 -0.50296,-8.06648 -1.50506,-11.18993c-1.00338,-3.12218 -2.31362,-5.50583 -3.93201,-7.14968c-1.61839,-1.64513 -3.30681,-2.75292 -5.06144,-3.32464c-1.75591,-0.57172 -3.50035,-0.85822 -5.23207,-0.85822c-2.37092,0 -4.78768,0.50042 -7.249,1.50125s-4.696,2.33526 -6.70275,4.00459l0,33.17632c0.63793,0.76272 1.42357,1.56236 2.35946,2.39511c0.93334,0.83402 1.98383,1.59674 3.14637,2.28815c1.16254,0.69142 2.42822,1.26314 3.79576,1.71644c1.36755,0.4533 2.82677,0.67868 4.37767,0.67868c2.64341,0 4.95958,-0.55899 6.94214,-1.67951c1.98383,-1.11925 3.64678,-2.7058 4.99268,-4.75457c1.34462,-2.04877 2.35946,-4.49227 3.04323,-7.32922c0.6825,-2.83569 1.02502,-5.99479 1.02502,-9.47477z" id="svg_5" stroke="null"/>
   <path fill="#006837" d="m269.32752,105.09228l0,-103.53228l16.20935,0l0,103.53228l-16.20935,0z" id="svg_6" stroke="null"/>
   <path fill="#006837" d="m338.13258,93.2224c3.14637,0 6.42899,-0.33233 9.84785,-1.00083c3.42013,-0.66722 6.88483,-1.61966 10.39664,-2.85987l0,13.51373c-2.09715,0.95499 -5.31355,1.85905 -9.64411,2.71726c-4.33183,0.85822 -8.82283,1.28733 -13.47299,1.28733c-4.696,0 -9.15389,-0.63284 -13.37112,-1.8947c-4.2185,-1.26313 -7.89967,-3.30044 -11.04604,-6.1132c-3.14637,-2.81149 -5.64208,-6.45828 -7.48839,-10.93909c-1.84631,-4.47953 -2.77074,-9.91406 -2.77074,-16.3023c0,-6.29146 0.86586,-11.7973 2.59884,-16.51621c1.73172,-4.71892 4.05807,-8.62674 6.97652,-11.726c2.91844,-3.09798 6.25836,-5.42179 10.01974,-6.97142c3.76139,-1.54835 7.64883,-2.3238 11.66106,-2.3238c4.19431,0 8.05883,0.66849 11.59229,2.00165c3.53219,1.33444 6.58815,3.4316 9.16408,6.29147c2.57465,2.85987 4.58267,6.54231 6.01897,11.04604c1.43631,4.505 2.15446,9.8313 2.15446,15.98015c-0.04584,2.38493 -0.1146,4.40951 -0.205,6.07755l-43.42909,0c0.22792,3.19349 0.9117,5.92348 2.05132,8.18744c1.13962,2.26396 2.63195,4.10009 4.47953,5.50456c1.84632,1.40702 4.00204,2.43077 6.46337,3.07507c2.4626,0.64302 5.1302,0.96517 8.00281,0.96517zm-6.49775,-45.90187c-2.05131,0 -3.87598,0.39346 -5.47145,1.18037c-1.59674,0.78564 -2.97574,1.85904 -4.13828,3.2164c-1.16254,1.35863 -2.0857,2.94391 -2.76947,4.75457c-0.68377,1.81194 -1.1409,3.74229 -1.36755,5.79106l26.0572,0c0,-2.04877 -0.26231,-3.97912 -0.78564,-5.79106c-0.52461,-1.81066 -1.30006,-3.39594 -2.32508,-4.75457c-1.02629,-1.35736 -2.30343,-2.43076 -3.83142,-3.2164c-1.5267,-0.78819 -3.31699,-1.18037 -5.36831,-1.18037z" id="svg_7" stroke="null"/>
   <path fill="#006837" d="m401.25863,71.84465c0,-6.05208 0.79583,-11.45095 2.39257,-16.19407c1.59674,-4.74311 3.77284,-8.7235 6.5334,-11.94118c2.75801,-3.2164 5.91456,-5.62425 9.47222,-7.22099c3.55637,-1.59674 7.249,-2.39512 11.07914,-2.39512c1.77756,0 3.4647,0.16808 5.06144,0.50042c1.5942,0.33361 3.09926,0.78691 4.51392,1.35863c1.41211,0.57172 2.73509,1.21602 3.96639,1.93035s2.36964,1.4554 3.42013,2.21685l0.13625,0c-0.04712,-0.95372 -0.08022,-2.29961 -0.10187,-4.03897c-0.02547,-1.73935 -0.03438,-3.63405 -0.03438,-5.68409l0,-28.81648l16.20935,0l0,82.94017c0,4.5763 0.04456,8.50831 0.13624,11.7973c0.08914,3.28898 0.18209,6.22016 0.27377,8.79481l-14.63808,0l-0.68377,-7.36488l-0.27376,0c-0.95754,1.19183 -2.10862,2.35946 -3.45197,3.5029c-1.3459,1.14344 -2.82804,2.13408 -4.44643,2.96684c-1.61839,0.83529 -3.39721,1.48978 -5.33393,1.966c-1.93926,0.47622 -4.04661,0.7156 -6.32712,0.7156c-3.60095,0 -7.05546,-0.66849 -10.361,-2.00165c-3.30808,-1.33317 -6.26982,-3.39594 -8.89031,-6.18451c-2.62431,-2.78857 -4.72019,-6.43536 -6.29147,-10.94036c-1.57509,-4.50373 -2.36073,-9.80583 -2.36073,-15.90757zm31.93993,21.52164c1.5942,0 3.11072,-0.21392 4.54575,-0.64303c1.43758,-0.42911 2.79239,-1.00083 4.0708,-1.71643c1.27586,-0.71561 2.4053,-1.50125 3.38448,-2.35946s1.81321,-1.69097 2.49698,-2.50207l0,-32.88983c-1.91507,-1.61966 -4.05934,-2.96811 -6.42899,-4.03897c-2.37219,-1.0734 -4.87936,-1.60947 -7.52277,-1.60947c-1.68842,0 -3.45451,0.3578 -5.3021,1.07213c-1.84504,0.71561 -3.53346,1.93035 -5.06144,3.64679s-2.80257,4.10008 -3.83014,7.14968c-1.02502,3.05087 -1.5369,6.93577 -1.5369,11.65469c0,6.95996 1.28605,12.39448 3.86198,16.3023c2.57847,3.90782 6.35131,5.88655 11.32235,5.93367z" id="svg_8" stroke="null"/>
   <path fill="#006837" d="m482.78414,1.56l17.03064,0l0,18.37526l-17.03064,0l0,-18.37526zm0.41001,34.24846l16.20935,0l0,69.28382l-16.20935,0l0,-69.28382z" id="svg_9" stroke="null"/>
   <path fill="#006837" d="m556.57933,97.7274l-0.27376,0c-0.91297,1.00083 -2.00675,2.02713 -3.28262,3.07507c-1.27586,1.04921 -2.73509,2.03858 -4.37767,2.96683c-1.6413,0.92952 -3.4647,1.68078 -5.47145,2.2525s-4.17012,0.85822 -6.49647,0.85822c-3.14637,0 -6.08774,-0.51315 -8.8241,-1.53817c-2.73509,-1.02375 -5.08564,-2.50207 -7.04527,-4.43242c-1.95964,-1.93035 -3.49908,-4.26562 -4.61578,-7.00708c-1.1167,-2.74018 -1.67569,-5.80251 -1.67569,-9.18699c0,-3.71809 0.65194,-7.05419 1.94945,-10.00956c1.30006,-2.95537 3.11072,-5.45744 5.43707,-7.50749c2.32508,-2.04877 5.10855,-3.61113 8.3466,-4.68327c3.23551,-1.0734 6.81481,-1.60947 10.73663,-1.60947c2.87261,0 5.51602,0.191 7.93277,0.57172c2.41676,0.382 4.53684,0.83402 6.36151,1.35863l0,-2.78857c0,-1.61966 -0.26358,-3.18202 -0.78564,-4.68326c-0.52461,-1.50252 -1.36755,-2.83569 -2.53136,-4.00459c-1.16127,-1.16764 -2.67906,-2.09716 -4.5483,-2.78857c-1.8705,-0.69014 -4.14847,-1.03648 -6.83899,-1.03648c-3.28262,0 -6.56523,0.38199 -9.84785,1.14344c-3.28261,0.76272 -6.83899,1.90743 -10.66914,3.43159l0,-13.22596c3.32719,-1.52544 6.86192,-2.6918 10.60166,-3.5029c3.73846,-0.80983 7.66028,-1.23894 11.76291,-1.28733c4.83225,0 9.06221,0.62011 12.68608,1.85905c3.62641,1.24021 6.65818,2.94391 9.09786,5.11237c2.43713,2.16974 4.26307,4.73038 5.47145,7.68576c1.20584,2.95664 1.81066,6.17432 1.81066,9.65303l0,26.09794c0,4.57631 0.04712,8.50831 0.13625,11.7973c0.09168,3.28898 0.18463,6.22016 0.27631,8.79481l-14.63808,0l-0.68504,-7.36615zm-1.29878,-22.16466c-1.55218,-0.38072 -3.32973,-0.72579 -5.33393,-1.03648c-2.00675,-0.30942 -4.03642,-0.46476 -6.08774,-0.46476c-3.96639,0 -7.10257,0.82256 -9.40346,2.46769c-2.30343,1.64386 -3.45451,4.15866 -3.45451,7.54314c0,1.57255 0.26103,2.94391 0.78563,4.11155c0.52461,1.16891 1.2313,2.13408 2.12135,2.89553c0.88751,0.76271 1.92526,1.33443 3.11072,1.71643c1.18673,0.382 2.43968,0.57172 3.76266,0.57172c1.64131,0 3.19094,-0.22538 4.65016,-0.67868c1.45795,-0.45203 2.80257,-1.02502 4.03387,-1.71643c1.2313,-0.69014 2.33782,-1.46559 3.317,-2.32381s1.8132,-1.69097 2.49698,-2.50207l0,-10.58383l0.00127,0z" id="svg_10" stroke="null"/>
   <path fill="#006837" d="m590.36685,105.09228l0,-103.53228l16.20935,0l0,103.53228l-16.20935,0z" id="svg_11" stroke="null"/>
   <path fill="#006837" d="m659.17063,93.2224c3.14637,0 6.42899,-0.33233 9.84785,-1.00083c3.42013,-0.66722 6.88356,-1.61966 10.39537,-2.85987l0,13.51373c-2.09588,0.95499 -5.31228,1.85905 -9.64411,2.71726s-8.82156,1.28733 -13.47172,1.28733c-4.69727,0 -9.15389,-0.63284 -13.37239,-1.8947c-4.21851,-1.26313 -7.8984,-3.30044 -11.04477,-6.1132c-3.14637,-2.81149 -5.64335,-6.45828 -7.48839,-10.93909c-1.84758,-4.47953 -2.77074,-9.91406 -2.77074,-16.3023c0,-6.29146 0.86586,-11.7973 2.59885,-16.51621c1.73044,-4.71892 4.05679,-8.62674 6.97651,-11.726c2.91717,-3.09798 6.25709,-5.42179 10.01975,-6.97142c3.76011,-1.54835 7.64755,-2.3238 11.66105,-2.3238c4.19304,0 8.05756,0.66849 11.59229,2.00165c3.53346,1.33444 6.58816,3.4316 9.16408,6.29147s4.58395,6.54231 6.01898,11.04604c1.43757,4.505 2.15573,9.8313 2.15573,15.98015c-0.04712,2.38493 -0.1146,4.40951 -0.20628,6.07755l-43.42909,0c0.2292,3.19349 0.91297,5.92348 2.05132,8.18744c1.13962,2.26396 2.63322,4.10009 4.47954,5.50456c1.84758,1.40702 4.00204,2.43077 6.46336,3.07507c2.46133,0.64302 5.1302,0.96517 8.00281,0.96517zm-6.49775,-45.90187c-2.05131,0 -3.87471,0.39346 -5.47145,1.18037c-1.59674,0.78564 -2.97447,1.85904 -4.13828,3.2164c-1.16127,1.35863 -2.08443,2.94391 -2.7682,4.75457c-0.68377,1.81194 -1.14089,3.74229 -1.36754,5.79106l26.05592,0c0,-2.04877 -0.26103,-3.97912 -0.78564,-5.79106c-0.5246,-1.81066 -1.29878,-3.39594 -2.32508,-4.75457c-1.02502,-1.35736 -2.30343,-2.43076 -3.83014,-3.2164c-1.52798,-0.78819 -3.31827,-1.18037 -5.36958,-1.18037l-0.00001,0z" id="svg_12" stroke="null"/>
   <path fill="#006837" d="m744.5925,103.58976c-2.05132,0.90533 -4.56103,1.68078 -7.52277,2.32381c-2.96429,0.6443 -6.08774,0.96518 -9.37036,0.96518c-4.78767,0 -9.25702,-0.71561 -13.40422,-2.14555s-7.77361,-3.59839 -10.87542,-6.50665c-3.1018,-2.90699 -5.53894,-6.58943 -7.31649,-11.04732c-1.77755,-4.45661 -2.66887,-9.66322 -2.66887,-15.62235c0,-6.67346 1.02756,-12.39321 3.07888,-17.16051c2.05132,-4.76604 4.70746,-8.63947 7.96843,-11.61904c3.25842,-2.97829 6.92813,-5.17222 11.00911,-6.57796c4.08099,-1.40575 8.10468,-2.10989 12.07107,-2.10989c2.96428,0 5.81397,0.27503 8.55033,0.82256c2.73509,0.5488 5.22061,1.29879 7.45401,2.2525l0,13.79896c-2.00675,-0.90406 -4.13574,-1.6324 -6.39333,-2.17992c-2.25505,-0.54753 -4.68582,-0.82257 -7.28466,-0.82257s-5.08309,0.41765 -7.45401,1.25167c-2.37219,0.83403 -4.46935,2.15701 -6.29147,3.96767c-1.82594,1.81193 -3.27243,4.20704 -4.34456,7.18661c-1.07214,2.97956 -1.60693,6.5665 -1.60693,10.76081c0,3.05088 0.41001,5.92348 1.2313,8.61528c0.82129,2.69434 2.01694,4.99395 3.59076,6.90011c1.57127,1.90744 3.5793,3.44433 6.01898,4.61196c2.43713,1.16764 5.32247,1.75082 8.6522,1.75082c2.96174,0 5.65226,-0.30942 8.07029,-0.92953c2.41421,-0.61883 4.696,-1.38155 6.839,-2.28815l0,13.8015l-0.00128,0l0.00001,0z" id="svg_13" stroke="null"/>
   <path fill="#006837" d="m799.102,105.02097c-1.82339,0.57172 -3.99949,1.02503 -6.53085,1.35863c-2.53136,0.33234 -4.88955,0.50042 -7.07838,0.50042c-5.56313,0 -10.11143,-0.94226 -13.64616,-2.82422c-3.53346,-1.88197 -6.03044,-4.5865 -7.48839,-8.11486c-1.04921,-2.52627 -1.57382,-5.95786 -1.57382,-10.29606l0,-35.89358l-12.37793,0l0,-13.94284l12.37793,0l0,-19.3761l16.20935,0l0,19.3761l19.14944,0l0,13.94284l-19.14944,0l0,33.67673c0,2.67015 0.38836,4.64762 1.16381,5.93494c1.36755,2.19266 4.07844,3.28898 8.13778,3.28898c1.87051,0 3.72828,-0.15407 5.57587,-0.46476c1.84504,-0.30941 3.58821,-0.70287 5.22952,-1.17909l0,14.01287l0.00127,0z" id="svg_14" stroke="null"/>
  </g>
  <g id="svg_15" stroke="null">
   <path d="m672.182,118.294c-0.157,0.85 -0.342,1.673 -0.555,2.47l-0.984,3.735l-1.958,0l-2.851,-8.517l2.102,0l1.051,3.568c0.241,0.826 0.454,1.626 0.64,2.399l0.033,0c0.157,-0.75 0.345,-1.55 0.563,-2.399l0.934,-3.568l2.102,0l0.916,3.568c0.196,0.756 0.384,1.556 0.563,2.399l0.033,0c0.19,-0.791 0.404,-1.591 0.64,-2.399l1.051,-3.568l2.102,0l-2.85,8.517l-1.959,0l-0.984,-3.735c-0.224,-0.838 -0.409,-1.661 -0.555,-2.47l-0.034,0z" id="svg_16" stroke="null"/>
   <path d="m683.935,123.041c0.387,0 0.79,-0.041 1.211,-0.123c0.42,-0.082 0.846,-0.199 1.277,-0.352l0,1.661c-0.258,0.117 -0.652,0.229 -1.186,0.334c-0.532,0.105 -1.084,0.158 -1.656,0.158c-0.577,0 -1.125,-0.078 -1.644,-0.233s-0.971,-0.406 -1.357,-0.751s-0.693,-0.794 -0.921,-1.345c-0.227,-0.551 -0.34,-1.219 -0.34,-2.004c0,-0.773 0.106,-1.45 0.319,-2.03s0.499,-1.061 0.857,-1.441s0.77,-0.667 1.231,-0.857c0.463,-0.19 0.94,-0.286 1.434,-0.286c0.516,0 0.99,0.082 1.425,0.246s0.811,0.422 1.127,0.773s0.563,0.804 0.739,1.358c0.177,0.554 0.266,1.208 0.266,1.964c-0.006,0.293 -0.015,0.542 -0.025,0.747l-5.339,0c0.028,0.393 0.112,0.728 0.252,1.006c0.141,0.278 0.324,0.504 0.551,0.677c0.228,0.173 0.492,0.299 0.795,0.378s0.63,0.12 0.984,0.12zm-0.799,-5.643c-0.252,0 -0.477,0.048 -0.673,0.145s-0.365,0.229 -0.508,0.396c-0.144,0.167 -0.257,0.362 -0.341,0.584s-0.141,0.46 -0.168,0.712l3.203,0c0,-0.252 -0.032,-0.489 -0.097,-0.712s-0.16,-0.417 -0.286,-0.584s-0.283,-0.299 -0.471,-0.396s-0.407,-0.145 -0.659,-0.145z" id="svg_17" stroke="null"/>
   <path d="m689.266,112.74l2.135,0l-1.631,4.843l-1.79,0l1.286,-4.843z" id="svg_18" stroke="null"/>
   <path d="m697.588,117.635l-0.168,0c-0.611,0 -1.147,0.095 -1.61,0.286c-0.462,0.19 -0.819,0.482 -1.072,0.875l0,5.704l-1.992,0l0,-8.517l1.648,0l0.185,1.187l0.033,0c0.235,-0.434 0.56,-0.775 0.972,-1.024s0.906,-0.374 1.483,-0.374c0.202,0 0.376,0.012 0.521,0.035l0,1.828z" id="svg_19" stroke="null"/>
   <path d="m702.96,123.041c0.387,0 0.79,-0.041 1.211,-0.123c0.42,-0.082 0.846,-0.199 1.277,-0.352l0,1.661c-0.258,0.117 -0.652,0.229 -1.186,0.334c-0.532,0.105 -1.084,0.158 -1.656,0.158c-0.577,0 -1.125,-0.078 -1.644,-0.233s-0.971,-0.406 -1.357,-0.751s-0.693,-0.794 -0.921,-1.345c-0.227,-0.551 -0.34,-1.219 -0.34,-2.004c0,-0.773 0.106,-1.45 0.319,-2.03s0.499,-1.061 0.857,-1.441s0.77,-0.667 1.231,-0.857c0.463,-0.19 0.94,-0.286 1.434,-0.286c0.516,0 0.99,0.082 1.425,0.246s0.811,0.422 1.127,0.773s0.563,0.804 0.739,1.358c0.177,0.554 0.266,1.208 0.266,1.964c-0.006,0.293 -0.015,0.542 -0.025,0.747l-5.339,0c0.028,0.393 0.112,0.728 0.252,1.006c0.141,0.278 0.324,0.504 0.551,0.677c0.228,0.173 0.492,0.299 0.795,0.378s0.63,0.12 0.984,0.12zm-0.799,-5.643c-0.252,0 -0.477,0.048 -0.673,0.145s-0.365,0.229 -0.508,0.396c-0.144,0.167 -0.257,0.362 -0.341,0.584s-0.141,0.46 -0.168,0.712l3.203,0c0,-0.252 -0.032,-0.489 -0.097,-0.712s-0.16,-0.417 -0.286,-0.584s-0.283,-0.299 -0.471,-0.396s-0.407,-0.145 -0.659,-0.145z" id="svg_20" stroke="null"/>
   <path d="m716.118,124.491c-0.225,0.07 -0.492,0.126 -0.803,0.167c-0.312,0.041 -0.602,0.062 -0.871,0.062c-0.684,0 -1.242,-0.116 -1.677,-0.347s-0.741,-0.564 -0.921,-0.998c-0.129,-0.311 -0.193,-0.732 -0.193,-1.266l0,-4.412l-1.521,0l0,-1.714l1.521,0l0,-2.382l1.993,0l0,2.382l2.354,0l0,1.714l-2.354,0l0,4.14c0,0.328 0.047,0.571 0.143,0.729c0.168,0.27 0.502,0.404 1,0.404c0.23,0 0.459,-0.019 0.686,-0.057c0.228,-0.038 0.441,-0.086 0.644,-0.145l0,1.723l-0.001,0z" id="svg_21" stroke="null"/>
   <path d="m722.465,123.594l-0.033,0c-0.112,0.123 -0.247,0.249 -0.403,0.378c-0.157,0.129 -0.337,0.25 -0.538,0.365c-0.202,0.114 -0.427,0.207 -0.673,0.277c-0.247,0.07 -0.513,0.105 -0.799,0.105c-0.387,0 -0.748,-0.063 -1.084,-0.189c-0.337,-0.126 -0.626,-0.308 -0.866,-0.545c-0.241,-0.237 -0.431,-0.524 -0.567,-0.861c-0.138,-0.337 -0.206,-0.713 -0.206,-1.129c0,-0.457 0.08,-0.867 0.239,-1.23c0.16,-0.363 0.383,-0.671 0.669,-0.923c0.285,-0.252 0.627,-0.444 1.025,-0.576c0.397,-0.132 0.838,-0.198 1.319,-0.198c0.354,0 0.679,0.023 0.976,0.07s0.558,0.103 0.782,0.167l0,-0.343c0,-0.199 -0.032,-0.391 -0.097,-0.576s-0.168,-0.349 -0.312,-0.492c-0.143,-0.144 -0.329,-0.258 -0.559,-0.343c-0.23,-0.085 -0.511,-0.127 -0.841,-0.127c-0.403,0 -0.808,0.047 -1.211,0.141s-0.841,0.234 -1.312,0.422l0,-1.626c0.409,-0.188 0.844,-0.331 1.303,-0.431c0.46,-0.1 0.942,-0.152 1.446,-0.158c0.594,0 1.114,0.076 1.56,0.229s0.818,0.362 1.118,0.628s0.524,0.582 0.673,0.945s0.223,0.759 0.223,1.187l0,3.208c0,0.563 0.006,1.046 0.017,1.45c0.012,0.404 0.022,0.765 0.034,1.081l-1.8,0l-0.083,-0.906zm-0.159,-2.724c-0.19,-0.047 -0.409,-0.089 -0.656,-0.127c-0.246,-0.038 -0.496,-0.057 -0.748,-0.057c-0.487,0 -0.873,0.101 -1.156,0.303s-0.424,0.511 -0.424,0.927c0,0.193 0.031,0.362 0.097,0.505c0.063,0.144 0.15,0.262 0.26,0.356s0.237,0.164 0.383,0.211s0.3,0.07 0.463,0.07c0.201,0 0.392,-0.028 0.571,-0.083s0.345,-0.126 0.496,-0.211s0.287,-0.18 0.407,-0.286c0.121,-0.105 0.224,-0.208 0.308,-0.308l0,-1.3l-0.001,0z" id="svg_22" stroke="null"/>
   <path d="m726.617,124.5l0,-12.727l1.993,0l0,12.727l-1.993,0z" id="svg_23" stroke="null"/>
   <path d="m730.964,111.773l1.993,0l0,7.664l0.042,0l3.102,-3.454l2.464,0l-3.573,3.999l3.599,4.518l-2.413,0l-3.187,-3.964l-0.033,0l0,3.964l-1.993,0l0,-12.727l-0.001,0z" id="svg_24" stroke="null"/>
   <path d="m739.767,111.773l2.094,0l0,2.259l-2.094,0l0,-2.259zm0.05,4.21l1.992,0l0,8.517l-1.992,0l0,-8.517z" id="svg_25" stroke="null"/>
   <path d="m745.879,117.169l0.033,0c0.118,-0.176 0.267,-0.349 0.446,-0.519c0.179,-0.17 0.384,-0.319 0.613,-0.448s0.483,-0.233 0.761,-0.312s0.573,-0.119 0.887,-0.119c0.298,0 0.585,0.035 0.862,0.105s0.531,0.18 0.761,0.33s0.433,0.343 0.609,0.58s0.315,0.52 0.416,0.848c0.057,0.182 0.094,0.379 0.113,0.593c0.021,0.214 0.03,0.461 0.03,0.743l0,5.528l-1.993,0l0,-5.203c0,-0.229 -0.008,-0.425 -0.025,-0.589c-0.017,-0.164 -0.047,-0.308 -0.092,-0.431c-0.102,-0.27 -0.254,-0.463 -0.458,-0.58c-0.205,-0.117 -0.453,-0.176 -0.744,-0.176c-0.387,0 -0.759,0.095 -1.114,0.286c-0.356,0.19 -0.671,0.467 -0.946,0.831l0,5.862l-1.992,0l0,-8.517l1.648,0l0.185,1.188z" id="svg_26" stroke="null"/>
   <path d="m758.885,124.719c0,-0.117 0.002,-0.262 0.004,-0.435c0.003,-0.173 0.01,-0.318 0.021,-0.435l-0.017,0c-0.124,0.105 -0.265,0.209 -0.425,0.312s-0.335,0.196 -0.525,0.281s-0.4,0.152 -0.631,0.202c-0.229,0.05 -0.465,0.075 -0.706,0.075c-0.432,0 -0.854,-0.081 -1.265,-0.242c-0.412,-0.161 -0.778,-0.416 -1.098,-0.765s-0.577,-0.795 -0.773,-1.34s-0.294,-1.201 -0.294,-1.969s0.1,-1.44 0.298,-2.017c0.199,-0.577 0.464,-1.059 0.795,-1.446c0.33,-0.387 0.71,-0.678 1.139,-0.875s0.87,-0.294 1.324,-0.294c0.499,0 0.942,0.11 1.329,0.33s0.703,0.5 0.949,0.839l0.034,0l0.084,-0.958l1.749,0l0,8.675c0,0.498 -0.04,0.926 -0.118,1.283s-0.193,0.674 -0.345,0.949c-0.18,0.322 -0.408,0.604 -0.686,0.844s-0.594,0.439 -0.949,0.598c-0.356,0.158 -0.747,0.277 -1.173,0.355c-0.427,0.08 -0.878,0.119 -1.354,0.119c-0.27,0 -0.533,-0.011 -0.791,-0.031s-0.5,-0.05 -0.727,-0.088c-0.228,-0.038 -0.435,-0.082 -0.622,-0.131c-0.188,-0.051 -0.347,-0.102 -0.476,-0.154l0,-1.696c0.37,0.129 0.758,0.227 1.165,0.294c0.406,0.067 0.833,0.102 1.281,0.102c0.892,0 1.581,-0.18 2.068,-0.541c0.488,-0.359 0.731,-0.906 0.731,-1.639l0,-0.202l0.004,0zm-1.782,-1.661c0.202,0 0.393,-0.026 0.572,-0.079c0.179,-0.053 0.344,-0.12 0.495,-0.202s0.287,-0.173 0.408,-0.272c0.12,-0.1 0.223,-0.199 0.307,-0.299l0,-3.806c-0.213,-0.264 -0.477,-0.483 -0.79,-0.659c-0.314,-0.176 -0.647,-0.267 -1.001,-0.272c-0.123,0 -0.253,0.016 -0.391,0.048s-0.276,0.089 -0.416,0.171c-0.141,0.082 -0.273,0.192 -0.399,0.33s-0.236,0.312 -0.332,0.523s-0.172,0.463 -0.231,0.756c-0.059,0.293 -0.088,0.633 -0.088,1.02c0,0.428 0.039,0.81 0.117,1.147c0.079,0.337 0.196,0.624 0.354,0.861s0.352,0.419 0.584,0.545s0.502,0.188 0.811,0.188z" id="svg_27" stroke="null"/>
   <path d="m771.714,113.46c-0.219,-0.059 -0.444,-0.107 -0.677,-0.145s-0.453,-0.057 -0.66,-0.057c-0.225,0 -0.423,0.028 -0.597,0.083s-0.321,0.148 -0.441,0.277c-0.121,0.129 -0.212,0.296 -0.273,0.501s-0.093,0.454 -0.093,0.747l0,1.116l2.262,0l0,1.714l-2.262,0l0,6.803l-1.992,0l0,-6.803l-1.379,0l0,-1.714l1.379,0l0,-1.011c0,-0.598 0.08,-1.112 0.239,-1.542c0.16,-0.431 0.383,-0.785 0.669,-1.063c0.285,-0.278 0.622,-0.483 1.009,-0.615s0.807,-0.198 1.261,-0.198c0.28,0 0.56,0.025 0.837,0.075s0.517,0.11 0.719,0.18l0,1.652l-0.001,0z" id="svg_28" stroke="null"/>
   <path d="m780.029,120.246c0,0.668 -0.096,1.277 -0.286,1.828s-0.464,1.022 -0.819,1.415c-0.356,0.393 -0.786,0.696 -1.291,0.91c-0.504,0.214 -1.067,0.321 -1.689,0.321c-0.639,0 -1.212,-0.107 -1.72,-0.321c-0.507,-0.214 -0.938,-0.517 -1.29,-0.91c-0.354,-0.393 -0.624,-0.864 -0.812,-1.415s-0.281,-1.16 -0.281,-1.828s0.095,-1.277 0.285,-1.828s0.464,-1.022 0.82,-1.415c0.355,-0.393 0.786,-0.696 1.29,-0.91c0.505,-0.214 1.068,-0.321 1.69,-0.321c0.639,0 1.212,0.107 1.719,0.321c0.508,0.214 0.938,0.517 1.291,0.91c0.353,0.393 0.623,0.864 0.811,1.415c0.189,0.55 0.282,1.16 0.282,1.828zm-2.059,0c0,-0.451 -0.051,-0.85 -0.151,-1.195c-0.102,-0.346 -0.241,-0.636 -0.421,-0.87s-0.395,-0.41 -0.647,-0.527c-0.252,-0.117 -0.526,-0.176 -0.823,-0.176c-0.292,0 -0.563,0.059 -0.812,0.176c-0.25,0.117 -0.464,0.293 -0.644,0.527c-0.179,0.234 -0.319,0.524 -0.42,0.87s-0.151,0.744 -0.151,1.195s0.051,0.85 0.151,1.195s0.242,0.634 0.425,0.866c0.182,0.231 0.397,0.407 0.647,0.527c0.249,0.12 0.522,0.18 0.819,0.18s0.568,-0.06 0.815,-0.18c0.246,-0.12 0.459,-0.296 0.639,-0.527s0.319,-0.52 0.421,-0.866c0.101,-0.346 0.152,-0.744 0.152,-1.195z" id="svg_29" stroke="null"/>
   <path d="m789.563,120.246c0,0.668 -0.096,1.277 -0.286,1.828s-0.464,1.022 -0.819,1.415c-0.356,0.393 -0.786,0.696 -1.291,0.91c-0.504,0.214 -1.067,0.321 -1.689,0.321c-0.639,0 -1.212,-0.107 -1.72,-0.321c-0.507,-0.214 -0.938,-0.517 -1.29,-0.91c-0.354,-0.393 -0.624,-0.864 -0.812,-1.415s-0.281,-1.16 -0.281,-1.828s0.095,-1.277 0.285,-1.828s0.464,-1.022 0.82,-1.415c0.355,-0.393 0.786,-0.696 1.29,-0.91c0.505,-0.214 1.068,-0.321 1.69,-0.321c0.639,0 1.212,0.107 1.719,0.321c0.508,0.214 0.938,0.517 1.291,0.91c0.353,0.393 0.623,0.864 0.811,1.415c0.188,0.55 0.282,1.16 0.282,1.828zm-2.06,0c0,-0.451 -0.051,-0.85 -0.151,-1.195c-0.102,-0.346 -0.241,-0.636 -0.421,-0.87s-0.395,-0.41 -0.647,-0.527c-0.252,-0.117 -0.526,-0.176 -0.823,-0.176c-0.292,0 -0.563,0.059 -0.812,0.176c-0.25,0.117 -0.464,0.293 -0.644,0.527c-0.179,0.234 -0.319,0.524 -0.42,0.87s-0.151,0.744 -0.151,1.195s0.051,0.85 0.151,1.195s0.242,0.634 0.425,0.866c0.182,0.231 0.397,0.407 0.647,0.527c0.249,0.12 0.522,0.18 0.819,0.18s0.568,-0.06 0.815,-0.18c0.246,-0.12 0.459,-0.296 0.639,-0.527s0.319,-0.52 0.421,-0.866c0.101,-0.346 0.152,-0.744 0.152,-1.195z" id="svg_30" stroke="null"/>
   <path d="m790.908,120.413c0,-0.744 0.098,-1.408 0.294,-1.991s0.464,-1.072 0.803,-1.468s0.728,-0.691 1.165,-0.888c0.437,-0.196 0.891,-0.294 1.361,-0.294c0.219,0 0.426,0.021 0.622,0.062s0.381,0.097 0.555,0.167s0.337,0.149 0.488,0.237s0.291,0.179 0.42,0.272l0.017,0c-0.005,-0.117 -0.01,-0.283 -0.013,-0.497c-0.002,-0.214 -0.004,-0.447 -0.004,-0.699l0,-3.542l1.993,0l0,10.195c0,0.563 0.005,1.046 0.017,1.45c0.011,0.404 0.022,0.765 0.033,1.081l-1.799,0l-0.084,-0.905l-0.034,0c-0.117,0.146 -0.259,0.29 -0.424,0.431c-0.166,0.141 -0.348,0.262 -0.547,0.365s-0.418,0.183 -0.656,0.242s-0.497,0.088 -0.777,0.088c-0.442,0 -0.867,-0.082 -1.273,-0.246s-0.771,-0.417 -1.093,-0.76s-0.58,-0.791 -0.773,-1.345s-0.291,-1.205 -0.291,-1.955zm3.926,2.645c0.196,0 0.383,-0.026 0.56,-0.079c0.176,-0.053 0.343,-0.123 0.5,-0.211c0.156,-0.088 0.295,-0.185 0.416,-0.29c0.12,-0.105 0.223,-0.208 0.307,-0.308l0,-4.043c-0.235,-0.199 -0.499,-0.365 -0.79,-0.497c-0.292,-0.132 -0.6,-0.198 -0.925,-0.198c-0.207,0 -0.425,0.044 -0.651,0.132c-0.228,0.088 -0.435,0.237 -0.622,0.448c-0.188,0.211 -0.345,0.504 -0.471,0.879c-0.127,0.375 -0.189,0.853 -0.189,1.433c0,0.855 0.158,1.523 0.475,2.004s0.779,0.724 1.39,0.73z" id="svg_31" stroke="null"/>
  </g>
  <g id="svg_32" stroke="null"/>
  <g id="svg_33" stroke="null"/>
  <g id="svg_34" stroke="null"/>
  <g id="svg_35" stroke="null"/>
  <g id="svg_36" stroke="null"/>
  <g id="svg_37" stroke="null"/>
  <g id="svg_38" stroke="null"/>
  <g id="svg_39" stroke="null"/>
  <g id="svg_40" stroke="null"/>
  <g id="svg_41" stroke="null"/>
  <g id="svg_42" stroke="null"/>
  <g id="svg_43" stroke="null"/>
  <g id="svg_44" stroke="null"/>
  <g id="svg_45" stroke="null"/>
  <g id="svg_46" stroke="null"/>
 </g>
</svg>