<svg width="800" height="125" xmlns="http://www.w3.org/2000/svg" style="vector-effect: non-scaling-stroke;" stroke="null">

 <g stroke="null">
  <title stroke="null">background</title>
  <rect stroke="null" fill="none" id="canvas_background" height="127" width="802" y="-1" x="-1"/>
 </g>
 <g stroke="null">
  <title stroke="null">Layer 1</title>
  <g stroke="null" id="svg_1">
   <path stroke="null" id="svg_2" d="m40.006625,93.222401c3.146371,0 6.428987,-0.332336 9.847848,-1.000829c3.420134,-0.667219 6.884835,-1.619662 10.396648,-2.859874l0,13.513733c-2.097156,0.954989 -5.313559,1.859045 -9.644117,2.717262c-4.331831,0.858217 -8.822826,1.287325 -13.472986,1.287325c-4.696,0 -9.153889,-0.632839 -13.371121,-1.894698c-4.218505,-1.263132 -7.89967,-3.300442 -11.044767,-6.113204c-3.146371,-2.811488 -5.643349,-6.458273 -7.489661,-10.939082c-1.846312,-4.479536 -2.769468,-9.91406 -2.769468,-16.302301c0,-6.291468 0.865857,-11.797299 2.598844,-16.516218c1.732987,-4.71892 4.058067,-8.626735 6.976514,-11.725993c2.917173,-3.097985 6.258362,-5.421791 10.019746,-6.97142c3.761384,-1.548356 7.648826,-2.323807 11.661054,-2.323807c4.194312,0 8.058835,0.668492 11.592294,2.001657c3.532186,1.334438 6.588152,3.431594 9.164075,6.291468c2.574651,2.859874 4.582674,6.542312 6.018978,11.046041c1.436304,4.505002 2.154455,9.831295 2.154455,15.980151c-0.045839,2.384926 -0.114599,4.409503 -0.205004,6.077551l-43.430358,0c0.227924,3.193484 0.911696,5.923479 2.051317,8.18744c1.13962,2.263961 2.633223,4.100087 4.479536,5.504557c1.846312,1.407017 4.002041,2.430766 6.463366,3.075065c2.462599,0.643026 5.130201,0.965176 8.002809,0.965176zm-6.497746,-45.90187c-2.051317,0 -3.875982,0.393456 -5.471451,1.180367c-1.595468,0.785638 -2.974473,1.859045 -4.138286,3.216403c-1.16254,1.358631 -2.085696,2.943913 -2.769468,4.754572c-0.683772,1.811933 -1.140894,3.742284 -1.367544,5.791054l26.057196,0c0,-2.04877 -0.262304,-3.979121 -0.785638,-5.791054c-0.524607,-1.810659 -1.300059,-3.395941 -2.32508,-4.754572c-1.026295,-1.357358 -2.303434,-2.430766 -3.831416,-3.216403c-1.526709,-0.788184 -3.315722,-1.180367 -5.368312,-1.180367z" fill="#006837"/>
   <path stroke="null" id="svg_3" d="m74.271634,71.844652c0,-6.052084 0.797098,-11.450956 2.393839,-16.194069c1.595468,-4.743113 3.772844,-8.723507 6.532125,-11.941184c2.758009,-3.216403 5.915839,-5.624249 9.472219,-7.220991c3.556379,-1.596742 7.249004,-2.395113 11.079147,-2.395113c1.777553,0 3.4647,0.168078 5.061442,0.500414c1.595468,0.33361 3.100531,0.786911 4.513915,1.358631c1.412111,0.57172 2.735089,1.216019 3.966388,1.930351s2.369646,1.455403 3.420134,2.216848l0.136245,0c-0.045839,-0.953716 -0.080219,-2.299614 -0.101866,-4.038967c-0.024193,-1.739353 -0.03438,-3.634052 -0.03438,-5.684095l0,-28.816478l16.209348,0l0,82.940167c0,4.576308 0.044566,8.508316 0.136245,11.797299c0.090406,3.288982 0.182085,6.220162 0.273764,8.794813l-14.6368,0l-0.683772,-7.364876l-0.273764,0c-0.957536,1.191826 -2.108616,2.35946 -3.453241,3.5029c-1.345898,1.14344 -2.828041,2.134082 -4.445156,2.966833c-1.618388,0.835297 -3.397215,1.489783 -5.335206,1.966004c-1.937991,0.476221 -4.046607,0.715605 -6.325848,0.715605c-3.602219,0 -7.056733,-0.668492 -10.362268,-2.001657c-3.306809,-1.333165 -6.269822,-3.395941 -8.890312,-6.184509c-2.623037,-2.788568 -4.71892,-6.435353 -6.291468,-10.940355c-1.573822,-4.503729 -2.360733,-9.805828 -2.360733,-15.907572zm31.939929,21.521635c1.595468,0 3.110718,-0.213918 4.547021,-0.643026c1.437577,-0.429108 2.792388,-1.000829 4.069527,-1.716434c1.275865,-0.715605 2.405299,-1.501243 3.385755,-2.35946c0.980455,-0.858217 1.811933,-1.690967 2.495705,-2.502071l0,-32.889825c-1.915071,-1.619662 -4.05934,-2.968106 -6.428987,-4.038967c-2.37092,-1.073408 -4.879358,-1.609475 -7.522768,-1.609475c-1.687147,0 -3.454514,0.357803 -5.300826,1.072134s-3.53346,1.930351 -5.061442,3.646785c-1.527983,1.716434 -2.803848,4.100087 -3.830143,7.149685c-1.026295,3.050872 -1.538169,6.935768 -1.538169,11.654687c0,6.959961 1.287325,12.394485 3.863249,16.302301c2.577197,3.907815 6.351314,5.886553 11.321078,5.933666z" fill="#006837"/>
   <path stroke="null" id="svg_4" d="m155.795871,1.56l17.030639,0l0,18.375264l-17.030639,0l0,-18.375264zm0.411282,34.248456l16.209348,0l0,69.283823l-16.209348,0l0,-69.283823z" fill="#006837"/>
   <path stroke="null" id="svg_5" d="m254.281988,69.270001c0,6.245629 -0.86713,11.774379 -2.598844,16.587524c-1.732987,4.815692 -4.002041,8.77062 -6.805889,11.868605c-2.803848,3.099258 -5.962952,5.398872 -9.472219,6.898841c-3.511813,1.502516 -7.044,2.252501 -10.600379,2.252501c-2.508438,0 -4.764759,-0.320876 -6.770236,-0.965176c-2.00675,-0.643026 -3.761384,-1.440124 -5.266447,-2.395113c-1.505063,-0.953716 -2.770742,-1.954544 -3.795763,-3.002486c-1.026295,-1.047941 -1.834852,-1.977464 -2.426946,-2.788568l-0.273764,0l-1.572549,7.364876l-13.4055,0c0.090406,-2.04877 0.171898,-4.587768 0.239384,-7.614446c0.068759,-3.025405 0.101866,-5.898013 0.101866,-8.615275l0,-87.301284l16.209348,0l0,28.813931c0,2.050043 -0.012733,3.944742 -0.03438,5.684095c-0.024193,1.740627 -0.057299,3.086525 -0.101866,4.038967l0.136245,0c1.047941,-0.761445 2.188835,-1.501243 3.420134,-2.216848s2.574651,-1.358631 4.035147,-1.930351c1.459223,-0.57172 3.031772,-1.025022 4.71892,-1.358631c1.685874,-0.332336 3.4647,-0.500414 5.333932,-0.500414c3.692625,0 7.284657,0.704145 10.772277,2.109889c3.48762,1.405744 6.588152,3.551286 9.301594,6.435353c2.712169,2.884067 4.866624,6.577965 6.463366,11.081694c1.594195,4.506275 2.392566,9.689956 2.392566,15.552316zm-16.756876,0.858217c0,-4.336924 -0.502961,-8.066475 -1.505063,-11.189926c-1.003375,-3.122178 -2.31362,-5.505831 -3.932008,-7.149685c-1.618388,-1.645128 -3.306809,-2.752915 -5.061442,-3.324635c-1.755907,-0.57172 -3.500353,-0.858217 -5.232067,-0.858217c-2.37092,0 -4.787679,0.500414 -7.249004,1.501243s-4.696,2.335267 -6.70275,4.004588l0,33.176322c0.637933,0.762718 1.42357,1.562362 2.35946,2.395113c0.933343,0.834024 1.983831,1.596742 3.146371,2.288154c1.16254,0.691412 2.428219,1.263132 3.795763,1.716434c1.367544,0.453301 2.826768,0.678679 4.37767,0.678679c2.64341,0 4.959577,-0.558987 6.942134,-1.679508c1.983831,-1.119247 3.646785,-2.705802 4.992683,-4.754572c1.344625,-2.04877 2.35946,-4.492269 3.043232,-7.329223c0.682499,-2.835681 1.025022,-5.994785 1.025022,-9.474765z" fill="#006837"/>
   <path stroke="null" id="svg_6" d="m269.327523,105.092279l0,-103.532279l16.209348,0l0,103.532279l-16.209348,0z" fill="#006837"/>
   <path stroke="null" id="svg_7" d="m338.132578,93.222401c3.146371,0 6.428987,-0.332336 9.847848,-1.000829c3.420134,-0.667219 6.884835,-1.619662 10.396648,-2.859874l0,13.513733c-2.097156,0.954989 -5.313559,1.859045 -9.644117,2.717262c-4.331831,0.858217 -8.822826,1.287325 -13.472986,1.287325c-4.696,0 -9.153889,-0.632839 -13.371121,-1.894698c-4.218505,-1.263132 -7.89967,-3.300442 -11.046041,-6.113204c-3.146371,-2.811488 -5.642076,-6.458273 -7.488388,-10.939082c-1.846312,-4.479536 -2.770742,-9.91406 -2.770742,-16.302301c0,-6.291468 0.865857,-11.797299 2.598844,-16.516218c1.731714,-4.71892 4.058067,-8.626735 6.976514,-11.725993c2.918447,-3.097985 6.258362,-5.421791 10.019746,-6.97142c3.761384,-1.548356 7.648826,-2.323807 11.661054,-2.323807c4.194312,0 8.058835,0.668492 11.592294,2.001657c3.532186,1.334438 6.588152,3.431594 9.164075,6.291468c2.574651,2.859874 4.582674,6.542312 6.018978,11.046041c1.436304,4.505002 2.154455,9.831295 2.154455,15.980151c-0.045839,2.384926 -0.114599,4.409503 -0.205004,6.077551l-43.429085,0c0.227924,3.193484 0.911696,5.923479 2.051317,8.18744c1.13962,2.263961 2.63195,4.100087 4.479536,5.504557c1.846312,1.407017 4.002041,2.430766 6.463366,3.075065c2.462599,0.643026 5.130201,0.965176 8.002809,0.965176zm-6.497746,-45.90187c-2.051317,0 -3.875982,0.393456 -5.471451,1.180367c-1.596742,0.785638 -2.975746,1.859045 -4.138286,3.216403c-1.16254,1.358631 -2.085696,2.943913 -2.769468,4.754572c-0.683772,1.811933 -1.140894,3.742284 -1.367544,5.791054l26.057196,0c0,-2.04877 -0.262304,-3.979121 -0.785638,-5.791054c-0.524607,-1.810659 -1.300059,-3.395941 -2.32508,-4.754572c-1.026295,-1.357358 -2.303434,-2.430766 -3.831416,-3.216403c-1.526709,-0.788184 -3.316996,-1.180367 -5.368312,-1.180367z" fill="#006837"/>
   <path stroke="null" id="svg_8" d="m401.258632,71.844652c0,-6.052084 0.795824,-11.450956 2.392566,-16.194069c1.596742,-4.743113 3.772844,-8.723507 6.533399,-11.941184c2.758009,-3.216403 5.914566,-5.624249 9.472219,-7.220991c3.556379,-1.596742 7.249004,-2.395113 11.079147,-2.395113c1.777553,0 3.4647,0.168078 5.061442,0.500414c1.594195,0.33361 3.099258,0.786911 4.513915,1.358631c1.412111,0.57172 2.735089,1.216019 3.966388,1.930351s2.369646,1.455403 3.420134,2.216848l0.136245,0c-0.047113,-0.953716 -0.080219,-2.299614 -0.101866,-4.038967c-0.025466,-1.739353 -0.03438,-3.634052 -0.03438,-5.684095l0,-28.816478l16.209348,0l0,82.940167c0,4.576308 0.044566,8.508316 0.136245,11.797299c0.089132,3.288982 0.182085,6.220162 0.273764,8.794813l-14.638073,0l-0.683772,-7.364876l-0.273764,0c-0.957536,1.191826 -2.108616,2.35946 -3.451967,3.5029c-1.345898,1.14344 -2.828041,2.134082 -4.446429,2.966833c-1.618388,0.835297 -3.397215,1.489783 -5.333932,1.966004c-1.939265,0.476221 -4.046607,0.715605 -6.327121,0.715605c-3.600946,0 -7.05546,-0.668492 -10.360995,-2.001657c-3.308082,-1.333165 -6.269822,-3.395941 -8.890312,-6.184509c-2.62431,-2.788568 -4.720193,-6.435353 -6.291468,-10.940355c-1.575095,-4.503729 -2.360733,-9.805828 -2.360733,-15.907572zm31.939929,21.521635c1.594195,0 3.110718,-0.213918 4.545748,-0.643026c1.437577,-0.429108 2.792388,-1.000829 4.0708,-1.716434c1.275865,-0.715605 2.405299,-1.501243 3.384481,-2.35946s1.813206,-1.690967 2.496978,-2.502071l0,-32.889825c-1.915071,-1.619662 -4.05934,-2.968106 -6.428987,-4.038967c-2.372193,-1.073408 -4.879358,-1.609475 -7.522768,-1.609475c-1.688421,0 -3.454514,0.357803 -5.3021,1.072134c-1.845039,0.715605 -3.53346,1.930351 -5.061442,3.646785s-2.802575,4.100087 -3.830143,7.149685c-1.025022,3.050872 -1.536896,6.935768 -1.536896,11.654687c0,6.959961 1.286052,12.394485 3.861976,16.302301c2.578471,3.907815 6.351314,5.886553 11.322351,5.933666z" fill="#006837"/>
   <path stroke="null" id="svg_9" d="m482.784142,1.56l17.030639,0l0,18.375264l-17.030639,0l0,-18.375264zm0.410009,34.248456l16.209348,0l0,69.283823l-16.209348,0l0,-69.283823z" fill="#006837"/>
   <path stroke="null" id="svg_10" d="m556.579333,97.727403l-0.273764,0c-0.91297,1.000829 -2.00675,2.027124 -3.282616,3.075065c-1.275865,1.049215 -2.735089,2.038583 -4.37767,2.966833c-1.641308,0.929523 -3.4647,1.680781 -5.471451,2.252501s-4.170119,0.858217 -6.496473,0.858217c-3.146371,0 -6.087737,-0.513147 -8.824099,-1.538169c-2.735089,-1.023748 -5.085635,-2.502071 -7.045273,-4.432423c-1.959638,-1.930351 -3.49908,-4.265618 -4.615781,-7.007073c-1.116701,-2.740182 -1.675688,-5.802514 -1.675688,-9.186995c0,-3.718091 0.651939,-7.054186 1.949451,-10.009559c1.300059,-2.955373 3.110718,-5.457444 5.437071,-7.507488c2.32508,-2.04877 5.108555,-3.611132 8.346605,-4.683267c3.235503,-1.073408 6.814802,-1.609475 10.736624,-1.609475c2.872607,0 5.516017,0.190998 7.932776,0.57172c2.416759,0.381996 4.536835,0.834024 6.361501,1.358631l0,-2.788568c0,-1.619662 -0.263577,-3.182024 -0.785638,-4.683267c-0.524607,-1.502516 -1.367544,-2.835681 -2.531358,-4.004588c-1.161267,-1.167633 -2.679063,-2.097156 -4.548295,-2.788568c-1.870505,-0.690139 -4.148473,-1.036482 -6.838995,-1.036482c-3.282616,0 -6.565232,0.381996 -9.847848,1.14344c-3.282616,0.762718 -6.838995,1.907432 -10.669138,3.431594l0,-13.225962c3.327182,-1.525436 6.861915,-2.691796 10.601652,-3.5029c3.738464,-0.809831 7.660286,-1.238939 11.762919,-1.287325c4.832245,0 9.06221,0.620106 12.686075,1.859045c3.626412,1.240213 6.658184,2.943913 9.097863,5.112375c2.437132,2.169735 4.263071,4.730379 5.471451,7.685752c1.205833,2.956646 1.810659,6.174323 1.810659,9.65303l0,26.097942c0,4.576308 0.047113,8.508316 0.136245,11.797299c0.091679,3.288982 0.184631,6.220162 0.27631,8.794813l-14.638073,0l-0.685046,-7.366149zm-1.298785,-22.164661c-1.552176,-0.380722 -3.329729,-0.725792 -5.333932,-1.036482c-2.00675,-0.309416 -4.036421,-0.464761 -6.087737,-0.464761c-3.966388,0 -7.102572,0.822564 -9.403459,2.467692c-2.303434,1.643855 -3.454514,4.158659 -3.454514,7.543141c0,1.572549 0.26103,2.943913 0.785638,4.111546c0.524607,1.168907 1.231299,2.134082 2.121349,2.895527c0.887503,0.762718 1.925258,1.334438 3.110718,1.716434c1.186733,0.381996 2.439679,0.57172 3.762657,0.57172c1.641308,0 3.190937,-0.225377 4.65016,-0.678679c1.45795,-0.452028 2.802575,-1.025022 4.033874,-1.716434c1.231299,-0.690139 2.337813,-1.46559 3.316996,-2.323807s1.813206,-1.690967 2.496978,-2.502071l0,-10.583826l0.001273,0z" fill="#006837"/>
   <path stroke="null" id="svg_11" d="m590.366848,105.092279l0,-103.532279l16.209348,0l0,103.532279l-16.209348,0z" fill="#006837"/>
   <path stroke="null" id="svg_12" d="m659.17063,93.222401c3.146371,0 6.428987,-0.332336 9.847848,-1.000829c3.420134,-0.667219 6.883561,-1.619662 10.395375,-2.859874l0,13.513733c-2.095883,0.954989 -5.312286,1.859045 -9.644117,2.717262s-8.821553,1.287325 -13.471713,1.287325c-4.697273,0 -9.153889,-0.632839 -13.372394,-1.894698c-4.218505,-1.263132 -7.898397,-3.300442 -11.044767,-6.113204c-3.146371,-2.811488 -5.643349,-6.458273 -7.488388,-10.939082c-1.847586,-4.479536 -2.770742,-9.91406 -2.770742,-16.302301c0,-6.291468 0.865857,-11.797299 2.598844,-16.516218c1.73044,-4.71892 4.056794,-8.626735 6.976514,-11.725993c2.917173,-3.097985 6.257089,-5.421791 10.019746,-6.97142c3.76011,-1.548356 7.647553,-2.323807 11.661054,-2.323807c4.193039,0 8.057561,0.668492 11.592294,2.001657c3.53346,1.334438 6.588152,3.431594 9.164075,6.291468s4.583948,6.542312 6.018978,11.046041c1.437577,4.505002 2.155729,9.831295 2.155729,15.980151c-0.047113,2.384926 -0.114599,4.409503 -0.206278,6.077551l-43.429085,0c0.229197,3.193484 0.91297,5.923479 2.051317,8.18744c1.13962,2.263961 2.633223,4.100087 4.479536,5.504557c1.847586,1.407017 4.002041,2.430766 6.463366,3.075065c2.461325,0.643026 5.130201,0.965176 8.002809,0.965176zm-6.497746,-45.90187c-2.051317,0 -3.874709,0.393456 -5.471451,1.180367c-1.596742,0.785638 -2.974473,1.859045 -4.138286,3.216403c-1.161267,1.358631 -2.084423,2.943913 -2.768195,4.754572c-0.683772,1.811933 -1.140894,3.742284 -1.367544,5.791054l26.055923,0c0,-2.04877 -0.26103,-3.979121 -0.785638,-5.791054c-0.524607,-1.810659 -1.298785,-3.395941 -2.32508,-4.754572c-1.025022,-1.357358 -2.303434,-2.430766 -3.830143,-3.216403c-1.527983,-0.788184 -3.318269,-1.180367 -5.369585,-1.180367z" fill="#006837"/>
   <path stroke="null" id="svg_13" d="m744.592496,103.589763c-2.051317,0.90533 -4.561028,1.680781 -7.522768,2.323807c-2.964286,0.644299 -6.087737,0.965176 -9.370353,0.965176c-4.787679,0 -9.257028,-0.715605 -13.404227,-2.145542s-7.773611,-3.598399 -10.875416,-6.506659c-3.101805,-2.906987 -5.538937,-6.589425 -7.31649,-11.047314c-1.777553,-4.456616 -2.668876,-9.663216 -2.668876,-15.622348c0,-6.673464 1.027568,-12.393212 3.078885,-17.160518c2.051317,-4.766032 4.70746,-8.639468 7.968429,-11.619034c3.258423,-2.978293 6.928128,-5.172221 11.009114,-6.577965c4.080987,-1.405744 8.104674,-2.109889 12.071062,-2.109889c2.964286,0 5.813974,0.275037 8.550336,0.822564c2.735089,0.5488 5.220607,1.298785 7.454008,2.252501l0,13.798956c-2.00675,-0.904056 -4.135739,-1.632395 -6.393334,-2.179922c-2.255048,-0.547527 -4.685813,-0.822564 -7.284657,-0.822564s-5.083089,0.417649 -7.454008,1.251672c-2.372193,0.834024 -4.469349,2.157002 -6.291468,3.967661c-1.825939,1.811933 -3.272429,4.207045 -4.344564,7.186611c-1.072134,2.979566 -1.606928,6.566505 -1.606928,10.760817c0,3.050872 0.410009,5.923479 1.231299,8.615275c0.821291,2.694343 2.016937,4.993956 3.590759,6.900115c1.571275,1.907432 3.579299,3.444327 6.018978,4.611961c2.437132,1.167633 5.322473,1.750813 8.652201,1.750813c2.96174,0 5.652262,-0.309416 8.070295,-0.929523c2.414212,-0.618833 4.696,-1.381551 6.838995,-2.288154l0,13.801503l-0.001273,0z" fill="#006837"/>
   <path stroke="null" id="svg_14" d="m799.102001,105.020973c-1.823393,0.57172 -3.999494,1.025022 -6.530852,1.358631c-2.531358,0.332336 -4.889544,0.500414 -7.078379,0.500414c-5.56313,0 -10.111425,-0.942256 -13.646158,-2.824221c-3.53346,-1.881965 -6.030438,-4.586494 -7.488388,-8.114861c-1.049215,-2.526265 -1.573822,-5.957859 -1.573822,-10.296056l0,-35.893584l-12.377932,0l0,-13.942841l12.377932,0l0,-19.376092l16.209348,0l0,19.376092l19.149442,0l0,13.942841l-19.149442,0l0,33.676736c0,2.67015 0.388362,4.647614 1.163813,5.934939c1.367544,2.192655 4.07844,3.288982 8.137781,3.288982c1.870505,0 3.728277,-0.154072 5.575863,-0.464761c1.845039,-0.309416 3.588212,-0.702872 5.22952,-1.179093l0,14.012874l0.001273,0z" fill="#006837"/>
  </g>
  <g stroke="null" id="svg_15">
   <path stroke="null" id="svg_16" d="m672.182,113.294c-0.157,0.85 -0.342,1.673 -0.555,2.47l-0.984,3.735l-1.958,0l-2.851,-8.517l2.102,0l1.051,3.568c0.241,0.826 0.454,1.626 0.64,2.399l0.033,0c0.157,-0.75 0.345,-1.55 0.563,-2.399l0.934,-3.568l2.102,0l0.916,3.568c0.196,0.756 0.384,1.556 0.563,2.399l0.033,0c0.19,-0.791 0.404,-1.591 0.64,-2.399l1.051,-3.568l2.102,0l-2.85,8.517l-1.959,0l-0.984,-3.735c-0.224,-0.838 -0.409,-1.661 -0.555,-2.47l-0.034,0z"/>
   <path stroke="null" id="svg_17" d="m683.935,118.041c0.387,0 0.79,-0.041 1.211,-0.123c0.42,-0.082 0.846,-0.199 1.277,-0.352l0,1.661c-0.258,0.117 -0.652,0.229 -1.186,0.334c-0.532,0.105 -1.084,0.158 -1.656,0.158c-0.577,0 -1.125,-0.078 -1.644,-0.233s-0.971,-0.406 -1.357,-0.751s-0.693,-0.794 -0.921,-1.345c-0.227,-0.551 -0.34,-1.219 -0.34,-2.004c0,-0.773 0.106,-1.45 0.319,-2.03s0.499,-1.061 0.857,-1.441s0.77,-0.667 1.231,-0.857c0.463,-0.19 0.94,-0.286 1.434,-0.286c0.516,0 0.99,0.082 1.425,0.246s0.811,0.422 1.127,0.773s0.563,0.804 0.739,1.358c0.177,0.554 0.266,1.208 0.266,1.964c-0.006,0.293 -0.015,0.542 -0.025,0.747l-5.339,0c0.028,0.393 0.112,0.728 0.252,1.006c0.141,0.278 0.324,0.504 0.551,0.677c0.228,0.173 0.492,0.299 0.795,0.378s0.63,0.12 0.984,0.12zm-0.799,-5.643c-0.252,0 -0.477,0.048 -0.673,0.145s-0.365,0.229 -0.508,0.396c-0.144,0.167 -0.257,0.362 -0.341,0.584s-0.141,0.46 -0.168,0.712l3.203,0c0,-0.252 -0.032,-0.489 -0.097,-0.712s-0.16,-0.417 -0.286,-0.584s-0.283,-0.299 -0.471,-0.396s-0.407,-0.145 -0.659,-0.145z"/>
   <path stroke="null" id="svg_18" d="m689.266,107.74l2.135,0l-1.631,4.843l-1.79,0l1.286,-4.843z"/>
   <path stroke="null" id="svg_19" d="m697.588,112.635l-0.168,0c-0.611,0 -1.147,0.095 -1.61,0.286c-0.462,0.19 -0.819,0.482 -1.072,0.875l0,5.704l-1.992,0l0,-8.517l1.648,0l0.185,1.187l0.033,0c0.235,-0.434 0.56,-0.775 0.972,-1.024s0.906,-0.374 1.483,-0.374c0.202,0 0.376,0.012 0.521,0.035l0,1.828z"/>
   <path stroke="null" id="svg_20" d="m702.96,118.041c0.387,0 0.79,-0.041 1.211,-0.123c0.42,-0.082 0.846,-0.199 1.277,-0.352l0,1.661c-0.258,0.117 -0.652,0.229 -1.186,0.334c-0.532,0.105 -1.084,0.158 -1.656,0.158c-0.577,0 -1.125,-0.078 -1.644,-0.233s-0.971,-0.406 -1.357,-0.751s-0.693,-0.794 -0.921,-1.345c-0.227,-0.551 -0.34,-1.219 -0.34,-2.004c0,-0.773 0.106,-1.45 0.319,-2.03s0.499,-1.061 0.857,-1.441s0.77,-0.667 1.231,-0.857c0.463,-0.19 0.94,-0.286 1.434,-0.286c0.516,0 0.99,0.082 1.425,0.246s0.811,0.422 1.127,0.773s0.563,0.804 0.739,1.358c0.177,0.554 0.266,1.208 0.266,1.964c-0.006,0.293 -0.015,0.542 -0.025,0.747l-5.339,0c0.028,0.393 0.112,0.728 0.252,1.006c0.141,0.278 0.324,0.504 0.551,0.677c0.228,0.173 0.492,0.299 0.795,0.378s0.63,0.12 0.984,0.12zm-0.799,-5.643c-0.252,0 -0.477,0.048 -0.673,0.145s-0.365,0.229 -0.508,0.396c-0.144,0.167 -0.257,0.362 -0.341,0.584s-0.141,0.46 -0.168,0.712l3.203,0c0,-0.252 -0.032,-0.489 -0.097,-0.712s-0.16,-0.417 -0.286,-0.584s-0.283,-0.299 -0.471,-0.396s-0.407,-0.145 -0.659,-0.145z"/>
   <path stroke="null" id="svg_21" d="m716.118,119.491c-0.225,0.07 -0.492,0.126 -0.803,0.167c-0.312,0.041 -0.602,0.062 -0.871,0.062c-0.684,0 -1.242,-0.116 -1.677,-0.347s-0.741,-0.564 -0.921,-0.998c-0.129,-0.311 -0.193,-0.732 -0.193,-1.266l0,-4.412l-1.521,0l0,-1.714l1.521,0l0,-2.382l1.993,0l0,2.382l2.354,0l0,1.714l-2.354,0l0,4.14c0,0.328 0.047,0.571 0.143,0.729c0.168,0.27 0.502,0.404 1,0.404c0.23,0 0.459,-0.019 0.686,-0.057c0.228,-0.038 0.441,-0.086 0.644,-0.145l0,1.723l-0.001,0z"/>
   <path stroke="null" id="svg_22" d="m722.465,118.594l-0.033,0c-0.112,0.123 -0.247,0.249 -0.403,0.378c-0.157,0.129 -0.337,0.25 -0.538,0.365c-0.202,0.114 -0.427,0.207 -0.673,0.277c-0.247,0.07 -0.513,0.105 -0.799,0.105c-0.387,0 -0.748,-0.063 -1.084,-0.189c-0.337,-0.126 -0.626,-0.308 -0.866,-0.545c-0.241,-0.237 -0.431,-0.524 -0.567,-0.861c-0.138,-0.337 -0.206,-0.713 -0.206,-1.129c0,-0.457 0.08,-0.867 0.239,-1.23c0.16,-0.363 0.383,-0.671 0.669,-0.923c0.285,-0.252 0.627,-0.444 1.025,-0.576c0.397,-0.132 0.838,-0.198 1.319,-0.198c0.354,0 0.679,0.023 0.976,0.07s0.558,0.103 0.782,0.167l0,-0.343c0,-0.199 -0.032,-0.391 -0.097,-0.576s-0.168,-0.349 -0.312,-0.492c-0.143,-0.144 -0.329,-0.258 -0.559,-0.343c-0.23,-0.085 -0.511,-0.127 -0.841,-0.127c-0.403,0 -0.808,0.047 -1.211,0.141s-0.841,0.234 -1.312,0.422l0,-1.626c0.409,-0.188 0.844,-0.331 1.303,-0.431c0.46,-0.1 0.942,-0.152 1.446,-0.158c0.594,0 1.114,0.076 1.56,0.229s0.818,0.362 1.118,0.628s0.524,0.582 0.673,0.945s0.223,0.759 0.223,1.187l0,3.208c0,0.563 0.006,1.046 0.017,1.45c0.012,0.404 0.022,0.765 0.034,1.081l-1.8,0l-0.083,-0.906zm-0.159,-2.724c-0.19,-0.047 -0.409,-0.089 -0.656,-0.127c-0.246,-0.038 -0.496,-0.057 -0.748,-0.057c-0.487,0 -0.873,0.101 -1.156,0.303s-0.424,0.511 -0.424,0.927c0,0.193 0.031,0.362 0.097,0.505c0.063,0.144 0.15,0.262 0.26,0.356s0.237,0.164 0.383,0.211s0.3,0.07 0.463,0.07c0.201,0 0.392,-0.028 0.571,-0.083s0.345,-0.126 0.496,-0.211s0.287,-0.18 0.407,-0.286c0.121,-0.105 0.224,-0.208 0.308,-0.308l0,-1.3l-0.001,0z"/>
   <path stroke="null" id="svg_23" d="m726.617,119.5l0,-12.727l1.993,0l0,12.727l-1.993,0z"/>
   <path stroke="null" id="svg_24" d="m730.964,106.773l1.993,0l0,7.664l0.042,0l3.102,-3.454l2.464,0l-3.573,3.999l3.599,4.518l-2.413,0l-3.187,-3.964l-0.033,0l0,3.964l-1.993,0l0,-12.727l-0.001,0z"/>
   <path stroke="null" id="svg_25" d="m739.767,106.773l2.094,0l0,2.259l-2.094,0l0,-2.259zm0.05,4.21l1.992,0l0,8.517l-1.992,0l0,-8.517z"/>
   <path stroke="null" id="svg_26" d="m745.879,112.169l0.033,0c0.118,-0.176 0.267,-0.349 0.446,-0.519c0.179,-0.17 0.384,-0.319 0.613,-0.448s0.483,-0.233 0.761,-0.312s0.573,-0.119 0.887,-0.119c0.298,0 0.585,0.035 0.862,0.105s0.531,0.18 0.761,0.33s0.433,0.343 0.609,0.58s0.315,0.52 0.416,0.848c0.057,0.182 0.094,0.379 0.113,0.593c0.021,0.214 0.03,0.461 0.03,0.743l0,5.528l-1.993,0l0,-5.203c0,-0.229 -0.008,-0.425 -0.025,-0.589c-0.017,-0.164 -0.047,-0.308 -0.092,-0.431c-0.102,-0.27 -0.254,-0.463 -0.458,-0.58c-0.205,-0.117 -0.453,-0.176 -0.744,-0.176c-0.387,0 -0.759,0.095 -1.114,0.286c-0.356,0.19 -0.671,0.467 -0.946,0.831l0,5.862l-1.992,0l0,-8.517l1.648,0l0.185,1.188z"/>
   <path stroke="null" id="svg_27" d="m758.885,119.719c0,-0.117 0.002,-0.262 0.004,-0.435c0.003,-0.173 0.01,-0.318 0.021,-0.435l-0.017,0c-0.124,0.105 -0.265,0.209 -0.425,0.312s-0.335,0.196 -0.525,0.281s-0.4,0.152 -0.631,0.202c-0.229,0.05 -0.465,0.075 -0.706,0.075c-0.432,0 -0.854,-0.081 -1.265,-0.242c-0.412,-0.161 -0.778,-0.416 -1.098,-0.765s-0.577,-0.795 -0.773,-1.34s-0.294,-1.201 -0.294,-1.969s0.1,-1.44 0.298,-2.017c0.199,-0.577 0.464,-1.059 0.795,-1.446c0.33,-0.387 0.71,-0.678 1.139,-0.875s0.87,-0.294 1.324,-0.294c0.499,0 0.942,0.11 1.329,0.33s0.703,0.5 0.949,0.839l0.034,0l0.084,-0.958l1.749,0l0,8.675c0,0.498 -0.04,0.926 -0.118,1.283s-0.193,0.674 -0.345,0.949c-0.18,0.322 -0.408,0.604 -0.686,0.844s-0.594,0.439 -0.949,0.598c-0.356,0.158 -0.747,0.277 -1.173,0.355c-0.427,0.08 -0.878,0.119 -1.354,0.119c-0.27,0 -0.533,-0.011 -0.791,-0.031s-0.5,-0.05 -0.727,-0.088c-0.228,-0.038 -0.435,-0.082 -0.622,-0.131c-0.188,-0.051 -0.347,-0.102 -0.476,-0.154l0,-1.696c0.37,0.129 0.758,0.227 1.165,0.294c0.406,0.067 0.833,0.102 1.281,0.102c0.892,0 1.581,-0.18 2.068,-0.541c0.488,-0.359 0.731,-0.906 0.731,-1.639l0,-0.202l0.004,0zm-1.782,-1.661c0.202,0 0.393,-0.026 0.572,-0.079c0.179,-0.053 0.344,-0.12 0.495,-0.202s0.287,-0.173 0.408,-0.272c0.12,-0.1 0.223,-0.199 0.307,-0.299l0,-3.806c-0.213,-0.264 -0.477,-0.483 -0.79,-0.659c-0.314,-0.176 -0.647,-0.267 -1.001,-0.272c-0.123,0 -0.253,0.016 -0.391,0.048s-0.276,0.089 -0.416,0.171c-0.141,0.082 -0.273,0.192 -0.399,0.33s-0.236,0.312 -0.332,0.523s-0.172,0.463 -0.231,0.756c-0.059,0.293 -0.088,0.633 -0.088,1.02c0,0.428 0.039,0.81 0.117,1.147c0.079,0.337 0.196,0.624 0.354,0.861s0.352,0.419 0.584,0.545s0.502,0.188 0.811,0.188z"/>
   <path stroke="null" id="svg_28" d="m771.714,108.46c-0.219,-0.059 -0.444,-0.107 -0.677,-0.145s-0.453,-0.057 -0.66,-0.057c-0.225,0 -0.423,0.028 -0.597,0.083s-0.321,0.148 -0.441,0.277c-0.121,0.129 -0.212,0.296 -0.273,0.501s-0.093,0.454 -0.093,0.747l0,1.116l2.262,0l0,1.714l-2.262,0l0,6.803l-1.992,0l0,-6.803l-1.379,0l0,-1.714l1.379,0l0,-1.011c0,-0.598 0.08,-1.112 0.239,-1.542c0.16,-0.431 0.383,-0.785 0.669,-1.063c0.285,-0.278 0.622,-0.483 1.009,-0.615s0.807,-0.198 1.261,-0.198c0.28,0 0.56,0.025 0.837,0.075s0.517,0.11 0.719,0.18l0,1.652l-0.001,0z"/>
   <path stroke="null" id="svg_29" d="m780.029,115.246c0,0.668 -0.096,1.277 -0.286,1.828s-0.464,1.022 -0.819,1.415c-0.356,0.393 -0.786,0.696 -1.291,0.91c-0.504,0.214 -1.067,0.321 -1.689,0.321c-0.639,0 -1.212,-0.107 -1.72,-0.321c-0.507,-0.214 -0.938,-0.517 -1.29,-0.91c-0.354,-0.393 -0.624,-0.864 -0.812,-1.415s-0.281,-1.16 -0.281,-1.828s0.095,-1.277 0.285,-1.828s0.464,-1.022 0.82,-1.415c0.355,-0.393 0.786,-0.696 1.29,-0.91c0.505,-0.214 1.068,-0.321 1.69,-0.321c0.639,0 1.212,0.107 1.719,0.321c0.508,0.214 0.938,0.517 1.291,0.91c0.353,0.393 0.623,0.864 0.811,1.415c0.189,0.55 0.282,1.16 0.282,1.828zm-2.059,0c0,-0.451 -0.051,-0.85 -0.151,-1.195c-0.102,-0.346 -0.241,-0.636 -0.421,-0.87s-0.395,-0.41 -0.647,-0.527c-0.252,-0.117 -0.526,-0.176 -0.823,-0.176c-0.292,0 -0.563,0.059 -0.812,0.176c-0.25,0.117 -0.464,0.293 -0.644,0.527c-0.179,0.234 -0.319,0.524 -0.42,0.87s-0.151,0.744 -0.151,1.195s0.051,0.85 0.151,1.195s0.242,0.634 0.425,0.866c0.182,0.231 0.397,0.407 0.647,0.527c0.249,0.12 0.522,0.18 0.819,0.18s0.568,-0.06 0.815,-0.18c0.246,-0.12 0.459,-0.296 0.639,-0.527s0.319,-0.52 0.421,-0.866c0.101,-0.346 0.152,-0.744 0.152,-1.195z"/>
   <path stroke="null" id="svg_30" d="m789.563,115.246c0,0.668 -0.096,1.277 -0.286,1.828s-0.464,1.022 -0.819,1.415c-0.356,0.393 -0.786,0.696 -1.291,0.91c-0.504,0.214 -1.067,0.321 -1.689,0.321c-0.639,0 -1.212,-0.107 -1.72,-0.321c-0.507,-0.214 -0.938,-0.517 -1.29,-0.91c-0.354,-0.393 -0.624,-0.864 -0.812,-1.415s-0.281,-1.16 -0.281,-1.828s0.095,-1.277 0.285,-1.828s0.464,-1.022 0.82,-1.415c0.355,-0.393 0.786,-0.696 1.29,-0.91c0.505,-0.214 1.068,-0.321 1.69,-0.321c0.639,0 1.212,0.107 1.719,0.321c0.508,0.214 0.938,0.517 1.291,0.91c0.353,0.393 0.623,0.864 0.811,1.415c0.188,0.55 0.282,1.16 0.282,1.828zm-2.06,0c0,-0.451 -0.051,-0.85 -0.151,-1.195c-0.102,-0.346 -0.241,-0.636 -0.421,-0.87s-0.395,-0.41 -0.647,-0.527c-0.252,-0.117 -0.526,-0.176 -0.823,-0.176c-0.292,0 -0.563,0.059 -0.812,0.176c-0.25,0.117 -0.464,0.293 -0.644,0.527c-0.179,0.234 -0.319,0.524 -0.42,0.87s-0.151,0.744 -0.151,1.195s0.051,0.85 0.151,1.195s0.242,0.634 0.425,0.866c0.182,0.231 0.397,0.407 0.647,0.527c0.249,0.12 0.522,0.18 0.819,0.18s0.568,-0.06 0.815,-0.18c0.246,-0.12 0.459,-0.296 0.639,-0.527s0.319,-0.52 0.421,-0.866c0.101,-0.346 0.152,-0.744 0.152,-1.195z"/>
   <path stroke="null" id="svg_31" d="m790.908,115.413c0,-0.744 0.098,-1.408 0.294,-1.991s0.464,-1.072 0.803,-1.468s0.728,-0.691 1.165,-0.888c0.437,-0.196 0.891,-0.294 1.361,-0.294c0.219,0 0.426,0.021 0.622,0.062s0.381,0.097 0.555,0.167s0.337,0.149 0.488,0.237s0.291,0.179 0.42,0.272l0.017,0c-0.005,-0.117 -0.01,-0.283 -0.013,-0.497c-0.002,-0.214 -0.004,-0.447 -0.004,-0.699l0,-3.542l1.993,0l0,10.195c0,0.563 0.005,1.046 0.017,1.45c0.011,0.404 0.022,0.765 0.033,1.081l-1.799,0l-0.084,-0.905l-0.034,0c-0.117,0.146 -0.259,0.29 -0.424,0.431c-0.166,0.141 -0.348,0.262 -0.547,0.365s-0.418,0.183 -0.656,0.242s-0.497,0.088 -0.777,0.088c-0.442,0 -0.867,-0.082 -1.273,-0.246s-0.771,-0.417 -1.093,-0.76s-0.58,-0.791 -0.773,-1.345s-0.291,-1.205 -0.291,-1.955zm3.926,2.645c0.196,0 0.383,-0.026 0.56,-0.079c0.176,-0.053 0.343,-0.123 0.5,-0.211c0.156,-0.088 0.295,-0.185 0.416,-0.29c0.12,-0.105 0.223,-0.208 0.307,-0.308l0,-4.043c-0.235,-0.199 -0.499,-0.365 -0.79,-0.497c-0.292,-0.132 -0.6,-0.198 -0.925,-0.198c-0.207,0 -0.425,0.044 -0.651,0.132c-0.228,0.088 -0.435,0.237 -0.622,0.448c-0.188,0.211 -0.345,0.504 -0.471,0.879c-0.127,0.375 -0.189,0.853 -0.189,1.433c0,0.855 0.158,1.523 0.475,2.004s0.779,0.724 1.39,0.73z"/>
  </g>
  <g stroke="null" id="svg_32"/>
  <g stroke="null" id="svg_33"/>
  <g stroke="null" id="svg_34"/>
  <g stroke="null" id="svg_35"/>
  <g stroke="null" id="svg_36"/>
  <g stroke="null" id="svg_37"/>
  <g stroke="null" id="svg_38"/>
  <g stroke="null" id="svg_39"/>
  <g stroke="null" id="svg_40"/>
  <g stroke="null" id="svg_41"/>
  <g stroke="null" id="svg_42"/>
  <g stroke="null" id="svg_43"/>
  <g stroke="null" id="svg_44"/>
  <g stroke="null" id="svg_45"/>
  <g stroke="null" id="svg_46"/>
 </g>
</svg>