<?xml version="1.0" encoding="utf-8"?>
<!-- Generator: Adobe Illustrator 16.0.0, SVG Export Plug-In . SVG Version: 6.00 Build 0)  -->
<!DOCTYPE svg PUBLIC "-//W3C//DTD SVG 1.1//EN" "http://www.w3.org/Graphics/SVG/1.1/DTD/svg11.dtd">
<svg version="1.1" id="Layer_1" xmlns="http://www.w3.org/2000/svg" xmlns:xlink="http://www.w3.org/1999/xlink" x="0px" y="0px"
	 width="222.334px" height="40.667px" viewBox="0 0 222.334 40.667" enable-background="new 0 0 222.334 40.667"
	 xml:space="preserve">
<g>
	<path fill="#006837" d="M16.315,29.958c0.833,0,1.703-0.088,2.608-0.265c0.906-0.177,1.824-0.429,2.754-0.757v3.58
		c-0.556,0.252-1.407,0.492-2.555,0.72c-1.147,0.227-2.337,0.341-3.568,0.341c-1.244,0-2.425-0.167-3.542-0.502
		S9.92,32.2,9.087,31.455c-0.834-0.745-1.495-1.71-1.984-2.897c-0.488-1.187-0.733-2.626-0.733-4.318
		c0-1.667,0.229-3.125,0.688-4.375s1.075-2.285,1.848-3.106c0.773-0.821,1.658-1.437,2.654-1.847s2.026-0.616,3.089-0.616
		c1.111,0,2.135,0.177,3.071,0.53c0.936,0.354,1.745,0.909,2.428,1.667c0.682,0.757,1.214,1.733,1.594,2.926
		c0.381,1.193,0.57,2.604,0.57,4.233c-0.012,0.631-0.03,1.168-0.054,1.61H10.754c0.06,0.846,0.241,1.569,0.543,2.168
		s0.697,1.086,1.187,1.458s1.061,0.644,1.712,0.814C14.848,29.874,15.555,29.958,16.315,29.958z M14.595,17.799
		c-0.544,0-1.027,0.104-1.45,0.313s-0.788,0.492-1.096,0.852s-0.553,0.78-0.733,1.26c-0.182,0.48-0.303,0.991-0.362,1.534h6.902
		c0-0.543-0.07-1.054-0.209-1.534s-0.344-0.9-0.615-1.26c-0.272-0.36-0.61-0.644-1.015-0.852
		C15.611,17.903,15.138,17.799,14.595,17.799z"/>
	<path fill="#006837" d="M25.392,24.295c0-1.603,0.211-3.033,0.634-4.29s1-2.311,1.73-3.163c0.73-0.852,1.567-1.49,2.509-1.913
		c0.942-0.423,1.921-0.635,2.936-0.635c0.471,0,0.918,0.044,1.341,0.133c0.422,0.088,0.821,0.208,1.195,0.36
		c0.374,0.151,0.725,0.322,1.051,0.511s0.628,0.385,0.906,0.587h0.036c-0.013-0.252-0.021-0.609-0.027-1.07
		s-0.009-0.963-0.009-1.506V5.678h4.293v21.97c0,1.212,0.012,2.254,0.036,3.125s0.049,1.648,0.073,2.33h-3.877l-0.182-1.951h-0.072
		c-0.254,0.315-0.559,0.625-0.915,0.928c-0.356,0.303-0.749,0.565-1.178,0.786c-0.429,0.221-0.899,0.395-1.413,0.521
		c-0.514,0.126-1.072,0.189-1.676,0.189c-0.954,0-1.869-0.177-2.744-0.53c-0.876-0.354-1.661-0.9-2.355-1.639
		c-0.694-0.738-1.25-1.705-1.667-2.897C25.6,27.316,25.392,25.912,25.392,24.295z M33.853,29.997c0.422,0,0.824-0.057,1.204-0.17
		c0.381-0.114,0.74-0.265,1.078-0.455s0.637-0.398,0.896-0.625c0.26-0.228,0.48-0.448,0.662-0.663v-8.712
		c-0.508-0.429-1.075-0.786-1.703-1.07s-1.293-0.426-1.993-0.426c-0.447,0-0.915,0.095-1.404,0.284s-0.936,0.511-1.34,0.966
		c-0.405,0.455-0.743,1.086-1.015,1.894c-0.272,0.808-0.408,1.837-0.408,3.087c0,1.843,0.342,3.283,1.023,4.318
		C31.536,29.46,32.536,29.984,33.853,29.997z"/>
	<path fill="#006837" d="M46.987,5.678h4.511v4.868h-4.511V5.678z M47.096,14.75h4.294v18.353h-4.294V14.75z"/>
	<path fill="#006837" d="M73.075,23.614c0,1.654-0.229,3.119-0.688,4.394s-1.06,2.323-1.803,3.144
		c-0.742,0.821-1.579,1.43-2.509,1.828c-0.931,0.397-1.866,0.597-2.809,0.597c-0.664,0-1.262-0.085-1.793-0.256
		c-0.532-0.17-0.996-0.382-1.396-0.634c-0.398-0.252-0.733-0.518-1.005-0.795s-0.486-0.524-0.644-0.739h-0.072l-0.417,1.951H56.39
		c0.024-0.543,0.046-1.215,0.063-2.017c0.019-0.802,0.027-1.563,0.027-2.282V5.678h4.294v7.633c0,0.543-0.004,1.045-0.01,1.506
		s-0.015,0.817-0.026,1.07h0.036c0.277-0.202,0.579-0.397,0.905-0.587s0.683-0.36,1.069-0.511c0.386-0.152,0.803-0.271,1.25-0.36
		c0.446-0.088,0.918-0.133,1.413-0.133c0.979,0,1.93,0.187,2.854,0.559c0.924,0.373,1.745,0.941,2.464,1.705
		c0.718,0.764,1.289,1.743,1.712,2.936C72.864,20.688,73.075,22.061,73.075,23.614z M68.637,23.841c0-1.148-0.133-2.137-0.398-2.964
		c-0.266-0.827-0.613-1.458-1.042-1.894s-0.876-0.729-1.341-0.88c-0.465-0.152-0.927-0.228-1.386-0.228
		c-0.628,0-1.268,0.133-1.92,0.398s-1.244,0.619-1.775,1.061v8.788c0.169,0.202,0.377,0.414,0.625,0.634
		c0.247,0.221,0.525,0.423,0.833,0.606c0.308,0.183,0.644,0.335,1.006,0.455c0.362,0.12,0.748,0.18,1.159,0.18
		c0.7,0,1.313-0.148,1.839-0.445c0.525-0.296,0.966-0.716,1.322-1.259s0.625-1.19,0.807-1.941
		C68.546,25.6,68.637,24.763,68.637,23.841z"/>
	<path fill="#006837" d="M77.061,33.103V5.678h4.294v27.425H77.061z"/>
	<path fill="#006837" d="M95.286,29.958c0.833,0,1.703-0.088,2.608-0.265c0.906-0.177,1.824-0.429,2.754-0.757v3.58
		c-0.556,0.252-1.407,0.492-2.555,0.72c-1.147,0.227-2.337,0.341-3.568,0.341c-1.244,0-2.425-0.167-3.542-0.502
		s-2.093-0.875-2.926-1.62c-0.834-0.745-1.495-1.71-1.984-2.897c-0.488-1.187-0.733-2.626-0.733-4.318
		c0-1.667,0.229-3.125,0.688-4.375s1.075-2.285,1.848-3.106c0.773-0.821,1.658-1.437,2.654-1.847s2.026-0.616,3.089-0.616
		c1.111,0,2.135,0.177,3.071,0.53c0.936,0.354,1.745,0.909,2.428,1.667c0.682,0.757,1.214,1.733,1.594,2.926
		c0.381,1.193,0.57,2.604,0.57,4.233c-0.012,0.631-0.03,1.168-0.054,1.61H89.725c0.06,0.846,0.241,1.569,0.543,2.168
		s0.697,1.086,1.187,1.458s1.061,0.644,1.712,0.814C93.818,29.874,94.525,29.958,95.286,29.958z M93.565,17.799
		c-0.544,0-1.027,0.104-1.45,0.313s-0.788,0.492-1.096,0.852s-0.553,0.78-0.733,1.26c-0.182,0.48-0.303,0.991-0.362,1.534h6.902
		c0-0.543-0.07-1.054-0.209-1.534s-0.344-0.9-0.615-1.26c-0.272-0.36-0.61-0.644-1.015-0.852
		C94.582,17.903,94.108,17.799,93.565,17.799z"/>
	<path fill="#006837" d="M112.008,24.295c0-1.603,0.211-3.033,0.634-4.29s1-2.311,1.73-3.163c0.73-0.852,1.567-1.49,2.509-1.913
		c0.942-0.423,1.921-0.635,2.936-0.635c0.471,0,0.918,0.044,1.341,0.133c0.422,0.088,0.821,0.208,1.195,0.36
		c0.374,0.151,0.725,0.322,1.051,0.511s0.628,0.385,0.906,0.587h0.036c-0.013-0.252-0.021-0.609-0.027-1.07
		s-0.009-0.963-0.009-1.506V5.678h4.293v21.97c0,1.212,0.012,2.254,0.036,3.125s0.049,1.648,0.073,2.33h-3.877l-0.182-1.951h-0.072
		c-0.254,0.315-0.559,0.625-0.915,0.928c-0.356,0.303-0.749,0.565-1.178,0.786c-0.429,0.221-0.899,0.395-1.413,0.521
		c-0.514,0.126-1.072,0.189-1.676,0.189c-0.954,0-1.869-0.177-2.744-0.53c-0.876-0.354-1.661-0.9-2.355-1.639
		c-0.694-0.738-1.25-1.705-1.667-2.897C112.216,27.316,112.008,25.912,112.008,24.295z M120.469,29.997
		c0.422,0,0.824-0.057,1.204-0.17c0.381-0.114,0.74-0.265,1.078-0.455s0.637-0.398,0.896-0.625c0.26-0.228,0.48-0.448,0.662-0.663
		v-8.712c-0.508-0.429-1.075-0.786-1.703-1.07s-1.293-0.426-1.993-0.426c-0.447,0-0.915,0.095-1.404,0.284s-0.936,0.511-1.34,0.966
		c-0.405,0.455-0.743,1.086-1.015,1.894c-0.272,0.808-0.408,1.837-0.408,3.087c0,1.843,0.342,3.283,1.023,4.318
		C118.152,29.46,119.152,29.984,120.469,29.997z"/>
	<path fill="#006837" d="M133.604,5.678h4.511v4.868h-4.511V5.678z M133.712,14.75h4.294v18.353h-4.294V14.75z"/>
	<path fill="#006837" d="M153.15,31.152h-0.072c-0.242,0.265-0.532,0.537-0.87,0.814s-0.725,0.54-1.159,0.786
		c-0.435,0.247-0.918,0.445-1.449,0.597c-0.531,0.152-1.105,0.228-1.721,0.228c-0.834,0-1.613-0.136-2.338-0.407
		s-1.347-0.663-1.865-1.174c-0.52-0.511-0.928-1.13-1.224-1.856s-0.443-1.537-0.443-2.434c0-0.985,0.172-1.868,0.517-2.651
		c0.344-0.783,0.824-1.446,1.439-1.989c0.616-0.542,1.353-0.957,2.211-1.24c0.857-0.284,1.806-0.426,2.844-0.426
		c0.761,0,1.462,0.05,2.102,0.151c0.641,0.101,1.202,0.221,1.686,0.36V21.17c0-0.429-0.07-0.843-0.209-1.24
		c-0.139-0.398-0.362-0.751-0.67-1.061c-0.309-0.31-0.71-0.556-1.205-0.739s-1.099-0.275-1.812-0.275
		c-0.869,0-1.739,0.102-2.608,0.303c-0.87,0.202-1.813,0.505-2.826,0.909v-3.504c0.881-0.404,1.817-0.713,2.808-0.928
		c0.99-0.214,2.029-0.328,3.116-0.341c1.28,0,2.4,0.164,3.36,0.493c0.96,0.328,1.764,0.78,2.41,1.354
		c0.646,0.575,1.129,1.253,1.449,2.036c0.319,0.783,0.479,1.635,0.479,2.557v6.913c0,1.212,0.012,2.254,0.036,3.125
		s0.049,1.648,0.073,2.33h-3.877L153.15,31.152z M152.807,25.28c-0.411-0.101-0.882-0.192-1.413-0.274
		c-0.532-0.082-1.069-0.123-1.613-0.123c-1.051,0-1.881,0.218-2.49,0.653c-0.61,0.436-0.915,1.102-0.915,1.998
		c0,0.417,0.069,0.78,0.208,1.089c0.139,0.309,0.326,0.565,0.562,0.767c0.235,0.202,0.511,0.354,0.824,0.455
		c0.314,0.102,0.646,0.152,0.997,0.152c0.435,0,0.845-0.06,1.231-0.18c0.387-0.12,0.743-0.271,1.069-0.455
		c0.326-0.183,0.618-0.388,0.878-0.615c0.26-0.228,0.48-0.448,0.662-0.663V25.28z"/>
	<path fill="#006837" d="M162.101,33.103V5.678h4.294v27.425H162.101z"/>
	<path fill="#006837" d="M180.326,29.958c0.833,0,1.703-0.088,2.608-0.265c0.906-0.177,1.824-0.429,2.754-0.757v3.58
		c-0.556,0.252-1.407,0.492-2.555,0.72c-1.147,0.227-2.337,0.341-3.568,0.341c-1.244,0-2.425-0.167-3.542-0.502
		s-2.093-0.875-2.926-1.62c-0.834-0.745-1.495-1.71-1.984-2.897c-0.488-1.187-0.733-2.626-0.733-4.318
		c0-1.667,0.229-3.125,0.688-4.375s1.075-2.285,1.848-3.106c0.773-0.821,1.658-1.437,2.654-1.847s2.026-0.616,3.089-0.616
		c1.111,0,2.135,0.177,3.071,0.53c0.936,0.354,1.745,0.909,2.428,1.667c0.682,0.757,1.214,1.733,1.594,2.926
		c0.381,1.193,0.57,2.604,0.57,4.233c-0.012,0.631-0.03,1.168-0.054,1.61h-11.504c0.06,0.846,0.241,1.569,0.543,2.168
		s0.697,1.086,1.187,1.458s1.061,0.644,1.712,0.814C178.858,29.874,179.565,29.958,180.326,29.958z M178.605,17.799
		c-0.544,0-1.027,0.104-1.45,0.313s-0.788,0.492-1.096,0.852s-0.553,0.78-0.733,1.26c-0.182,0.48-0.303,0.991-0.362,1.534h6.902
		c0-0.543-0.07-1.054-0.209-1.534s-0.344-0.9-0.615-1.26c-0.272-0.36-0.61-0.644-1.015-0.852
		C179.622,17.903,179.148,17.799,178.605,17.799z"/>
	<path fill="#006837" d="M202.954,32.705c-0.544,0.24-1.208,0.445-1.993,0.616s-1.612,0.256-2.482,0.256
		c-1.268,0-2.451-0.189-3.551-0.568c-1.099-0.379-2.059-0.953-2.88-1.724c-0.822-0.77-1.468-1.745-1.938-2.926
		c-0.472-1.181-0.707-2.56-0.707-4.139c0-1.768,0.271-3.283,0.815-4.545c0.543-1.262,1.247-2.289,2.11-3.078s1.836-1.37,2.917-1.743
		c1.081-0.372,2.146-0.559,3.197-0.559c0.785,0,1.54,0.073,2.265,0.218c0.725,0.146,1.383,0.344,1.975,0.597v3.655
		c-0.531-0.24-1.096-0.432-1.693-0.578c-0.598-0.145-1.241-0.218-1.93-0.218s-1.347,0.111-1.975,0.332
		c-0.628,0.221-1.184,0.571-1.667,1.051s-0.866,1.114-1.15,1.903s-0.426,1.739-0.426,2.851c0,0.808,0.109,1.569,0.326,2.282
		c0.218,0.713,0.534,1.323,0.951,1.828s0.948,0.912,1.595,1.221c0.646,0.31,1.409,0.464,2.291,0.464
		c0.785,0,1.498-0.082,2.139-0.246c0.64-0.164,1.243-0.366,1.812-0.606V32.705z"/>
	<path fill="#006837" d="M217.393,33.083c-0.483,0.152-1.06,0.271-1.729,0.36c-0.671,0.088-1.296,0.133-1.876,0.133
		c-1.474,0-2.678-0.25-3.614-0.748c-0.936-0.499-1.597-1.215-1.983-2.15c-0.278-0.669-0.417-1.578-0.417-2.727v-9.508h-3.278V14.75
		h3.278V9.617h4.294v5.133h5.072v3.693h-5.072v8.92c0,0.708,0.103,1.231,0.308,1.572c0.362,0.581,1.081,0.871,2.156,0.871
		c0.495,0,0.987-0.041,1.477-0.123s0.951-0.187,1.386-0.313V33.083z"/>
</g>
<g>
</g>
<g>
</g>
<g>
</g>
<g>
</g>
<g>
</g>
<g>
</g>
<g>
</g>
<g>
</g>
<g>
</g>
<g>
</g>
<g>
</g>
<g>
</g>
<g>
</g>
<g>
</g>
<g>
</g>
</svg>
