<?xml version="1.0" encoding="utf-8"?>
<!-- Generator: Adobe Illustrator 16.0.0, SVG Export Plug-In . SVG Version: 6.00 Build 0)  -->
<!DOCTYPE svg PUBLIC "-//W3C//DTD SVG 1.1//EN" "http://www.w3.org/Graphics/SVG/1.1/DTD/svg11.dtd">
<svg version="1.1" id="Layer_1" xmlns="http://www.w3.org/2000/svg" xmlns:xlink="http://www.w3.org/1999/xlink" x="0px" y="0px"
	 width="41px" height="44px" viewBox="0 0 41 44" enable-background="new 0 0 41 44" xml:space="preserve">
<g>
	<defs>
		<rect id="SVGID_1_" y="1.5" width="41" height="41"/>
	</defs>
	<clipPath id="SVGID_2_">
		<use xlink:href="#SVGID_1_"  overflow="visible"/>
	</clipPath>
	<g clip-path="url(#SVGID_2_)">
		<g>
			<path fill-rule="evenodd" clip-rule="evenodd" fill="#FDFDFD" d="M21.592,43.5c-5.982,0-11.964-0.063-17.945,0.038
				c-1.818,0.03-2.763,0.075-2.727-2.378C1.096,29.033,1.041,16.902,0.956,4.772c-0.013-1.8,0.313-2.346,2.258-2.328
				c12.128,0.11,24.258,0.069,36.388,0.038c1.523-0.004,2.501-0.147,2.473,2.107c-0.157,12.294-0.173,24.593,0.008,36.886
				c0.036,2.43-1.182,2.021-2.546,2.022C33.556,43.502,27.573,43.5,21.592,43.5z"/>
			<path fill-rule="evenodd" clip-rule="evenodd" fill="#045DAA" d="M12.212,38.623c-1.632,2.383-4.317,1.803-6.145,1.234
				C3.301,38.998,6.53,37.06,6.04,35.573c0.96-1.494-0.122-3.317,0.765-4.825c2.503-5.67,4.626-11.501,7.194-17.144
				c0.957-1.855,1.438-3.891,2.156-5.838c0.359-0.897,0.813-1.734,1.513-2.42c0.415-0.281,0.873-0.396,1.371-0.354
				c1.942,0.137,3.89-0.152,5.833,0.077c2.087,1.522,2.548,4.12,4.02,6.053c0.798,1.271,1.22,2.672,1.45,4.139
				c0.845,4.728,3.386,8.885,4.555,13.502c0.352,1.577,1.263,3.051,0.92,4.763c0.132,1.425,0.176,2.88,1.303,3.979
				c0.798,1.835-0.198,2.547-1.788,2.423c-2.159-0.167-4.712,1.08-6.31-1.499c-0.349-0.563-0.574-1.186-0.858-1.779
				c-2.743-5.73-7.946-6.652-12.97-2.287C14.181,35.772,13.625,37.499,12.212,38.623z"/>
			<path fill-rule="evenodd" clip-rule="evenodd" fill="#D1D7E4" d="M24.992,5.527c-2.271-0.409-4.536-0.573-6.776,0.183
				c-0.587-1.105-0.294-1.585,0.974-1.373C32.855,4.3,38.341,8.793,40.647,21.916c0.864,4.915-1.231,9.95-4.833,11.61
				c-1.152-1.114-1.523-2.554-1.696-4.076c-0.402-4.165-2.029-8.182-1.528-12.457c1.692-0.656,2.793-1.218,1.509-3.525
				C31.97,9.643,27.947,8.25,24.992,5.527z"/>
			<path fill-rule="evenodd" clip-rule="evenodd" fill="#D3D8E4" d="M19.19,4.337c-0.325,0.457-0.649,0.914-0.974,1.372
				c0,0.001-0.028-0.108-0.028-0.108c-2.8,2.287-6.72,2.888-8.985,5.987c-0.961,1.316-2.18,2.314-0.521,4.224
				c1.86,2.139,1.649,2.366-1.038,4.748c-0.283,0.251-0.355,0.044-0.039,0.479c2.472,3.4,0.298,6.914,0.176,10.383
				c-0.581,1.384-1.162,2.768-1.743,4.151c-5.937-9.087-5.627-17.99,1.209-26.388C10.213,5.545,14.164,3.371,19.19,4.337z"/>
			<path fill-rule="evenodd" clip-rule="evenodd" fill="#E4E9ED" d="M13.862,34.283c0.604-5.815,5.106-3.651,8.317-4.005
				c3.096-0.341,6.033-0.166,6.567,3.899c0.557,4.231,2.485,6.653,7.181,5.616c1.398-0.31,1.123-1.356,1.189-2.288
				c1.802,2.556,0.219,3.134-1.926,3.049c-2.474-0.099-4.836,0.333-7.195,0.938c-0.908-0.72-0.664-3.624-2.948-1.725
				c-3.687,3.066-6.286,1.52-8.581-1.778C15.605,36.75,13.302,36.521,13.862,34.283z"/>
			<path fill-rule="evenodd" clip-rule="evenodd" fill="#CFD5E2" d="M13.862,34.283c1.443,1.928,3.953,2.535,5.241,4.909
				c1.389,2.559,3.928,1.408,5.148-0.352c0.975-1.406,1.869-2.53,3.274-1.657c1.545,0.959,1.546,2.729,0.471,4.31
				c-7.164,2.374-12.265,1.446-15.784-2.87C12.285,36.995,12.972,35.601,13.862,34.283z"/>
			<path fill-rule="evenodd" clip-rule="evenodd" fill="#EEF0F3" d="M7.782,31.422c-0.643-4.33,0.82-9.051-2.816-12.89
				c2.13-0.603,2.457,1.953,4.212,1.535c1.311-1.297-0.016-2.905-0.66-3.214c-4.295-2.065-2.198-3.986-0.218-6.21
				c2.668-2.997,5.956-4.608,9.887-5.043c-0.3,0.68-0.6,1.358-0.9,2.038c-2.835,1.163-1.976,3.751-2.272,5.894
				C12.605,19.495,10.193,25.459,7.782,31.422z"/>
			<path fill-rule="evenodd" clip-rule="evenodd" fill="#DEE4EC" d="M17.32,24.716c1.378-4.115,2.622-7.828,4.135-12.347
				c0.816,2.406,1.397,3.945,1.863,5.519C25.39,24.892,25.377,24.896,17.32,24.716z"/>
			<path fill-rule="evenodd" clip-rule="evenodd" fill="#F5F7F7" d="M24.992,5.527c7.646,2.198,10.98,5.953,10.698,12.043
				c-0.884-0.354-1.77-0.702-2.656-1.051c-0.395,0.291-0.804,0.327-1.229,0.07c-1.254-1.617,0.002-5.313-3.914-4.735
				C26.161,10.096,25.878,7.674,24.992,5.527z"/>
			<path fill-rule="evenodd" clip-rule="evenodd" fill="#E9EEF1" d="M32.03,16.486c0.334,0.011,0.669,0.022,1.004,0.033
				c1.418,4.222,1.324,8.57,1.084,12.931c-1.818-4.583-4.189-8.968-5.013-13.909C30.46,14.681,30.846,16.817,32.03,16.486z"/>
			<path fill-rule="evenodd" clip-rule="evenodd" fill="#D1D7E4" d="M32.03,16.486c-1.778,2.169-1.635-1.606-2.925-0.945
				c-0.404-1.229-0.81-2.458-1.214-3.687c0.794-1.575,1.86-1.428,3.192-0.638C33.487,12.644,31.687,14.74,32.03,16.486z"/>
			<path fill-rule="evenodd" clip-rule="evenodd" fill="#D2DBE6" d="M15.016,13.532c-3.025-3.423-2.325-5.409,2.272-5.894
				C16.901,9.745,16.272,11.76,15.016,13.532z"/>
		</g>
	</g>
</g>
</svg>
