<?xml version="1.0" encoding="utf-8"?>
<!-- Generator: Adobe Illustrator 16.0.0, SVG Export Plug-In . SVG Version: 6.00 Build 0)  -->
<!DOCTYPE svg PUBLIC "-//W3C//DTD SVG 1.0//EN" "http://www.w3.org/TR/2001/REC-SVG-20010904/DTD/svg10.dtd">
<svg version="1.0" id="Layer_1" xmlns="http://www.w3.org/2000/svg" xmlns:xlink="http://www.w3.org/1999/xlink" x="0px" y="0px"
	 width="47px" height="47px" viewBox="0 0 47 47" enable-background="new 0 0 47 47" xml:space="preserve">
<rect x="0.5" y="1.5" fill="#FFFFFF" stroke="#000000" stroke-width="3" stroke-miterlimit="10" width="45" height="44"/>
<g>
	<path d="M13.599,11.891c0-0.161-0.005-0.313-0.016-0.453c-0.011-0.141-0.029-0.263-0.055-0.367
		c-0.058-0.229-0.169-0.414-0.336-0.555c-0.167-0.141-0.401-0.213-0.703-0.219c-0.162,0-0.328,0.023-0.5,0.07
		s-0.343,0.113-0.512,0.199c-0.169,0.086-0.331,0.19-0.484,0.313c-0.154,0.123-0.293,0.259-0.418,0.41V16.5H8.724v-4.609
		c0-0.161-0.005-0.313-0.016-0.453c-0.011-0.141-0.029-0.263-0.055-0.367c-0.058-0.229-0.168-0.414-0.332-0.555
		s-0.4-0.213-0.707-0.219c-0.162,0-0.328,0.023-0.5,0.07s-0.343,0.113-0.512,0.199c-0.169,0.086-0.331,0.19-0.484,0.313
		c-0.154,0.123-0.293,0.259-0.418,0.41V16.5H3.849V8.93H5.38l0.172,1.055h0.031c0.109-0.156,0.247-0.31,0.414-0.461
		C6.164,9.373,6.353,9.24,6.564,9.125c0.211-0.114,0.442-0.207,0.695-0.277c0.252-0.07,0.52-0.105,0.801-0.105
		c0.5,0,0.949,0.111,1.348,0.332c0.398,0.222,0.702,0.566,0.91,1.035h0.031c0.146-0.203,0.309-0.388,0.488-0.555
		c0.18-0.167,0.379-0.31,0.598-0.43c0.219-0.12,0.454-0.213,0.707-0.281c0.252-0.067,0.522-0.102,0.809-0.102
		c0.542,0.005,0.996,0.119,1.363,0.34c0.367,0.222,0.649,0.525,0.848,0.91c0.052,0.099,0.096,0.207,0.133,0.324
		c0.036,0.117,0.066,0.249,0.09,0.395c0.023,0.146,0.04,0.308,0.051,0.484c0.01,0.177,0.016,0.38,0.016,0.609V16.5h-1.852V11.891z"
		/>
	<path d="M21.38,15.203c0.359,0,0.734-0.036,1.125-0.109c0.391-0.073,0.786-0.177,1.188-0.313v1.477
		c-0.239,0.104-0.606,0.203-1.102,0.297s-1.008,0.141-1.539,0.141c-0.536,0-1.046-0.069-1.527-0.207
		c-0.482-0.138-0.902-0.36-1.262-0.668c-0.359-0.307-0.645-0.706-0.855-1.195c-0.211-0.489-0.316-1.083-0.316-1.781
		c0-0.688,0.099-1.289,0.297-1.805c0.198-0.516,0.463-0.942,0.797-1.281c0.333-0.338,0.715-0.592,1.145-0.762
		c0.43-0.169,0.874-0.254,1.332-0.254c0.479,0,0.921,0.073,1.324,0.219c0.403,0.146,0.753,0.375,1.047,0.688
		s0.523,0.715,0.688,1.207s0.246,1.074,0.246,1.746c-0.005,0.261-0.013,0.482-0.023,0.664h-4.961
		c0.026,0.349,0.104,0.647,0.234,0.895c0.13,0.248,0.301,0.448,0.512,0.602c0.211,0.154,0.457,0.266,0.738,0.336
		S21.052,15.203,21.38,15.203z M20.638,10.188c-0.234,0-0.442,0.043-0.625,0.129s-0.34,0.203-0.473,0.352s-0.238,0.322-0.316,0.52
		c-0.078,0.198-0.13,0.409-0.156,0.633h2.977c0-0.224-0.03-0.435-0.09-0.633c-0.06-0.198-0.148-0.371-0.266-0.52
		s-0.263-0.266-0.438-0.352S20.873,10.188,20.638,10.188z"/>
	<path d="M27.389,9.984h0.031c0.109-0.156,0.246-0.31,0.414-0.461C28,9.373,28.189,9.24,28.404,9.125
		c0.213-0.114,0.449-0.207,0.707-0.277s0.531-0.105,0.824-0.105c0.275,0,0.543,0.031,0.801,0.094s0.492,0.16,0.707,0.293
		c0.213,0.133,0.402,0.305,0.566,0.516s0.293,0.462,0.387,0.754c0.051,0.162,0.086,0.337,0.105,0.527
		c0.018,0.19,0.027,0.41,0.027,0.66V16.5h-1.852v-4.625c0-0.203-0.008-0.377-0.023-0.523c-0.016-0.146-0.045-0.273-0.086-0.383
		c-0.094-0.239-0.236-0.411-0.426-0.516c-0.191-0.104-0.422-0.156-0.691-0.156c-0.359,0-0.705,0.085-1.035,0.254
		c-0.332,0.169-0.625,0.416-0.879,0.738V16.5h-1.852V8.93h1.531L27.389,9.984z"/>
	<path d="M37.904,16.695c-0.762,0-1.391-0.129-1.891-0.387s-0.879-0.605-1.133-1.043c-0.137-0.234-0.236-0.492-0.301-0.773
		c-0.066-0.281-0.098-0.594-0.098-0.938V8.93h1.852v4.43c0,0.255,0.018,0.476,0.055,0.66c0.035,0.185,0.09,0.345,0.164,0.48
		c0.125,0.229,0.301,0.4,0.531,0.512c0.229,0.112,0.502,0.168,0.82,0.168c0.332,0,0.617-0.063,0.855-0.188
		c0.236-0.125,0.414-0.315,0.535-0.57c0.119-0.245,0.18-0.586,0.18-1.023V8.93h1.852v4.625c0,0.615-0.107,1.133-0.32,1.555
		c-0.121,0.24-0.275,0.457-0.465,0.652c-0.191,0.195-0.414,0.362-0.672,0.5c-0.258,0.138-0.551,0.245-0.875,0.32
		C38.668,16.657,38.305,16.695,37.904,16.695z"/>
</g>
<g>
</g>
<g>
</g>
<g>
</g>
<g>
</g>
<g>
</g>
<g>
</g>
<g>
</g>
<g>
</g>
<g>
</g>
<g>
</g>
<g>
</g>
<g>
</g>
<g>
</g>
<g>
</g>
<g>
</g>
</svg>
