<?xml version="1.0" encoding="utf-8"?>
<!-- Generator: Adobe Illustrator 16.0.0, SVG Export Plug-In . SVG Version: 6.00 Build 0)  -->
<!DOCTYPE svg PUBLIC "-//W3C//DTD SVG 1.0//EN" "http://www.w3.org/TR/2001/REC-SVG-20010904/DTD/svg10.dtd">
<svg version="1.0" id="Layer_1" xmlns="http://www.w3.org/2000/svg" xmlns:xlink="http://www.w3.org/1999/xlink" x="0px" y="0px"
	 width="47px" height="47px" viewBox="0 0 47 47" enable-background="new 0 0 47 47" xml:space="preserve">
<g>
	<g>
		<path fill-rule="evenodd" clip-rule="evenodd" fill="#FDFDFD" d="M44.053,12.188c0,11.179-0.008,22.357,0.02,33.536
			c0.002,0.68-0.133,0.814-0.813,0.813c-14.09-0.025-28.178-0.025-42.268,0c-0.68,0.002-0.814-0.133-0.813-0.813
			c0.025-14.618,0.025-29.237,0-43.855C0.178,1.19,0.313,1.056,0.992,1.057c14.089,0.025,28.178,0.025,42.268,0
			c0.68-0.001,0.828,0.131,0.814,0.813c-0.053,2.446-0.021,4.895-0.021,7.342c-0.195-0.002-0.393-0.004-0.588-0.006
			c-0.572-1.305-0.775-2.762-1.629-3.952c0.088-0.471-0.285-0.885-0.545-0.921c-1.045-0.143-1.947-0.743-2.977-0.87
			c-1.52-0.187-2.959-0.704-4.49-0.906c-2.211-0.291-4.387-0.817-6.641-0.663c-2.645-0.096-5.289-0.125-7.933-0.005
			c-1.676-0.305-3.282,0.309-4.931,0.374c-1.584,0.063-3.13,0.352-4.604,0.964C9.587,3.249,9.458,3.269,9.33,3.289
			C9.16,3.234,9.004,3.224,8.917,3.422C8.79,3.444,8.663,3.466,8.536,3.488C8.365,3.43,8.207,3.41,8.122,3.621
			C7.856,3.689,7.535,3.533,7.323,3.819C6.852,3.75,6.474,3.949,6.127,4.236C6.004,4.247,5.88,4.257,5.757,4.268
			C4.842,4.343,3.935,4.446,3.167,5.024c-0.2,0.063-0.458-0.029-0.589,0.219C2.256,5.568,1.589,5.567,1.639,6.242
			C1.632,6.374,1.625,6.506,1.617,6.638c-0.72,1.222-0.9,2.577-0.975,3.958C0.62,11.33,0.42,12.074,0.769,12.787
			c0.046,0.146,0.021,0.332,0.213,0.4c0.249,1.385,0.885,2.127,2.006,2.339c0.458-0.002,0.916-0.004,1.373-0.006
			c0.61-0.048,1.227-0.062,1.804-0.306c0.194-0.033,0.389-0.066,0.583-0.099c0.124,0.042,0.2-0.014,0.249-0.123
			c0.505-0.133,1.009-0.266,1.513-0.398c-0.007,0.987,0.061,1.981-0.036,2.959c-0.216,2.175-0.516,4.342-0.781,6.512
			c-0.182,0.791-0.461,1.569-0.308,2.403c-0.267,0.986-0.219,1.994-0.195,3c-0.287,2.356-0.76,4.693-0.708,7.083
			c-0.162,0.033-0.319,0.103-0.268,0.29c0.022,0.083,0.179,0.131,0.274,0.194c0,0.104,0.001,0.21,0.001,0.315
			c-0.359,0.151-0.436,0.355-0.116,0.632c-0.006,0.133-0.012,0.266-0.018,0.398c-0.391,0.556-0.236,1.028,0.19,1.493
			c0.806,0.879,1.845,1.375,2.956,1.65c3.466,0.859,7.012,1.106,10.566,1.218c4.028,0.126,8.062,0.041,12.056-0.439
			c2.129-0.256,4.268-0.768,6.055-2.139c0.584-0.447,0.764-0.942,0.338-1.585c0-0.923-0.002-1.846-0.002-2.769
			c0.16-0.142,0.148-0.276-0.021-0.402c-0.006-0.392,0.006-0.784-0.021-1.175c-0.109-1.608-0.1-3.237-0.785-4.75
			c-0.012-0.182-0.023-0.362-0.037-0.544c-0.037-0.063-0.074-0.126-0.111-0.189c0.113-0.038,0.15-0.114,0.113-0.227
			c0.051-0.198,0.051-0.386-0.129-0.528c-0.008-0.104-0.014-0.207-0.021-0.31c-0.004-0.137-0.008-0.272-0.012-0.409
			c-0.004-0.203-0.006-0.406-0.01-0.609c0.031-0.069,0.016-0.125-0.047-0.169c-0.254-2.9-0.418-5.814-0.957-8.679
			c-0.193-1.031-0.328-1.876,0.824-2.362c1.113,0.232,2.232,0.396,3.375,0.267c1.184,0.241,1.955-0.742,2.359-2.554
			c0.029-0.049,0.045-0.103,0.045-0.161c0.254-0.019,0.389-0.136,0.338-0.408c0.027-0.06,0.055-0.119,0.082-0.178
			C43.672,12.32,43.816,12.142,44.053,12.188z"/>
		<path fill-rule="evenodd" clip-rule="evenodd" fill="#9E9E9E" d="M43.465,9.206c0.195,0.002,0.393,0.004,0.588,0.006
			c0,0.992,0,1.984,0,2.977c-0.236-0.046-0.381,0.131-0.555,0.236c-0.027-0.614-0.053-1.227-0.08-1.84
			C43.434,10.125,43.449,9.666,43.465,9.206z"/>
		<path fill-rule="evenodd" clip-rule="evenodd" fill="#717171" d="M7.692,24.065c0.265-2.17,0.564-4.337,0.781-6.512
			c0.097-0.978,0.029-1.973,0.036-2.959c0.506-0.112,0.403-0.524,0.426-0.871c0.115-1.688,0.231-1.832,1.876-2.273
			c0.159-0.042,0.322-0.068,0.483-0.102c1.058,0.011,2.115,0.021,3.172,0.031c0.676,0.043,1.348,0.048,2-0.181
			c2.735-0.004,5.471-0.043,8.207-0.004c2.695,0.038,5.395-0.143,8.09,0.15c0.424,0.046,0.916,0.52,1.361,0.011
			c0.486,0.034,0.984,0.001,1.428,0.261c0.156,0.091,0.5,0.204,0.412,0.307c-0.646,0.764,0.164,1.42,0.104,2.116
			c-0.082,0.955,0.424,1.196,1.229,1.167c0.002,0.083,0.002,0.167,0.002,0.25c-1.152,0.486-1.018,1.332-0.824,2.362
			c0.539,2.864,0.703,5.779,0.957,8.679c-0.014,0.021-0.045,0.053-0.039,0.063c0.023,0.039,0.057,0.071,0.086,0.106
			c0.004,0.203,0.006,0.406,0.01,0.609c-0.244,0.455-0.359,0.893,0.162,1.247c0.037,0.112,0,0.188-0.113,0.227
			c-0.084,0.097-0.168,0.193-0.25,0.29c-0.32,0.084-0.641,0.169-0.959,0.254c-0.539,0.006-1.098-0.185-1.6,0.168
			c-0.992,0.064-1.984,0.129-2.977,0.193c-0.998,0.026-1.998,0.053-2.998,0.079c-0.117,0.006-0.236,0.012-0.355,0.018
			c-2.172,0.178-4.35,0.069-6.524,0.111c-0.35,0.007-0.734-0.119-1.038,0.18c-0.397-0.004-0.794-0.009-1.191-0.014
			c-1.177-0.364-2.383-0.122-3.576-0.17c-0.197-0.002-0.395-0.004-0.592-0.006c-0.839-0.393-1.724-0.125-2.587-0.18
			c-1.382-0.145-2.766-0.248-4.157-0.232c-0.096-0.158-0.245-0.179-0.41-0.16c-0.062-0.015-0.125-0.021-0.189-0.02
			c-0.13-0.138-0.261-0.274-0.392-0.411c0.026-0.908-0.01-1.809,0.14-2.723C7.99,25.473,8.188,24.709,7.692,24.065z M17.475,16.571
			c0.21,0.888,1.104,1.026,2.122,0.33c0.019,0.151,0.037,0.303,0.055,0.455c-0.003,0.253-0.006,0.507-0.01,0.761
			c-0.526,0.007-1.056-0.022-1.578,0.032c-0.365,0.037-0.8-0.236-1.057,0.396c-0.251,0.62,0.279,0.703,0.455,1.026
			c0.009,0.347-0.025,0.691,0.463,0.788c0.379,0.076,0.594,0.342,0.531,0.763c-0.393,0.332-0.796-0.008-1.194,0.019
			c-0.067-0.36,0.16-0.813-0.418-1.171c0.12,0.567-0.241,1.088,0.364,1.404c0.004,0.462-0.509,1.023,0.256,1.341
			c0.006,0.33,0.247,0.522,0.442,0.738c0.161,0.18,0.269,0.568,0.583,0.354c0.305-0.208,0.188-0.502-0.067-0.74
			c-0.088-0.082-0.12-0.224-0.177-0.338c0.401-0.026,0.802-0.052,1.203-0.079c-0.003,0.531-0.006,1.062-0.008,1.593
			c-0.524,0.021-1.051,0.012-1.57,0.07c-0.933,0.105-0.4-0.856-0.866-1.227c-0.26,0.846-0.009,1.653-0.317,2.374
			c-0.005,0.172,0.022,0.328,0.188,0.424c-0.032,0.127-0.066,0.255-0.096,0.383c-0.334,1.432-0.205,1.593,1.244,1.593
			c3-0.001,6,0.003,9,0.005c1.252,0,1.244,0,1.152-1.188c-0.025-0.327,0.002-0.658,0.006-0.988c0.074-0.215,0.361-0.425,0.016-0.651
			c-0.004-0.04-0.004-0.081-0.002-0.122c0.016-0.071,0.029-0.143,0.045-0.214c0.098-0.011,0.254,0.013,0.285-0.039
			c0.473-0.794,1.605-1.256,1.254-2.476c-0.053-0.188,0.018-0.417,0.195-0.53c0.578-0.365,0.158-0.6-0.07-0.914
			c-0.424-0.583-0.852-1.15-1.209-1.799c-0.641-1.156,1.055-2.204-0.096-3.194c0.021-0.024,0.059-0.045,0.064-0.073
			c0.17-0.885-0.135-1.3-1.117-1.526c-0.053-0.115-0.107-0.229-0.162-0.344c0.586-0.345,1.75-0.106,1.406-1.39
			c1.791-0.047,3.574,0.035,5.34,0.364c0.145-0.022,0.34-0.012,0.309-0.225c-0.01-0.072-0.178-0.122-0.273-0.182
			c0.004-0.494-0.299-0.568-0.715-0.574c-1.867-0.026-3.73-0.046-5.598-0.153c-2.521-0.145-5.058-0.035-7.588-0.034
			c-0.212,0-0.425,0-0.637,0c-0.511,0.004-1.023,0.008-1.535,0.011c-1.257,0.086-2.511,0.206-3.776,0.178
			c-0.467-0.01-0.976-0.172-1.411,0.166c-0.693,0.013-1.386,0.028-2.079,0.037c-0.373,0.005-0.636,0.127-0.689,0.544
			c-0.264,2.081-0.59,4.155-0.783,6.242c-0.168,1.825-0.159,3.667-0.409,5.488c0.03,1.089-0.271,2.15-0.235,3.248
			c0.025,0.778,0.395,1.074,1.075,1.123c2.692,0.192,5.382,0.446,8.083,0.384c0.551-0.013,1.099,0.372,1.753,0.035
			c-0.161-0.101-0.232-0.185-0.309-0.188c-2.362-0.146-4.724-0.328-7.089-0.41c-3.229-0.113-2.846-0.102-2.509-2.904
			c0.004-0.033-0.002-0.066-0.004-0.1c0.036-1.113,0.11-2.226,0.171-3.336c0.16-2.911,0.603-5.79,0.846-8.688
			c0.057-0.67,0.3-0.938,1.02-0.884c0.644,0.049,1.301-0.096,1.953-0.156c0.182,0.225,0.349,0.155,0.574,0.028
			c0.492-0.278,1.012-0.499,1.594-0.243c0.34,0.386,0.796,0.128,1.191,0.214c0.024,1.235,0.12,1.403,1.342,1.345
			c0.923-0.043,1.182,0.306,1.047,1.135c-0.021,0.129-0.007,0.263-0.01,0.395c-0.489,0.02-0.978,0.038-1.467,0.062
			c-0.277,0.014-0.596-0.093-0.706,0.332C17.174,16.021,16.999,16.362,17.475,16.571z M35.543,28.16
			c-0.016,0.038-0.344,0.399,0.211,0.425c0.354,0.016,0.592-0.266,0.557-0.67c-0.031-0.358-0.066-0.717-0.107-1.074
			c-0.291-2.612-0.654-5.22-0.854-7.839c-0.129-1.703-0.428-3.376-0.619-5.066c-0.021-0.185,0.025-0.464-0.242-0.455
			c-0.275,0.01-0.357,0.254-0.313,0.512c0.473,2.776,0.771,5.569,1.027,8.374C35.371,24.228,35.535,26.085,35.543,28.16z
			 M32.303,28.751c-1.365-0.003-2.77-0.319-4.236,0.224C29.57,29.256,30.916,28.769,32.303,28.751z M23.877,29.05
			c-0.643-0.238-1.281-0.301-2.19,0.062C22.611,29.278,23.249,29.329,23.877,29.05z M16.077,17.096
			c0.053,0.471-0.175,0.877,0.204,1.169c0.116,0.089,0.278,0.009,0.321-0.108C16.771,17.695,16.612,17.355,16.077,17.096z
			 M17.333,14.716c-0.008,0.026-0.021,0.052-0.021,0.079c0,0.009,0.035,0.017,0.054,0.026c0.008-0.026,0.021-0.052,0.021-0.078
			C17.387,14.733,17.353,14.725,17.333,14.716z"/>
		<path fill-rule="evenodd" clip-rule="evenodd" fill="#2D2D2D" d="M28.398,29.753c0.119-0.006,0.238-0.012,0.355-0.019
			c0.844,0.684,1.814,0.166,2.719,0.277c0.172,0.021,0.246-0.187,0.279-0.355c0.992-0.064,1.984-0.129,2.977-0.193
			c0.561,0.21,1.129,0.49,1.6-0.168c0.318-0.085,0.639-0.17,0.959-0.254c0.121-0.033,0.24-0.066,0.361-0.101
			c0.014,0.182,0.025,0.362,0.037,0.544c-0.172,0.354-0.445,0.763-0.252,1.108c0.637,1.144,0.455,2.371,0.449,3.574
			c-0.004,0.615-0.039,1.29-0.301,1.82c-0.166,0.336-0.779-0.125-1.184,0.036c-0.182,0.071-0.348,0.179-0.521,0.269
			c-0.219,0.113-0.475,0.163-0.648-0.016c-0.355-0.367-0.795-0.232-1.209-0.277c-1.191-0.129-2.354,0.213-3.541,0.204
			c-6.86-0.052-13.719,0.062-20.58-0.156c-1.675-0.054-1.978-0.863-2.383-2.147c-0.376-1.191,0.422-2.227,0.226-3.359
			c-0.084-0.488,0.086-0.906,0.392-1.277c0.064-0.001,0.127,0.005,0.189,0.019c0.06,0.25,0.128,0.478,0.41,0.161
			c1.391-0.016,2.775,0.088,4.157,0.232c0.771,0.723,1.912,0.803,2.587,0.18c0.198,0.002,0.395,0.004,0.592,0.006
			c0.034,0.165,0.1,0.367,0.277,0.349c0.903-0.093,1.765,0.237,2.657,0.232c0.305-0.001,0.603,0,0.642-0.411
			c0.397,0.005,0.794,0.01,1.191,0.014c-0.013,0.471,0.14,0.564,0.652,0.501c1.809-0.224,3.64-0.122,5.46-0.218
			C27.594,30.294,28.063,30.341,28.398,29.753z"/>
		<path fill-rule="evenodd" clip-rule="evenodd" fill="#2D2D2D" d="M37.297,15.208c-0.805,0.029-1.311-0.213-1.229-1.167
			c0.061-0.696-0.75-1.352-0.104-2.116c0.088-0.103-0.256-0.216-0.412-0.307c-0.443-0.26-0.941-0.227-1.428-0.261
			c-0.148-0.248-0.256-0.493-0.611-0.576c-0.697-0.162-1.377-0.403-2.064-0.611c0.199-0.691,0.25-1.404,0.348-2.112
			c0.127-0.917-0.199-1.201-1.021-1.172c-0.016-0.36-0.029-0.719-0.045-1.079c0.121-1.631-1.121-0.81-1.779-0.944
			c-0.889-0.18-1.053,0.399-0.938,1.134c-0.029,0.263-0.061,0.525-0.09,0.788c-1.912,0.022-3.826,0.053-5.739,0.064
			c-1.837,0.01-3.675,0-5.512-0.001c-0.065-0.334,0.114-0.713-0.18-1.007c-0.027-1.527-1.182-0.641-1.811-0.803
			c-0.849-0.22-0.833,0.438-0.801,1.019c-0.062,0.315-0.123,0.63-0.184,0.946c-1.606,0.473-1.848,0.958-1.245,2.446
			c0.123,0.303,0.176,0.633,0.262,0.951c-0.46,0.335-1.156,0.317-1.418,0.948c-0.161,0.034-0.325,0.06-0.483,0.102
			c-1.645,0.442-1.762,0.586-1.876,2.273c-0.023,0.347,0.08,0.759-0.426,0.871c-0.504,0.132-1.008,0.265-1.513,0.398
			c-0.083,0.041-0.166,0.082-0.249,0.123c-0.194,0.033-0.388,0.066-0.583,0.099c-0.003-0.098-0.012-0.196-0.009-0.294
			c0.016-0.649-0.253-1.074-0.935-1.137c-0.79-0.073-0.745,0.565-0.845,1.051c-0.045,0.221-0.013,0.457-0.015,0.686
			c-0.458,0.002-0.916,0.004-1.373,0.006c0.011-0.19,0.022-0.381,0.033-0.571c0.484-0.559,0.521-1.238,0.211-1.819
			c-0.163-0.306-0.698-0.251-1.046,0.033c-0.401,0.006-0.803,0.012-1.205,0.018c-0.192-0.069-0.167-0.254-0.213-0.4
			c0.629,0,1.259,0,1.889,0c0.022-0.089,0.044-0.177,0.066-0.266c-1.074-0.216-1.462-1.016-1.753-1.899
			c0.104-0.184-0.131-0.762,0.452-0.386c0.435,0.281,0.747,0.216,1.073-0.229c0.58-0.792,1.151-0.768,1.687,0.052
			c0.674,1.031,1.526,1.828,2.789,1.916c0.256,0.018,0.602-0.491,1.021-0.411c0.417,0.08,0.638-0.058,0.978-0.339
			c1.559-1.287,1.736-2.334,0.229-3.521C8.369,7.049,7.546,6.38,6.752,5.716c0.343-0.449,1.143,0.042,1.39-0.662
			C8.471,4.989,8.8,4.923,9.129,4.857C9.443,5.16,9.636,5.066,9.736,4.672c0.128-0.004,0.257-0.008,0.386-0.012
			c0.284,0.29,0.35,0.062,0.414-0.173c0.127-0.006,0.254-0.012,0.381-0.019c0.346,0.267,0.64,0.309,0.805-0.19
			c0.591-0.071,1.182-0.143,1.773-0.214c0.509,0.249,1.009,0.441,1.398-0.191c1.725-0.041,3.452-0.055,5.148-0.429
			c0.525-0.014,1.05-0.028,1.575-0.042c0.285,0.039,0.584,0.144,0.804-0.155c0.66,0.011,1.319,0.022,1.98,0.033
			c0.057,0.342,0.307,0.376,0.586,0.372c0.945-0.016,1.883,0.084,2.822,0.159c0.566,0.044,1.309,0.426,1.773-0.321
			c0.254,0.005,0.506,0.009,0.758,0.014c0.07,0.235,0.145,0.454,0.418,0.16c0.326,0.005,0.652,0.011,0.979,0.016
			c0.578,1.016,1.412,0.549,2.195,0.38c0.26,0.008,0.52,0.016,0.779,0.023c0.186,0.565,0.676,0.482,1.119,0.579
			c0.609,0.132,1.436-0.13,1.684,0.79c-0.451,0.277-1.053,0.364-1.242,0.976C35.539,6.817,34.908,7.3,34.594,8.11
			c-0.285,0.738,0.076,1.218,0.49,1.814c0.418,0.604,0.631,0.419,0.949,0.055c0.494-0.566,1.123-0.799,1.848-0.764
			c1.32,0.065,2.598,0.11,3.193-1.456c0.16-0.42,0.688-0.325,1.057-0.431c0.275-0.08,0.326,0.148,0.328,0.354
			c0.01,1.229,0.387,2.541-0.871,3.467c-0.508,0.374-0.959,0.827-1.439,1.247c0.391,0.465,0.873,0.34,1.32,0.391
			c0.537,0.061,1.125-0.221,1.609,0.222c0,0.058-0.016,0.111-0.045,0.161c-0.32,0.009-0.643,0.018-0.963,0.027
			c-1.203-0.199-2.406-0.4-3.611-0.592c-0.133-0.021-0.271,0.05-0.283,0.204C38.113,13.696,37.316,14.309,37.297,15.208z
			 M37.307,12.387c0.07,0.08,0.113,0.253,0.258,0.073C37.479,12.436,37.393,12.411,37.307,12.387c-0.07-0.05-0.141-0.1-0.211-0.149
			c-0.018,0.025-0.033,0.051-0.049,0.076C37.133,12.338,37.219,12.363,37.307,12.387z M36.531,12.155
			c0.023-0.018,0.045-0.036,0.066-0.054c-0.047-0.023-0.092-0.053-0.141-0.067c-0.016-0.004-0.045,0.033-0.066,0.051
			C36.438,12.108,36.484,12.132,36.531,12.155z"/>
		<path fill-rule="evenodd" clip-rule="evenodd" fill="#424242" d="M8.134,29.263c-0.306,0.371-0.477,0.789-0.392,1.277
			c0.196,1.133-0.602,2.168-0.226,3.359c0.405,1.284,0.708,2.094,2.383,2.147c6.86,0.218,13.72,0.104,20.58,0.156
			c1.188,0.009,2.35-0.333,3.541-0.204c0.414,0.045,0.854-0.09,1.209,0.277c0.174,0.179,0.43,0.129,0.648,0.016
			c0.174-0.09,0.34-0.197,0.521-0.269c0.404-0.161,1.018,0.3,1.184-0.036c0.262-0.53,0.297-1.205,0.301-1.82
			c0.006-1.203,0.188-2.431-0.449-3.574c-0.193-0.346,0.08-0.755,0.252-1.108c0.686,1.513,0.676,3.142,0.785,4.75
			c0.027,0.391,0.016,0.783,0.021,1.175c0.008,0.135,0.014,0.269,0.021,0.402c0,0.923,0.002,1.846,0.002,2.769
			c-0.34,0.114-0.232,0.746-0.752,0.65c-0.297-0.101-0.559-0.023-0.801,0.155c-2.563-0.134-5.111,0.163-7.67,0.184
			c-3.072,0.024-6.145-0.009-9.217,0.011c-3.427,0.022-6.848-0.083-10.263-0.383c-0.493-0.043-1.059-0.224-1.514,0.199
			c-0.323-0.053-0.602-0.297-0.955-0.222H7.343c-0.003-0.257-0.131-0.392-0.389-0.4c-0.058-0.134-0.115-0.269-0.173-0.402
			c0.25-0.336,0.284-0.624-0.178-0.802c-0.039-0.073-0.077-0.146-0.115-0.219c0-0.105-0.001-0.211-0.001-0.315
			c0.083-0.163,0.079-0.324-0.006-0.484c-0.052-2.39,0.421-4.727,0.708-7.083c0.271-0.125,0.167-0.388,0.22-0.594
			c0.111-0.008,0.223-0.016,0.334-0.023C7.873,28.988,8.004,29.125,8.134,29.263z M25.578,39.335
			c-0.012-0.029-0.023-0.06-0.033-0.089c-2.544,0-5.088,0-7.632,0c0,0.029,0.001,0.06,0.001,0.089
			C20.469,39.335,23.023,39.335,25.578,39.335z"/>
		<path fill-rule="evenodd" clip-rule="evenodd" fill="#606060" d="M36.271,6.428c0.189-0.611,0.791-0.699,1.242-0.976
			c0.473-0.023,0.959-0.012,1.277-0.542c-1.373-0.443-2.721-0.661-4.08-0.827c-0.26-0.008-0.52-0.016-0.779-0.023
			c-0.701-0.304-1.449-0.33-2.195-0.38c-0.326-0.005-0.652-0.011-0.979-0.016c-0.094-0.172-0.242-0.202-0.418-0.16
			C30.088,3.5,29.836,3.495,29.582,3.49c-1.33-0.085-2.662-0.169-3.994-0.254c-0.041-0.359-0.301-0.373-0.578-0.374
			c-2.386-0.011-4.772-0.045-7.22,0.306c0.777,0.261,1.569-0.144,2.251,0.276c-1.697,0.374-3.424,0.388-5.148,0.429
			c-0.469,0.041-0.975-0.189-1.398,0.191c-0.591,0.072-1.182,0.143-1.773,0.214c-0.286-0.008-0.594-0.115-0.805,0.19
			c-0.127,0.006-0.254,0.012-0.381,0.018c-0.175-0.03-0.324,0.002-0.414,0.174C9.994,4.664,9.865,4.668,9.736,4.672
			c-0.227-0.019-0.46-0.058-0.607,0.185C8.8,4.923,8.471,4.989,8.142,5.054C7.284,5.138,6.412,5.177,5.747,5.843
			C5.555,5.811,5.349,5.811,5.173,5.738C4.814,5.587,4.532,5.707,4.28,5.942C4.142,6.07,4.165,6.258,4.271,6.389
			c0.223,0.273,0.437,0.69,0.83,0.591c0.467-0.118,1.091-0.187,1.044-0.933c0.769-0.002,1.162,0.426,0.932,1.125
			c-0.292,0.888-2.212,1.13-2.808,0.4C3.569,6.714,2.783,6.152,1.617,6.638c0.007-0.132,0.015-0.264,0.022-0.396
			c0.642-0.023,0.962-0.35,0.939-0.999c0.131-0.249,0.389-0.157,0.589-0.219C4.143,5.156,4.999,4.88,5.757,4.268
			C5.88,4.257,6.004,4.247,6.127,4.236c0.41-0.107,1.023,0.371,1.195-0.417c0.212-0.286,0.533-0.13,0.799-0.198
			c0.259,0.331,0.355,0.158,0.414-0.133c0.127-0.022,0.254-0.044,0.38-0.066c0.26,0.333,0.354,0.156,0.414-0.133
			c0.128-0.02,0.257-0.04,0.385-0.061c0.028,0.39,0.234,0.349,0.545,0.29c2.4-0.458,4.806-0.874,7.239-1.15
			c0.547-0.062,1.36,0.324,1.751-0.478c2.645-0.12,5.289-0.091,7.933,0.005c0.043,0.36,0.313,0.344,0.582,0.377
			c1.486,0.186,2.986,0.312,4.453,0.607c1.33,0.268,2.684,0.35,4.016,0.691c1.139,0.292,2.242,0.74,3.4,0.994
			c0.402,0.088,1.371-0.338,1.447,0.671c-1.01-0.192-1.621,0.22-2.217,1.074C37.906,7.689,37.145,7.653,36.271,6.428z"/>
		<path fill-rule="evenodd" clip-rule="evenodd" fill="#9E9E9E" d="M6.781,38.372c0.058,0.134,0.115,0.269,0.173,0.402
			c-0.014,0.273,0.095,0.427,0.389,0.4h0.001c0.267,0.898,1.067,1.111,1.809,1.349c1.771,0.564,3.621,0.719,5.455,0.794
			c3.495,0.144,6.997,0.221,10.494,0.19c1.645-0.014,3.291-0.173,4.941-0.154c2.086,0.022,4.139-0.185,6.148-0.79
			c0.748-0.226,1.334-0.55,1.572-1.333c0.52,0.096,0.412-0.536,0.752-0.65c0.426,0.643,0.246,1.138-0.338,1.585
			c-1.787,1.371-3.926,1.883-6.055,2.139c-3.994,0.48-8.027,0.565-12.056,0.439c-3.554-0.111-7.1-0.358-10.566-1.218
			c-1.111-0.275-2.15-0.771-2.956-1.65c-0.427-0.465-0.581-0.938-0.19-1.493C6.497,38.379,6.639,38.375,6.781,38.372z"/>
		<path fill-rule="evenodd" clip-rule="evenodd" fill="#424242" d="M1.617,6.638C2.783,6.152,3.569,6.714,4.27,7.573
			c0.595,0.729,2.516,0.487,2.808-0.4c0.229-0.7-0.164-1.127-0.932-1.125C6.013,5.979,5.879,5.912,5.747,5.843
			c0.666-0.666,1.538-0.706,2.395-0.789c-0.247,0.705-1.047,0.213-1.39,0.662C7.546,6.38,8.369,7.049,9.201,7.704
			c1.506,1.187,1.33,2.233-0.229,3.521c-0.34,0.281-0.561,0.418-0.978,0.339c-0.42-0.08-0.766,0.429-1.021,0.411
			c-1.263-0.088-2.115-0.885-2.789-1.916c-0.536-0.819-1.107-0.844-1.687-0.052c-0.326,0.446-0.638,0.51-1.073,0.229
			C0.84,9.86,1.075,10.438,0.972,10.622c-0.109-0.009-0.219-0.018-0.329-0.026C0.717,9.215,0.897,7.86,1.617,6.638z"/>
		<path fill-rule="evenodd" clip-rule="evenodd" fill="#424242" d="M36.271,6.428c0.873,1.225,1.635,1.261,2.594-0.119
			c0.596-0.854,1.207-1.267,2.217-1.074c0.252,0.006,0.502,0.013,0.754,0.019c0.854,1.19,1.057,2.647,1.629,3.952
			c-0.016,0.459-0.031,0.919-0.047,1.378c-0.74,0.738-0.742,1.369-0.002,2.018c0.051,0.272-0.084,0.39-0.338,0.408
			c-0.484-0.443-1.072-0.161-1.609-0.222c-0.447-0.051-0.93,0.074-1.32-0.391c0.48-0.42,0.932-0.873,1.439-1.247
			c1.258-0.926,0.881-2.238,0.871-3.467c-0.002-0.207-0.053-0.435-0.328-0.354c-0.369,0.106-0.896,0.01-1.057,0.431
			c-0.596,1.566-1.873,1.521-3.193,1.456c-0.725-0.035-1.354,0.197-1.848,0.764c-0.318,0.364-0.531,0.549-0.949-0.055
			c-0.414-0.597-0.775-1.077-0.49-1.814C34.908,7.3,35.539,6.817,36.271,6.428z"/>
		<path fill-rule="evenodd" clip-rule="evenodd" fill="#424242" d="M37.297,15.208c0.02-0.899,0.816-1.512,0.879-2.397
			c0.012-0.154,0.15-0.225,0.283-0.204c1.205,0.191,2.408,0.393,3.611,0.592c-0.465,0.842-0.932,1.685-1.396,2.527
			c-1.143,0.128-2.262-0.035-3.375-0.267C37.299,15.375,37.299,15.292,37.297,15.208z"/>
		<path fill-rule="evenodd" clip-rule="evenodd" fill="#717171" d="M41.836,5.254c-0.252-0.006-0.502-0.013-0.754-0.019
			c-0.076-1.009-1.045-0.583-1.447-0.671c-1.158-0.253-2.262-0.702-3.4-0.994c-1.332-0.341-2.686-0.423-4.016-0.691
			c-1.467-0.295-2.967-0.421-4.453-0.607c-0.27-0.034-0.539-0.018-0.582-0.377c2.254-0.154,4.43,0.372,6.641,0.663
			c1.531,0.202,2.971,0.719,4.49,0.906c1.029,0.127,1.932,0.727,2.977,0.87C41.551,4.369,41.924,4.783,41.836,5.254z"/>
		<path fill-rule="evenodd" clip-rule="evenodd" fill="#717171" d="M19.25,1.89c-0.392,0.802-1.205,0.416-1.751,0.478
			c-2.433,0.276-4.838,0.692-7.239,1.15c-0.311,0.059-0.517,0.101-0.545-0.29c1.474-0.612,3.02-0.901,4.604-0.964
			C15.969,2.199,17.575,1.585,19.25,1.89z"/>
		<path fill-rule="evenodd" clip-rule="evenodd" fill="#606060" d="M40.674,15.725c0.465-0.842,0.932-1.685,1.396-2.527
			c0.32-0.009,0.643-0.018,0.963-0.027C42.629,14.983,41.857,15.966,40.674,15.725z"/>
		<path fill-rule="evenodd" clip-rule="evenodd" fill="#424242" d="M4.361,15.521c0.002-0.229-0.03-0.465,0.015-0.686
			c0.1-0.486,0.055-1.124,0.845-1.051c0.682,0.063,0.951,0.487,0.935,1.137c-0.002,0.098,0.006,0.196,0.009,0.294
			C5.588,15.459,4.971,15.473,4.361,15.521z"/>
		<path fill-rule="evenodd" clip-rule="evenodd" fill="#606060" d="M3.021,14.956c-0.011,0.19-0.022,0.381-0.033,0.571
			c-1.121-0.212-1.757-0.954-2.006-2.339c0.402-0.006,0.803-0.012,1.205-0.018C2.134,13.919,2.413,14.515,3.021,14.956z"/>
		<path fill-rule="evenodd" clip-rule="evenodd" fill="#606060" d="M0.643,10.596c0.11,0.009,0.22,0.018,0.329,0.026
			c0.29,0.884,0.679,1.683,1.752,1.899c-0.022,0.088-0.044,0.177-0.066,0.266c-0.629,0-1.259,0-1.889,0
			C0.42,12.074,0.62,11.33,0.643,10.596z"/>
		<path fill-rule="evenodd" clip-rule="evenodd" fill="#606060" d="M7.743,28.852c-0.111,0.008-0.223,0.016-0.334,0.023
			c-0.135-0.801,0.491-1.609-0.024-2.406c-0.153-0.834,0.126-1.612,0.308-2.403c0.495,0.644,0.297,1.407,0.19,2.063
			C7.733,27.043,7.769,27.943,7.743,28.852z"/>
		<path fill-rule="evenodd" clip-rule="evenodd" fill="#717171" d="M5.757,4.268C4.999,4.88,4.143,5.156,3.167,5.024
			C3.935,4.446,4.842,4.343,5.757,4.268z"/>
		<path fill-rule="evenodd" clip-rule="evenodd" fill="#606060" d="M43.416,12.603c-0.74-0.649-0.738-1.28,0.002-2.018
			c0.027,0.613,0.053,1.226,0.08,1.84C43.471,12.483,43.443,12.543,43.416,12.603z"/>
		<path fill-rule="evenodd" clip-rule="evenodd" fill="#9E9E9E" d="M7.384,26.469c0.515,0.797-0.11,1.605,0.024,2.406
			c-0.053,0.206,0.051,0.469-0.22,0.594C7.165,28.463,7.117,27.455,7.384,26.469z"/>
		<path fill-rule="evenodd" clip-rule="evenodd" fill="#717171" d="M2.579,5.244c0.022,0.649-0.298,0.975-0.939,0.999
			C1.589,5.567,2.256,5.568,2.579,5.244z"/>
		<path fill-rule="evenodd" clip-rule="evenodd" fill="#717171" d="M7.323,3.819C7.15,4.607,6.537,4.129,6.127,4.236
			C6.474,3.949,6.852,3.75,7.323,3.819z"/>
		<path fill-rule="evenodd" clip-rule="evenodd" fill="#606060" d="M6.781,38.372c-0.142,0.003-0.284,0.007-0.426,0.01
			c0.006-0.133,0.012-0.266,0.018-0.398c0.211-0.063,0.186-0.258,0.231-0.413C7.065,37.748,7.032,38.036,6.781,38.372z"/>
		<path fill-rule="evenodd" clip-rule="evenodd" fill="#606060" d="M37.65,28.524c-0.521-0.354-0.406-0.792-0.162-1.247
			c0.004,0.137,0.008,0.272,0.012,0.409c0.008,0.103,0.014,0.206,0.021,0.31C37.701,28.139,37.701,28.326,37.65,28.524z"/>
		<path fill-rule="evenodd" clip-rule="evenodd" fill="#9E9E9E" d="M6.604,37.57c-0.045,0.155-0.02,0.351-0.231,0.413
			c-0.319-0.276-0.243-0.48,0.116-0.632C6.527,37.425,6.565,37.497,6.604,37.57z"/>
		<path fill-rule="evenodd" clip-rule="evenodd" fill="#9E9E9E" d="M6.481,36.552c0.084,0.16,0.089,0.321,0.006,0.484
			c-0.095-0.063-0.251-0.111-0.274-0.194C6.163,36.654,6.32,36.585,6.481,36.552z"/>
		<path fill-rule="evenodd" clip-rule="evenodd" fill="#717171" d="M9.33,3.289C9.271,3.578,9.176,3.754,8.917,3.422
			C9.004,3.224,9.16,3.234,9.33,3.289z"/>
		<path fill-rule="evenodd" clip-rule="evenodd" fill="#717171" d="M8.536,3.488C8.478,3.779,8.381,3.952,8.122,3.621
			C8.207,3.41,8.365,3.43,8.536,3.488z"/>
		<path fill-rule="evenodd" clip-rule="evenodd" fill="#9E9E9E" d="M38.514,35.812c-0.008-0.134-0.014-0.268-0.021-0.402
			C38.662,35.535,38.674,35.67,38.514,35.812z"/>
		<path fill-rule="evenodd" clip-rule="evenodd" fill="#717171" d="M37.521,27.996c-0.008-0.104-0.014-0.207-0.021-0.31
			C37.508,27.789,37.514,27.893,37.521,27.996z"/>
		<path fill-rule="evenodd" clip-rule="evenodd" fill="#606060" d="M37.479,26.668c-0.029-0.035-0.063-0.067-0.086-0.106
			c-0.006-0.01,0.025-0.041,0.039-0.063C37.494,26.543,37.51,26.599,37.479,26.668z"/>
		<path fill-rule="evenodd" clip-rule="evenodd" fill="#424242" d="M37.648,28.94c-0.121,0.034-0.24,0.067-0.361,0.101
			c0.082-0.097,0.166-0.193,0.25-0.29C37.574,28.814,37.611,28.878,37.648,28.94z"/>
		<path fill-rule="evenodd" clip-rule="evenodd" fill="#424242" d="M6.748,15.115c0.083-0.042,0.166-0.082,0.249-0.123
			C6.947,15.101,6.872,15.158,6.748,15.115z"/>
		<path fill-rule="evenodd" clip-rule="evenodd" fill="#606060" d="M28.787,12.416c0.344,1.284-0.82,1.045-1.406,1.39
			c-0.293-0.006-0.584-0.016-0.877-0.016c-1.238-0.002-1.283,0.064-0.883,1.266c-0.434,0.19-0.391,0.707-0.693,1.01
			c-0.266,0.265-0.018,0.453,0.287,0.512c0.061,0.059,0.121,0.117,0.182,0.176c-0.002,0.066-0.002,0.132-0.004,0.198
			c-0.139,0.003-0.277,0.007-0.414,0.011c-0.32,0.354-0.121,0.779-0.162,1.171c0.02,0.081,0.041,0.232,0.057,0.231
			c0.176-0.008,0.088-0.146,0.102-0.237l0.037,0.018c0.059-0.002,0.117-0.005,0.178-0.01c0.002,0.201,0.004,0.401,0.006,0.602
			c-0.066,0.062-0.135,0.124-0.201,0.187c-0.023,0.459,0.354,0.387,0.617,0.467c0.066,0.498,0.131,0.995,0.197,1.493
			c-0.365,0.514-1.055,0.986-0.213,1.656c-0.004,0.129-0.008,0.259-0.012,0.389c-0.311,0.407-0.262,0.807,0.025,1.202l-0.006,0.061
			c0.209,0.543-0.486,0.813-0.398,1.318c-0.342,0.283-0.672,0.104-1-0.031c0.094-0.395-0.911-0.391-0.348-0.956
			c0.502-0.557,0.678-1.062-0.222-1.396c-0.01-0.199-0.02-0.398-0.028-0.597c0.793-0.385,0.538-0.912,0.194-1.45
			c0.184-0.565-0.173-1.064-0.198-1.604c0.399-0.457,0.282-0.915-0.001-1.372c0.004-0.522,0.008-1.045,0.012-1.567
			c0.146-0.18,0.457-0.248,0.388-0.572c-0.127-0.601,0.393-1.405-0.551-1.748c-0.385-0.474-1.648-0.695-1.925-0.261
			c-0.213,0.333-0.865,0.689-0.267,1.237c-0.014,0.049-0.031,0.096-0.052,0.142c-0.351,0.46-0.125,0.71,0.329,0.838
			c0.267,0.075,0.613-0.029,0.701,0.374c-0.336,0.043-0.772-0.105-0.84,0.444c-0.155,0.025-0.385-0.005-0.452,0.085
			c-0.303,0.402,0.063,2.085,0.494,2.413c-0.017,0.162-0.034,0.324-0.052,0.486c-0.268-0.023-0.581,0.169-0.478,0.34
			c0.42,0.699-0.39,1.666,0.517,2.224c0.17,0.589-0.504,1.085-0.184,1.69c-0.273,0.386-0.107,0.846-0.213,1.259
			c-0.412,0.063-0.816,0.294-1.24,0.052c0.162-0.509-0.109-0.899-0.354-1.297c0.002-0.531,0.005-1.062,0.008-1.592
			c1.03-0.541,0.122-1.061-0.017-1.589c-0.035-0.407-0.333-0.333-0.596-0.326c0.379-0.309,0.72-0.638,0.614-1.197
			c0.189-0.26,0.746-0.258,0.561-0.785c0.05-0.285,0.078-0.577,0.156-0.855c0.137-0.488-0.123-0.569-0.512-0.543
			c-0.019-0.152-0.037-0.303-0.055-0.454c-0.051-0.119-0.103-0.238-0.155-0.356c0.028-0.423,0.492-0.848-0.003-1.27
			c0.002-0.132-0.011-0.266,0.01-0.395c0.134-0.829-0.125-1.179-1.047-1.135c-1.222,0.058-1.318-0.11-1.342-1.345
			C20.968,12.405,24.877,12.411,28.787,12.416z"/>
		<path fill-rule="evenodd" clip-rule="evenodd" fill="#424242" d="M31.449,10.17c0.688,0.208,1.367,0.449,2.064,0.611
			c0.355,0.083,0.463,0.328,0.611,0.576c-0.445,0.508-0.938,0.034-1.361-0.012c-2.695-0.293-5.395-0.112-8.09-0.15
			c-2.736-0.039-5.472,0-8.207,0.004c0.028-0.423-0.056-0.852,0.128-1.267c0.1-0.226,0.095-0.519-0.273-0.434
			c-0.637,0.147-1.312,0.076-1.926,0.363c-0.557,0.261-0.688,0.597-0.235,1.052c0.14,0.141,0.318,0.235,0.307,0.466
			c-1.057-0.01-2.114-0.021-3.172-0.031c0.262-0.631,0.958-0.614,1.418-0.949c0.438-0.007,0.806-0.133,0.975-0.587
			c-0.004-0.075-0.008-0.149-0.013-0.223c0.007-0.862,0.015-1.725,0.021-2.587c0.062-0.315,0.123-0.631,0.184-0.946
			c0.883,0.077,1.745-0.106,2.612-0.216c0.294,0.294,0.114,0.673,0.18,1.007c0.005,0.121,0.01,0.241,0.015,0.361
			c-0.446,0.433-0.519,0.797,0.186,1.021c-0.039,0.522,0.072,0.945,0.718,0.903C19.658,8.998,21.718,8.624,23.797,9
			c0.183,0.033,0.398-0.017,0.578-0.083c0.979-0.358,1.973-0.539,3.01-0.3c-0.285,0.509,0.602,1.093-0.1,1.575
			c0.24,0.232,0.588,0.101,0.887,0.317c0.326,0.236,0.555-0.135,0.604-0.502c0.744,0.041,1.488,0.082,2.232,0.123
			C31.154,10.143,31.301,10.156,31.449,10.17z"/>
		<path fill-rule="evenodd" clip-rule="evenodd" fill="#9E9E9E" d="M19.791,25.54c0.424,0.242,0.828,0.011,1.24-0.052
			c1.059,0.071,2.116,0.111,3.174-0.011c0.328,0.136,0.658,0.314,1,0.031c0.979,0.253,1.982,0.126,2.973,0.18
			c-0.004,0.33-0.031,0.661-0.006,0.988c0.092,1.188,0.1,1.188-1.152,1.188c-3-0.002-6-0.006-9-0.005
			c-1.449,0-1.578-0.161-1.244-1.593c0.03-0.128,0.064-0.256,0.096-0.383c0.271-0.049,0.591,0.07,0.787-0.232
			C18.369,25.623,19.089,25.755,19.791,25.54z"/>
		<path fill-rule="evenodd" clip-rule="evenodd" fill="#606060" d="M27.543,14.15c0.982,0.226,1.287,0.641,1.117,1.526
			c-0.006,0.028-0.043,0.049-0.064,0.073c1.15,0.99-0.545,2.038,0.096,3.194c0.357,0.649,0.785,1.216,1.209,1.799
			c0.229,0.314,0.648,0.548,0.07,0.914c-0.178,0.113-0.248,0.342-0.195,0.53c0.352,1.22-0.781,1.682-1.254,2.476
			c-0.031,0.052-0.188,0.028-0.287,0.039c-0.148-0.196-0.295-0.394-0.443-0.59c-0.004-0.54-0.008-1.079-0.012-1.619
			c0.754-0.734,0.09-1.454-0.023-2.179c-0.289-0.272-0.109-0.633-0.182-0.947c0.445-0.344-0.02-0.842,0.207-1.223
			c-0.084-0.344,0.229-0.818-0.332-1.004c-0.021-0.195-0.043-0.39-0.066-0.584c0.896-0.346,0.391-0.893,0.201-1.394
			c0.037-0.299-0.066-0.561-0.217-0.809C27.426,14.284,27.484,14.217,27.543,14.15z"/>
		<path fill-rule="evenodd" clip-rule="evenodd" fill="#424242" d="M28.787,12.416c-3.91-0.005-7.819-0.011-11.729-0.016
			c-0.395-0.086-0.851,0.172-1.191-0.214c0.528-0.001,1.056-0.018,1.583,0.002c0.412,0.015,0.614-0.163,0.64-0.563
			c0.511-0.004,1.023-0.008,1.534-0.012c0.046,0.147,0.083,0.304,0.273,0.328c0.245,0.031,0.312-0.143,0.364-0.329
			c2.53-0.001,5.066-0.111,7.588,0.034c1.867,0.107,3.73,0.126,5.598,0.153c0.416,0.006,0.719,0.08,0.715,0.574
			c-0.012,0.136-0.025,0.271-0.035,0.406C32.361,12.451,30.578,12.369,28.787,12.416z"/>
		<path fill-rule="evenodd" clip-rule="evenodd" fill="#424242" d="M13.7,12.401c-0.651,0.06-1.309,0.205-1.953,0.156
			c-0.72-0.054-0.963,0.214-1.02,0.884c-0.244,2.899-0.686,5.777-0.846,8.688c-0.061,1.11-0.135,2.223-0.171,3.336
			c-0.361,0-0.398-0.245-0.394-0.521c0.004-0.294,0.02-0.594-0.372-0.666c0.25-1.821,0.24-3.663,0.409-5.488
			c0.193-2.087,0.52-4.161,0.783-6.242c0.053-0.417,0.316-0.539,0.689-0.544c0.693-0.009,1.386-0.024,2.079-0.037
			C13.064,12.304,13.542,12.058,13.7,12.401z"/>
		<path fill-rule="evenodd" clip-rule="evenodd" fill="#606060" d="M35.543,28.16c-0.008-2.075-0.172-3.933-0.34-5.793
			c-0.256-2.805-0.555-5.598-1.027-8.374c-0.045-0.258,0.037-0.502,0.313-0.512c0.268-0.01,0.221,0.27,0.242,0.455
			c0.191,1.69,0.49,3.363,0.619,5.066c0.199,2.62,0.563,5.227,0.854,7.839c0.041,0.357,0.076,0.716,0.107,1.074
			c0.035,0.404-0.203,0.686-0.557,0.67C35.199,28.56,35.527,28.198,35.543,28.16z"/>
		<path fill-rule="evenodd" clip-rule="evenodd" fill="#606060" d="M8.943,24.278c0.392,0.072,0.376,0.372,0.372,0.666
			c-0.004,0.276,0.033,0.521,0.394,0.521c0.001,0.033,0.008,0.066,0.004,0.1c-0.337,2.803-0.721,2.791,2.509,2.904
			c2.365,0.082,4.727,0.265,7.089,0.41c0.077,0.004,0.148,0.088,0.309,0.188c-0.654,0.337-1.202-0.048-1.753-0.035
			c-2.701,0.063-5.392-0.191-8.083-0.384c-0.68-0.049-1.05-0.345-1.075-1.123C8.673,26.429,8.974,25.367,8.943,24.278z"/>
		<path fill-rule="evenodd" clip-rule="evenodd" fill="#2D2D2D" d="M19.791,25.54c-0.702,0.215-1.421,0.083-2.132,0.112
			c-0.285-0.269-0.653-0.112-0.975-0.191c0.308-0.721,0.057-1.528,0.317-2.374c0.466,0.37-0.067,1.332,0.866,1.227
			c0.52-0.059,1.046-0.049,1.57-0.07C19.681,24.641,19.953,25.031,19.791,25.54z"/>
		<path fill-rule="evenodd" clip-rule="evenodd" fill="#424242" d="M28.398,29.753c-0.336,0.588-0.805,0.541-1.449,0.574
			c-1.82,0.096-3.652-0.006-5.46,0.218c-0.513,0.063-0.665-0.03-0.652-0.501c0.304-0.299,0.688-0.173,1.038-0.18
			C24.049,29.822,26.227,29.931,28.398,29.753z"/>
		<path fill-rule="evenodd" clip-rule="evenodd" fill="#606060" d="M14.467,11.379c0.011-0.231-0.167-0.326-0.307-0.466
			c-0.453-0.456-0.322-0.791,0.235-1.052c0.614-0.288,1.289-0.216,1.926-0.363c0.368-0.084,0.373,0.208,0.273,0.434
			c-0.184,0.416-0.1,0.844-0.128,1.267C15.815,11.428,15.143,11.423,14.467,11.379z"/>
		<path fill-rule="evenodd" clip-rule="evenodd" fill="#2D2D2D" d="M27.791,24.111c0.148,0.196,0.295,0.394,0.443,0.59
			c-0.014,0.071-0.027,0.143-0.043,0.214c-0.029,0.012-0.059,0.023-0.088,0.035c0.031,0.029,0.061,0.059,0.09,0.087
			c0.346,0.227,0.059,0.437-0.016,0.651c-0.99-0.054-1.994,0.073-2.973-0.18c-0.088-0.506,0.607-0.775,0.398-1.317
			C26.32,23.84,27.078,24.571,27.791,24.111z"/>
		<path fill-rule="evenodd" clip-rule="evenodd" fill="#2D2D2D" d="M19.428,21.062c0.139,0.528,1.047,1.048,0.017,1.589
			c-0.401,0.026-0.802,0.052-1.203,0.078c-0.26-0.005-0.52-0.01-0.78-0.014c-0.765-0.317-0.251-0.878-0.255-1.341
			c0.019-0.078,0.037-0.155,0.054-0.233c0.398-0.027,0.801,0.313,1.194-0.019c0.176-0.028,0.352-0.057,0.528-0.085
			C19.131,21.045,19.28,21.054,19.428,21.062z"/>
		<path fill-rule="evenodd" clip-rule="evenodd" fill="#2D2D2D" d="M20.007,18.754c0.185,0.527-0.372,0.525-0.561,0.785
			c-0.662,0.011-1.324,0.021-1.985,0.032c-0.176-0.323-0.706-0.406-0.455-1.026c0.256-0.633,0.692-0.359,1.057-0.396
			c0.521-0.054,1.051-0.025,1.578-0.031C19.664,18.387,19.612,18.699,20.007,18.754z"/>
		<path fill-rule="evenodd" clip-rule="evenodd" fill="#2D2D2D" d="M19.438,15.275c0.496,0.422,0.032,0.846,0.003,1.27
			c-0.656,0.009-1.312,0.018-1.967,0.026c-0.476-0.209-0.3-0.55-0.209-0.902c0.11-0.424,0.429-0.318,0.706-0.332
			C18.46,15.313,18.95,15.295,19.438,15.275z"/>
		<path fill-rule="evenodd" clip-rule="evenodd" fill="#606060" d="M13.7,12.401c-0.158-0.343-0.636-0.097-0.797-0.434
			c0.435-0.338,0.944-0.176,1.411-0.166c1.265,0.028,2.519-0.092,3.776-0.178c-0.026,0.401-0.228,0.579-0.64,0.564
			c-0.527-0.02-1.055-0.003-1.583-0.002c-0.582-0.256-1.102-0.035-1.594,0.243C14.049,12.557,13.882,12.626,13.7,12.401z"/>
		<path fill-rule="evenodd" clip-rule="evenodd" fill="#9E9E9E" d="M27.543,14.15c-0.059,0.067-0.117,0.134-0.176,0.201
			c-0.779-0.115-0.811,0.405-0.807,0.953c-0.313-0.083-0.627-0.166-0.939-0.249c-0.4-1.202-0.355-1.268,0.883-1.266
			c0.293,0,0.584,0.01,0.877,0.016C27.436,13.921,27.49,14.036,27.543,14.15z"/>
		<path fill-rule="evenodd" clip-rule="evenodd" fill="#9E9E9E" d="M17.461,19.571c0.662-0.01,1.323-0.021,1.985-0.032
			c0.105,0.559-0.235,0.888-0.614,1.197c0.05,0.1,0.101,0.2,0.15,0.301c-0.176,0.028-0.352,0.057-0.528,0.085
			c0.063-0.421-0.151-0.688-0.531-0.763C17.437,20.262,17.47,19.917,17.461,19.571z"/>
		<path fill-rule="evenodd" clip-rule="evenodd" fill="#424242" d="M19.645,30.03c-0.039,0.411-0.337,0.41-0.642,0.411
			c-0.892,0.005-1.754-0.325-2.657-0.232c-0.177,0.019-0.243-0.184-0.277-0.349C17.262,29.908,18.468,29.666,19.645,30.03z"/>
		<path fill-rule="evenodd" clip-rule="evenodd" fill="#9E9E9E" d="M17.475,16.571c0.656-0.009,1.312-0.018,1.967-0.026
			c0.052,0.119,0.104,0.238,0.155,0.356C18.579,17.598,17.685,17.459,17.475,16.571z"/>
		<path fill-rule="evenodd" clip-rule="evenodd" fill="#424242" d="M15.477,29.854c-0.675,0.623-1.816,0.543-2.587-0.18
			C13.753,29.729,14.638,29.462,15.477,29.854z"/>
		<path fill-rule="evenodd" clip-rule="evenodd" fill="#606060" d="M32.303,28.751c-1.387,0.018-2.732,0.505-4.236,0.224
			C29.533,28.432,30.938,28.748,32.303,28.751z"/>
		<path fill-rule="evenodd" clip-rule="evenodd" fill="#424242" d="M31.752,29.656c-0.033,0.169-0.107,0.377-0.279,0.355
			c-0.904-0.111-1.875,0.406-2.719-0.277C29.754,29.709,30.754,29.683,31.752,29.656z"/>
		<path fill-rule="evenodd" clip-rule="evenodd" fill="#9E9E9E" d="M17.462,22.715c0.26,0.004,0.52,0.009,0.78,0.014
			c0.057,0.114,0.089,0.256,0.177,0.338c0.255,0.238,0.372,0.532,0.067,0.74c-0.313,0.214-0.421-0.174-0.583-0.354
			C17.709,23.237,17.469,23.045,17.462,22.715z"/>
		<path fill-rule="evenodd" clip-rule="evenodd" fill="#606060" d="M23.877,29.05c-0.629,0.279-1.267,0.229-2.19,0.062
			C22.596,28.749,23.235,28.812,23.877,29.05z"/>
		<path fill-rule="evenodd" clip-rule="evenodd" fill="#424242" d="M20.007,18.754c-0.395-0.055-0.344-0.367-0.366-0.637
			c0.003-0.254,0.007-0.508,0.01-0.762c0.389-0.026,0.649,0.055,0.512,0.543C20.085,18.177,20.058,18.469,20.007,18.754z"/>
		<path fill-rule="evenodd" clip-rule="evenodd" fill="#606060" d="M16.077,17.096c0.535,0.259,0.693,0.599,0.525,1.061
			c-0.043,0.118-0.206,0.198-0.321,0.108C15.902,17.973,16.13,17.567,16.077,17.096z"/>
		<path fill-rule="evenodd" clip-rule="evenodd" fill="#424242" d="M36.328,29.295c-0.471,0.658-1.039,0.378-1.6,0.168
			C35.23,29.11,35.789,29.301,36.328,29.295z"/>
		<path fill-rule="evenodd" clip-rule="evenodd" fill="#424242" d="M17.261,21.141c-0.018,0.078-0.036,0.155-0.054,0.233
			c-0.605-0.315-0.245-0.837-0.364-1.404C17.421,20.327,17.194,20.78,17.261,21.141z"/>
		<path fill-rule="evenodd" clip-rule="evenodd" fill="#606060" d="M16.683,25.461c0.322,0.079,0.69-0.077,0.975,0.191
			c-0.196,0.303-0.516,0.184-0.787,0.232C16.706,25.789,16.678,25.633,16.683,25.461z"/>
		<path fill-rule="evenodd" clip-rule="evenodd" fill="#606060" d="M20.262,11.613c-0.052,0.186-0.119,0.359-0.364,0.329
			c-0.191-0.024-0.228-0.181-0.273-0.328C19.837,11.613,20.049,11.613,20.262,11.613z"/>
		<path fill-rule="evenodd" clip-rule="evenodd" fill="#424242" d="M8.733,29.442c-0.282,0.316-0.35,0.089-0.41-0.161
			C8.488,29.264,8.638,29.284,8.733,29.442z"/>
		<path fill-rule="evenodd" clip-rule="evenodd" fill="#606060" d="M34.127,12.78c0.01-0.135,0.023-0.271,0.035-0.406
			c0.096,0.06,0.264,0.11,0.273,0.182C34.467,12.768,34.271,12.758,34.127,12.78z"/>
		<path fill-rule="evenodd" clip-rule="evenodd" fill="#2D2D2D" d="M17.333,14.716c0.019,0.009,0.053,0.017,0.054,0.026
			c0.001,0.026-0.013,0.052-0.021,0.078c-0.019-0.009-0.054-0.017-0.054-0.026C17.312,14.769,17.326,14.742,17.333,14.716z"/>
		<path fill-rule="evenodd" clip-rule="evenodd" fill="#606060" d="M28.193,25.037c-0.029-0.028-0.059-0.058-0.09-0.087
			c0.029-0.012,0.059-0.023,0.088-0.035C28.189,24.956,28.189,24.997,28.193,25.037z"/>
		<path fill-rule="evenodd" clip-rule="evenodd" fill="#424242" d="M30.73,5.807c0.016,0.36,0.029,0.719,0.045,1.079
			c0.059,0.907,0.119,1.814,0.178,2.721c-0.926,0.003-1.854,0.006-2.779,0.009c-0.42-0.778,0.16-1.654-0.24-2.434
			c-0.004-0.132-0.006-0.265-0.01-0.397c0.029-0.263,0.061-0.525,0.09-0.788C28.924,6.009,29.846,6.167,30.73,5.807z"/>
		<path fill-rule="evenodd" clip-rule="evenodd" fill="#9E9E9E" d="M27.924,6.785c0.004,0.132,0.006,0.265,0.01,0.397
			c-1.635-0.006-3.273,0.174-4.905-0.165c-0.322-0.067-0.81-0.248-1.012,0.296c-0.722-0.022-1.442-0.043-2.163-0.065
			c-0.339,0.004-0.678,0.009-1.017,0.013c-0.386,0.001-0.773,0.002-1.159,0.003c-0.33-0.019-0.66-0.037-0.99-0.055
			c-0.005-0.121-0.01-0.241-0.015-0.361c1.837,0.001,3.675,0.011,5.512,0.001C24.098,6.837,26.012,6.807,27.924,6.785z"/>
		<path fill-rule="evenodd" clip-rule="evenodd" fill="#9E9E9E" d="M13.697,7.002c-0.007,0.862-0.014,1.725-0.021,2.587
			c-0.163,0.084-0.153,0.158,0.013,0.223c-0.169,0.454-0.536,0.58-0.975,0.587c-0.085-0.318-0.139-0.648-0.262-0.951
			C11.849,7.96,12.091,7.475,13.697,7.002z"/>
		<path fill-rule="evenodd" clip-rule="evenodd" fill="#717171" d="M30.73,5.807c-0.885,0.36-1.807,0.202-2.717,0.19
			c-0.115-0.735,0.049-1.314,0.938-1.134C29.609,4.997,30.852,4.175,30.73,5.807z"/>
		<path fill-rule="evenodd" clip-rule="evenodd" fill="#717171" d="M20.042,3.444c-0.682-0.42-1.474-0.015-2.251-0.276
			c2.447-0.351,4.833-0.317,7.22-0.306c0.277,0.001,0.537,0.015,0.578,0.375c-0.396,0.015-0.791,0.029-1.188,0.044
			c-0.661-0.011-1.32-0.022-1.98-0.033c-0.329-0.266-0.618-0.325-0.804,0.154C21.091,3.416,20.566,3.43,20.042,3.444z"/>
		<path fill-rule="evenodd" clip-rule="evenodd" fill="#9E9E9E" d="M30.953,9.606c-0.059-0.907-0.119-1.814-0.178-2.721
			c0.822-0.028,1.148,0.255,1.021,1.172c-0.098,0.708-0.148,1.421-0.348,2.112c-0.148-0.014-0.295-0.027-0.441-0.04
			C30.99,9.956,30.973,9.781,30.953,9.606z"/>
		<path fill-rule="evenodd" clip-rule="evenodd" fill="#717171" d="M16.493,5.84c-0.868,0.11-1.729,0.292-2.612,0.216
			c-0.032-0.581-0.047-1.239,0.801-1.019C15.311,5.2,16.466,4.313,16.493,5.84z"/>
		<path fill-rule="evenodd" clip-rule="evenodd" fill="#424242" d="M24.4,3.281c0.396-0.015,0.791-0.029,1.188-0.044
			c1.332,0.084,2.664,0.168,3.994,0.253c-0.465,0.748-1.207,0.366-1.773,0.321c-0.939-0.075-1.877-0.175-2.822-0.159
			C24.707,3.657,24.457,3.623,24.4,3.281z"/>
		<path fill-rule="evenodd" clip-rule="evenodd" fill="#424242" d="M34.711,4.083c1.359,0.166,2.707,0.384,4.08,0.827
			c-0.318,0.529-0.805,0.519-1.277,0.542c-0.248-0.919-1.074-0.657-1.684-0.789C35.387,4.566,34.896,4.648,34.711,4.083z"/>
		<path fill-rule="evenodd" clip-rule="evenodd" fill="#424242" d="M3.021,14.956c-0.608-0.441-0.887-1.036-0.834-1.786
			c0.348-0.284,0.883-0.339,1.046-0.033C3.542,13.718,3.505,14.396,3.021,14.956z"/>
		<path fill-rule="evenodd" clip-rule="evenodd" fill="#424242" d="M31.736,3.68c0.746,0.05,1.494,0.076,2.195,0.38
			C33.148,4.229,32.314,4.696,31.736,3.68z"/>
		<path fill-rule="evenodd" clip-rule="evenodd" fill="#424242" d="M13.495,4.063c0.423-0.38,0.929-0.15,1.398-0.191
			C14.504,4.505,14.004,4.312,13.495,4.063z"/>
		<path fill-rule="evenodd" clip-rule="evenodd" fill="#424242" d="M10.917,4.468c0.211-0.305,0.52-0.199,0.805-0.19
			C11.556,4.777,11.263,4.735,10.917,4.468z"/>
		<path fill-rule="evenodd" clip-rule="evenodd" fill="#606060" d="M21.617,3.402c0.186-0.479,0.475-0.42,0.804-0.154
			C22.201,3.546,21.902,3.441,21.617,3.402z"/>
		<path fill-rule="evenodd" clip-rule="evenodd" fill="#424242" d="M9.129,4.857c0.146-0.243,0.38-0.204,0.607-0.185
			C9.636,5.066,9.443,5.16,9.129,4.857z"/>
		<path fill-rule="evenodd" clip-rule="evenodd" fill="#424242" d="M30.34,3.504c0.176-0.042,0.324-0.012,0.418,0.16
			C30.484,3.958,30.41,3.739,30.34,3.504z"/>
		<path fill-rule="evenodd" clip-rule="evenodd" fill="#424242" d="M10.122,4.66c0.09-0.171,0.239-0.204,0.414-0.174
			C10.472,4.722,10.406,4.95,10.122,4.66z"/>
		<path fill-rule="evenodd" clip-rule="evenodd" fill="#424242" d="M37.307,12.387c-0.088-0.024-0.174-0.049-0.26-0.074
			c0.016-0.025,0.031-0.05,0.049-0.076C37.166,12.288,37.236,12.337,37.307,12.387L37.307,12.387z"/>
		<path fill-rule="evenodd" clip-rule="evenodd" fill="#424242" d="M37.307,12.387c0.086,0.024,0.172,0.049,0.258,0.074
			C37.42,12.641,37.377,12.467,37.307,12.387L37.307,12.387z"/>
		<path fill-rule="evenodd" clip-rule="evenodd" fill="#717171" d="M36.531,12.156c-0.047-0.024-0.094-0.047-0.141-0.071
			c0.021-0.018,0.051-0.055,0.066-0.051c0.049,0.014,0.094,0.044,0.141,0.067C36.576,12.12,36.555,12.138,36.531,12.156z"/>
		<path fill-rule="evenodd" clip-rule="evenodd" fill="#606060" d="M37.764,39.23c-0.238,0.783-0.824,1.107-1.572,1.333
			c-2.01,0.605-4.063,0.813-6.148,0.79c-1.65-0.019-3.297,0.141-4.941,0.154c-3.497,0.03-6.999-0.047-10.494-0.19
			c-1.834-0.075-3.684-0.229-5.455-0.794c-0.742-0.237-1.542-0.45-1.809-1.349c0.353-0.075,0.632,0.169,0.955,0.222
			c0.972,0.965,2.247,0.719,3.401,0.753c2.707,0.08,5.417,0.028,8.126,0.025c0.952-0.001,1.894,0.401,2.843,0.137
			c0.756-0.211,1.52-0.189,2.26-0.108c1.535,0.168,3.068,0.154,4.604,0.17c0.756,0.008,1.486-0.345,2.252-0.15
			c1.492,0.377,2.936-0.038,4.387-0.284c0.322-0.055,0.615-0.242,0.791-0.553C37.205,39.207,37.467,39.13,37.764,39.23z"/>
		<path fill-rule="evenodd" clip-rule="evenodd" fill="#2D2D2D" d="M36.963,39.386c-0.176,0.311-0.469,0.498-0.791,0.553
			c-1.451,0.246-2.895,0.661-4.387,0.284c-0.766-0.194-1.496,0.158-2.252,0.15c-1.535-0.016-3.068-0.002-4.604-0.17
			c-0.74-0.081-1.504-0.103-2.26,0.108c-0.949,0.265-1.892-0.138-2.843-0.137c-2.709,0.003-5.419,0.055-8.126-0.025
			c-1.154-0.034-2.429,0.212-3.401-0.753c0.455-0.423,1.021-0.242,1.514-0.199c3.416,0.3,6.836,0.405,10.263,0.383
			c3.072-0.02,6.145,0.014,9.217-0.011C31.852,39.549,34.4,39.252,36.963,39.386z"/>
		<path fill-rule="evenodd" clip-rule="evenodd" fill="#606060" d="M25.578,39.335c-2.555,0-5.109,0-7.664,0
			c0-0.029-0.001-0.06-0.001-0.089c2.544,0,5.087,0,7.632,0C25.555,39.275,25.566,39.306,25.578,39.335z"/>
		<path fill-rule="evenodd" clip-rule="evenodd" fill="#606060" d="M7.343,39.175c-0.294,0.026-0.403-0.127-0.389-0.4
			C7.212,38.783,7.34,38.918,7.343,39.175z"/>
		<path fill-rule="evenodd" clip-rule="evenodd" fill="#717171" d="M5.747,5.843c0.133,0.068,0.266,0.136,0.399,0.204
			C6.192,6.793,5.568,6.862,5.101,6.98C4.708,7.08,4.495,6.662,4.271,6.389C4.165,6.258,4.142,6.07,4.28,5.942
			c0.252-0.235,0.535-0.354,0.894-0.204C5.349,5.811,5.555,5.811,5.747,5.843z"/>
		<path fill-rule="evenodd" clip-rule="evenodd" fill="#2D2D2D" d="M21.427,22.539c-0.907-0.558-0.097-1.525-0.517-2.224
			c-0.103-0.171,0.21-0.363,0.479-0.34c-0.134,0.957,0.304,1.31,1.228,1.185c0.392-0.053,0.789-0.055,1.185-0.081
			c0.343,0.538,0.599,1.065-0.194,1.45C22.88,22.532,22.154,22.536,21.427,22.539z"/>
		<path fill-rule="evenodd" clip-rule="evenodd" fill="#2D2D2D" d="M21.44,19.488c-0.431-0.328-0.797-2.011-0.494-2.413
			c0.067-0.091,0.297-0.06,0.452-0.085c-0.133,0.952,0.293,1.31,1.219,1.172c0.324-0.048,0.657-0.041,0.985-0.058
			c0.283,0.457,0.4,0.915,0.001,1.372C22.882,19.48,22.162,19.484,21.44,19.488z"/>
		<path fill-rule="evenodd" clip-rule="evenodd" fill="#717171" d="M21.427,22.539c0.727-0.003,1.453-0.007,2.18-0.01
			c0.009,0.199,0.019,0.398,0.028,0.597c-0.02,0.377-0.039,0.754-0.059,1.131c-0.777-0.009-1.556-0.019-2.333-0.027
			C20.923,23.625,21.597,23.128,21.427,22.539z"/>
		<path fill-rule="evenodd" clip-rule="evenodd" fill="#2D2D2D" d="M27.756,20.313c0.113,0.725,0.777,1.445,0.023,2.179
			c-0.729,0.016-1.457,0.031-2.184,0.047c-0.842-0.669-0.152-1.142,0.213-1.656C27.033,21.417,27.713,21.217,27.756,20.313z"/>
		<path fill-rule="evenodd" clip-rule="evenodd" fill="#717171" d="M25.596,22.54c0.727-0.016,1.455-0.031,2.184-0.047
			c0.004,0.54,0.008,1.079,0.012,1.619c-0.713,0.46-1.471-0.271-2.188,0.08c0-0.001,0.006-0.062,0.006-0.063
			c-0.008-0.4-0.018-0.801-0.025-1.201C25.588,22.798,25.592,22.669,25.596,22.54z"/>
		<path fill-rule="evenodd" clip-rule="evenodd" fill="#717171" d="M21.44,19.488c0.722-0.004,1.442-0.008,2.163-0.012
			c0.025,0.539,0.382,1.038,0.198,1.603c-0.396,0.025-0.793,0.027-1.185,0.08c-0.924,0.125-1.361-0.228-1.228-1.185
			C21.406,19.813,21.423,19.65,21.44,19.488z"/>
		<path fill-rule="evenodd" clip-rule="evenodd" fill="#2D2D2D" d="M25.621,15.056c0.313,0.083,0.627,0.166,0.939,0.249
			c0.357,0.075,0.701,0.037,1.023-0.144c0.189,0.501,0.695,1.048-0.201,1.394c-0.652,0.018-1.305,0.036-1.957,0.054
			c-0.07-0.01-0.141-0.021-0.211-0.031c-0.305-0.059-0.553-0.247-0.287-0.512C25.23,15.762,25.188,15.246,25.621,15.056z"/>
		<path fill-rule="evenodd" clip-rule="evenodd" fill="#717171" d="M23.602,18.104c-0.328,0.018-0.661,0.01-0.985,0.058
			c-0.926,0.138-1.352-0.22-1.219-1.172c0.067-0.549,0.504-0.401,0.84-0.444c0.458-0.003,0.917-0.006,1.376-0.009
			C23.61,17.059,23.606,17.582,23.602,18.104z"/>
		<path fill-rule="evenodd" clip-rule="evenodd" fill="#2D2D2D" d="M21.244,24.229c0.777,0.009,1.556,0.019,2.333,0.027
			c0.094,0.088,0.187,0.177,0.28,0.265c-0.563,0.565,0.442,0.562,0.348,0.956c-1.058,0.122-2.116,0.082-3.174,0.011
			C21.136,25.075,20.97,24.615,21.244,24.229z"/>
		<path fill-rule="evenodd" clip-rule="evenodd" fill="#717171" d="M27.756,20.313c-0.043,0.904-0.723,1.104-1.947,0.57
			c-0.066-0.498-0.131-0.995-0.197-1.493c0.656,0.157,1.311,0.084,1.963-0.024C27.646,19.68,27.467,20.042,27.756,20.313z"/>
		<path fill-rule="evenodd" clip-rule="evenodd" fill="#2D2D2D" d="M27.574,19.367c-0.652,0.108-1.307,0.181-1.963,0.024
			c-0.264-0.08-0.641-0.007-0.617-0.467c0.143-0.023,0.283-0.047,0.426-0.07c-0.074-0.039-0.15-0.078-0.225-0.116
			c-0.002-0.201-0.004-0.401-0.006-0.602c0.863,0.003,1.727,0.005,2.592,0.008C27.555,18.524,28.02,19.023,27.574,19.367z"/>
		<path fill-rule="evenodd" clip-rule="evenodd" fill="#717171" d="M21.259,15.192c-0.599-0.548,0.054-0.903,0.267-1.237
			c0.276-0.434,1.54-0.213,1.925,0.261c-0.166,0.36-0.332,0.721-0.497,1.083c-0.288,0-0.575,0-0.863,0
			C21.873,14.804,21.539,15.208,21.259,15.192z"/>
		<path fill-rule="evenodd" clip-rule="evenodd" fill="#2D2D2D" d="M22.09,15.299c0.288,0,0.575,0,0.863,0
			c0.572-0.129,0.589,0.617,1.048,0.666c0.068,0.324-0.242,0.393-0.388,0.572c-0.459,0.003-0.918,0.006-1.376,0.009
			c-0.088-0.403-0.435-0.298-0.701-0.374c-0.454-0.128-0.68-0.378-0.329-0.838C21.501,15.323,21.796,15.311,22.09,15.299z"/>
		<path fill-rule="evenodd" clip-rule="evenodd" fill="#717171" d="M27.781,18.144c-0.865-0.003-1.729-0.005-2.592-0.008
			c-0.061,0.004-0.119,0.007-0.178,0.01c-0.012-0.395-0.023-0.789-0.033-1.183c0.137-0.004,0.275-0.007,0.414-0.011
			c0.668,0.266,1.324,0.647,2.057,0.188C28.01,17.326,27.697,17.8,27.781,18.144z"/>
		<path fill-rule="evenodd" clip-rule="evenodd" fill="#9E9E9E" d="M27.449,17.139c-0.732,0.459-1.389,0.078-2.057-0.188
			c0.002-0.066,0.002-0.132,0.004-0.198c0.012-0.048,0.021-0.096,0.029-0.145c0.652-0.018,1.305-0.036,1.957-0.054
			C27.406,16.75,27.428,16.944,27.449,17.139z"/>
		<path fill-rule="evenodd" clip-rule="evenodd" fill="#424242" d="M24.002,15.965c-0.459-0.049-0.476-0.794-1.048-0.666
			c0.165-0.361,0.331-0.722,0.497-1.083C24.395,14.56,23.875,15.364,24.002,15.965z"/>
		<path fill-rule="evenodd" clip-rule="evenodd" fill="#424242" d="M23.857,24.521c-0.094-0.088-0.187-0.177-0.28-0.265
			c0.02-0.377,0.039-0.754,0.059-1.131C24.535,23.46,24.359,23.965,23.857,24.521z"/>
		<path fill-rule="evenodd" clip-rule="evenodd" fill="#424242" d="M25.584,22.928c0.008,0.4,0.018,0.8,0.025,1.201
			C25.322,23.735,25.273,23.335,25.584,22.928z"/>
		<path fill-rule="evenodd" clip-rule="evenodd" fill="#424242" d="M22.09,15.299c-0.294,0.012-0.589,0.024-0.883,0.036
			c0.021-0.046,0.038-0.093,0.052-0.142C21.539,15.208,21.873,14.804,22.09,15.299z"/>
		<path fill-rule="evenodd" clip-rule="evenodd" fill="#2D2D2D" d="M24.979,16.962c0.01,0.394,0.021,0.789,0.033,1.183l-0.037-0.018
			c-0.051,0.007-0.104,0.009-0.158,0.006C24.857,17.741,24.658,17.316,24.979,16.962z"/>
		<path fill-rule="evenodd" clip-rule="evenodd" fill="#717171" d="M18.983,21.037c-0.05-0.101-0.1-0.201-0.15-0.301
			c0.262-0.007,0.561-0.081,0.596,0.326C19.28,21.054,19.131,21.045,18.983,21.037z"/>
		<path fill-rule="evenodd" clip-rule="evenodd" fill="#424242" d="M25.195,18.737c0.074,0.039,0.15,0.078,0.225,0.116
			c-0.143,0.023-0.283,0.047-0.426,0.07C25.061,18.861,25.129,18.799,25.195,18.737z"/>
		<path fill-rule="evenodd" clip-rule="evenodd" fill="#424242" d="M24.816,18.133c0.055,0.002,0.107,0,0.158-0.006
			c-0.014,0.091,0.074,0.229-0.102,0.237C24.857,18.365,24.836,18.214,24.816,18.133z"/>
		<path fill-rule="evenodd" clip-rule="evenodd" fill="#717171" d="M25.426,16.608c-0.008,0.049-0.018,0.097-0.029,0.145
			c-0.061-0.059-0.121-0.117-0.182-0.176C25.285,16.588,25.355,16.598,25.426,16.608z"/>
		<path fill-rule="evenodd" clip-rule="evenodd" fill="#2D2D2D" d="M27.385,8.617c-1.037-0.239-2.031-0.059-3.01,0.3
			C24.195,8.982,23.98,9.032,23.797,9c-2.079-0.375-4.139-0.002-6.206,0.133c-0.646,0.042-0.757-0.381-0.718-0.903
			c0.342-0.036,0.674-0.019,0.974,0.178c0.489-0.053,1.075,0.246,1.401-0.39c0.195-0.001,0.39-0.003,0.584-0.005
			c0.786,0.07,1.502-0.221,2.233-0.435c1.699,0.054,3.36,0.537,5.077,0.445C27.662,7.994,27.518,8.33,27.385,8.617z"/>
		<path fill-rule="evenodd" clip-rule="evenodd" fill="#606060" d="M27.385,8.617c0.133-0.287,0.277-0.623-0.242-0.595
			c-1.717,0.092-3.377-0.391-5.077-0.445c-0.018-0.087-0.033-0.176-0.049-0.264c0.202-0.543,0.689-0.363,1.012-0.296
			c1.631,0.339,3.27,0.159,4.905,0.165c0.4,0.779-0.18,1.656,0.24,2.433c-0.049,0.512,0.354,0.334,0.602,0.392
			c-0.049,0.367-0.277,0.738-0.604,0.502c-0.299-0.216-0.646-0.085-0.887-0.317C27.986,9.709,27.1,9.126,27.385,8.617z"/>
		<path fill-rule="evenodd" clip-rule="evenodd" fill="#606060" d="M17.847,8.407c-0.299-0.197-0.632-0.214-0.974-0.178
			c-0.705-0.223-0.631-0.587-0.186-1.02c0.33,0.018,0.66,0.036,0.989,0.054C17.734,7.645,17.791,8.026,17.847,8.407z"/>
		<path fill-rule="evenodd" clip-rule="evenodd" fill="#717171" d="M28.775,10.007c-0.248-0.058-0.65,0.12-0.602-0.392
			c0.926-0.002,1.854-0.005,2.779-0.008c0.02,0.175,0.037,0.349,0.055,0.523C30.264,10.088,29.52,10.047,28.775,10.007z"/>
		<path fill-rule="evenodd" clip-rule="evenodd" fill="#606060" d="M13.688,9.813c-0.166-0.065-0.176-0.139-0.013-0.223
			C13.68,9.664,13.684,9.738,13.688,9.813z"/>
		<path fill-rule="evenodd" clip-rule="evenodd" fill="#717171" d="M27.584,15.161c-0.322,0.181-0.666,0.219-1.023,0.144
			c-0.004-0.548,0.027-1.068,0.807-0.953C27.518,14.6,27.621,14.861,27.584,15.161z"/>
		<path fill-rule="evenodd" clip-rule="evenodd" fill="#424242" d="M17.847,8.407c-0.057-0.381-0.113-0.763-0.17-1.144
			c0.387-0.001,0.773-0.002,1.16-0.003c0.137,0.252,0.274,0.504,0.411,0.757C18.922,8.653,18.336,8.354,17.847,8.407z"/>
		<path fill-rule="evenodd" clip-rule="evenodd" fill="#424242" d="M22.017,7.313c0.016,0.088,0.031,0.177,0.049,0.264
			c-0.73,0.214-1.447,0.505-2.233,0.435c0.007-0.255,0.014-0.51,0.021-0.765C20.575,7.269,21.295,7.291,22.017,7.313z"/>
		<path fill-rule="evenodd" clip-rule="evenodd" fill="#606060" d="M19.854,7.247c-0.007,0.255-0.014,0.51-0.021,0.765
			c-0.195,0.002-0.39,0.004-0.584,0.005c-0.137-0.252-0.274-0.505-0.411-0.757C19.176,7.256,19.515,7.251,19.854,7.247z"/>
	</g>
</g>
</svg>
