<?xml version="1.0" encoding="utf-8"?>
<!-- Generator: Adobe Illustrator 16.0.0, SVG Export Plug-In . SVG Version: 6.00 Build 0)  -->
<!DOCTYPE svg PUBLIC "-//W3C//DTD SVG 1.1//EN" "http://www.w3.org/Graphics/SVG/1.1/DTD/svg11.dtd">
<svg version="1.1" id="Layer_1" xmlns="http://www.w3.org/2000/svg" xmlns:xlink="http://www.w3.org/1999/xlink" x="0px" y="0px"
	 width="640px" height="125px" viewBox="0 0 640 125" enable-background="new 0 0 640 125" xml:space="preserve">
<g>
	<path fill="#006837" d="M36.947,90.547c2.471,0,5.049-0.261,7.734-0.786c2.686-0.524,5.407-1.272,8.165-2.246v10.613
		c-1.647,0.75-4.173,1.46-7.574,2.134c-3.402,0.674-6.929,1.011-10.581,1.011c-3.688,0-7.189-0.497-10.501-1.488
		c-3.313-0.992-6.204-2.592-8.674-4.801c-2.471-2.208-4.432-5.072-5.882-8.591c-1.45-3.518-2.175-7.786-2.175-12.803
		c0-4.941,0.68-9.265,2.041-12.971c1.361-3.706,3.187-6.775,5.479-9.209c2.291-2.433,4.915-4.258,7.869-5.475
		c2.954-1.216,6.007-1.825,9.158-1.825c3.294,0,6.329,0.525,9.104,1.572c2.774,1.048,5.174,2.695,7.197,4.941
		c2.022,2.246,3.599,5.138,4.727,8.675c1.128,3.538,1.692,7.721,1.692,12.55c-0.036,1.873-0.09,3.463-0.161,4.773H20.457
		c0.179,2.508,0.716,4.652,1.611,6.43c0.895,1.778,2.068,3.22,3.518,4.323c1.45,1.105,3.143,1.909,5.076,2.415
		C32.596,90.294,34.691,90.547,36.947,90.547z M31.844,54.498c-1.611,0-3.044,0.309-4.297,0.927c-1.253,0.617-2.336,1.46-3.25,2.526
		c-0.913,1.067-1.638,2.312-2.175,3.734c-0.537,1.423-0.896,2.939-1.074,4.548h20.464c0-1.609-0.206-3.125-0.617-4.548
		c-0.412-1.422-1.021-2.667-1.826-3.734c-0.806-1.066-1.809-1.909-3.009-2.526C34.861,54.806,33.456,54.498,31.844,54.498z"/>
	<path fill="#006837" d="M63.857,73.758c0-4.753,0.626-8.993,1.88-12.718c1.253-3.725,2.963-6.851,5.13-9.378
		c2.166-2.526,4.646-4.417,7.439-5.671c2.793-1.254,5.693-1.881,8.701-1.881c1.396,0,2.721,0.132,3.975,0.393
		c1.253,0.262,2.435,0.618,3.545,1.067c1.109,0.449,2.148,0.955,3.115,1.516s1.861,1.143,2.686,1.741h0.107
		c-0.036-0.749-0.063-1.806-0.08-3.172c-0.019-1.366-0.027-2.854-0.027-4.464V18.56h12.73v65.137c0,3.594,0.035,6.682,0.107,9.265
		c0.071,2.583,0.143,4.885,0.215,6.907h-11.495l-0.537-5.784h-0.215c-0.752,0.936-1.656,1.853-2.712,2.751
		c-1.057,0.898-2.221,1.676-3.491,2.33c-1.271,0.656-2.668,1.17-4.19,1.544c-1.522,0.374-3.178,0.562-4.968,0.562
		c-2.829,0-5.542-0.525-8.138-1.572c-2.597-1.047-4.924-2.667-6.982-4.857c-2.06-2.19-3.706-5.054-4.941-8.592
		C64.475,82.714,63.857,78.55,63.857,73.758z M88.941,90.66c1.253,0,2.443-0.168,3.571-0.505c1.129-0.337,2.193-0.786,3.196-1.348
		c1.002-0.562,1.889-1.179,2.659-1.853c0.77-0.674,1.423-1.328,1.96-1.965v-25.83c-1.504-1.272-3.188-2.331-5.049-3.172
		c-1.862-0.843-3.832-1.264-5.908-1.264c-1.325,0-2.713,0.281-4.163,0.842s-2.775,1.516-3.975,2.864
		c-1.2,1.348-2.202,3.22-3.008,5.615c-0.806,2.396-1.208,5.447-1.208,9.153c0,5.466,1.011,9.734,3.034,12.803
		C82.074,89.069,85.038,90.623,88.941,90.66z"/>
	<path fill="#006837" d="M127.882,18.56h13.375v14.431h-13.375V18.56z M128.205,45.457h12.73v54.412h-12.73V45.457z"/>
	<path fill="#006837" d="M205.228,71.736c0,4.905-0.681,9.247-2.041,13.027c-1.361,3.782-3.143,6.888-5.345,9.321
		c-2.202,2.434-4.683,4.24-7.439,5.418c-2.758,1.18-5.532,1.769-8.325,1.769c-1.97,0-3.742-0.252-5.317-0.758
		c-1.576-0.505-2.954-1.131-4.136-1.881c-1.182-0.749-2.176-1.535-2.981-2.358c-0.806-0.823-1.441-1.553-1.906-2.19h-0.215
		l-1.235,5.784h-10.528c0.071-1.609,0.135-3.603,0.188-5.98c0.054-2.376,0.08-4.632,0.08-6.766V18.56h12.73v22.629
		c0,1.61-0.01,3.098-0.027,4.464c-0.019,1.367-0.045,2.424-0.08,3.172h0.107c0.823-0.598,1.719-1.179,2.686-1.741
		s2.022-1.067,3.169-1.516c1.146-0.449,2.381-0.805,3.706-1.067c1.324-0.261,2.721-0.393,4.189-0.393c2.9,0,5.721,0.553,8.46,1.657
		c2.739,1.104,5.174,2.789,7.305,5.054c2.13,2.265,3.822,5.166,5.076,8.703C204.601,63.061,205.228,67.132,205.228,71.736z
		 M192.068,72.41c0-3.406-0.395-6.335-1.182-8.788c-0.788-2.452-1.817-4.324-3.088-5.615c-1.271-1.292-2.597-2.162-3.975-2.611
		c-1.379-0.449-2.749-0.674-4.109-0.674c-1.862,0-3.76,0.393-5.693,1.179s-3.688,1.834-5.264,3.145v26.055
		c0.501,0.599,1.118,1.227,1.853,1.881c0.733,0.655,1.558,1.254,2.471,1.797c0.913,0.543,1.907,0.992,2.981,1.348
		c1.074,0.356,2.22,0.533,3.438,0.533c2.076,0,3.895-0.439,5.452-1.319c1.558-0.879,2.864-2.125,3.921-3.734
		c1.056-1.609,1.853-3.528,2.39-5.756C191.799,77.624,192.068,75.143,192.068,72.41z"/>
	<path fill="#006837" d="M217.044,99.869V18.56h12.73v81.309H217.044z"/>
	<path fill="#006837" d="M271.08,90.547c2.471,0,5.049-0.261,7.734-0.786c2.686-0.524,5.407-1.272,8.165-2.246v10.613
		c-1.647,0.75-4.173,1.46-7.574,2.134c-3.402,0.674-6.929,1.011-10.581,1.011c-3.688,0-7.189-0.497-10.501-1.488
		c-3.313-0.992-6.204-2.592-8.675-4.801c-2.471-2.208-4.431-5.072-5.881-8.591c-1.45-3.518-2.176-7.786-2.176-12.803
		c0-4.941,0.68-9.265,2.041-12.971c1.36-3.706,3.187-6.775,5.479-9.209c2.292-2.433,4.915-4.258,7.869-5.475
		c2.954-1.216,6.007-1.825,9.158-1.825c3.294,0,6.329,0.525,9.104,1.572c2.774,1.048,5.174,2.695,7.197,4.941
		c2.022,2.246,3.599,5.138,4.727,8.675c1.128,3.538,1.692,7.721,1.692,12.55c-0.036,1.873-0.09,3.463-0.161,4.773H254.59
		c0.179,2.508,0.716,4.652,1.611,6.43c0.895,1.778,2.067,3.22,3.518,4.323c1.45,1.105,3.143,1.909,5.076,2.415
		C266.729,90.294,268.824,90.547,271.08,90.547z M265.977,54.498c-1.611,0-3.044,0.309-4.297,0.927
		c-1.254,0.617-2.337,1.46-3.25,2.526c-0.913,1.067-1.638,2.312-2.175,3.734c-0.537,1.423-0.896,2.939-1.074,4.548h20.464
		c0-1.609-0.206-3.125-0.617-4.548c-0.412-1.422-1.021-2.667-1.826-3.734c-0.806-1.066-1.809-1.909-3.009-2.526
		C268.994,54.806,267.588,54.498,265.977,54.498z"/>
	<path fill="#006837" d="M320.656,73.758c0-4.753,0.625-8.993,1.879-12.718c1.254-3.725,2.963-6.851,5.131-9.378
		c2.166-2.526,4.645-4.417,7.439-5.671c2.793-1.254,5.693-1.881,8.701-1.881c1.396,0,2.721,0.132,3.975,0.393
		c1.252,0.262,2.434,0.618,3.545,1.067c1.109,0.449,2.148,0.955,3.115,1.516s1.861,1.143,2.686,1.741h0.107
		c-0.037-0.749-0.063-1.806-0.08-3.172c-0.02-1.366-0.027-2.854-0.027-4.464V18.56h12.73v65.137c0,3.594,0.035,6.682,0.107,9.265
		c0.07,2.583,0.143,4.885,0.215,6.907h-11.496l-0.537-5.784h-0.215c-0.752,0.936-1.656,1.853-2.711,2.751
		c-1.057,0.898-2.221,1.676-3.492,2.33c-1.271,0.656-2.668,1.17-4.189,1.544c-1.523,0.374-3.178,0.562-4.969,0.562
		c-2.828,0-5.541-0.525-8.137-1.572c-2.598-1.047-4.924-2.667-6.982-4.857c-2.061-2.19-3.707-5.054-4.941-8.592
		C321.273,82.714,320.656,78.55,320.656,73.758z M345.74,90.66c1.252,0,2.443-0.168,3.57-0.505c1.129-0.337,2.193-0.786,3.197-1.348
		c1.002-0.562,1.889-1.179,2.658-1.853s1.424-1.328,1.961-1.965v-25.83c-1.504-1.272-3.188-2.331-5.049-3.172
		c-1.863-0.843-3.832-1.264-5.908-1.264c-1.326,0-2.713,0.281-4.164,0.842c-1.449,0.562-2.775,1.516-3.975,2.864
		s-2.201,3.22-3.008,5.615c-0.805,2.396-1.207,5.447-1.207,9.153c0,5.466,1.01,9.734,3.033,12.803
		C338.873,89.069,341.836,90.623,345.74,90.66z"/>
	<path fill="#006837" d="M384.682,18.56h13.375v14.431h-13.375V18.56z M385.004,45.457h12.73v54.412h-12.73V45.457z"/>
	<path fill="#006837" d="M442.637,94.085h-0.215c-0.717,0.786-1.576,1.592-2.578,2.415c-1.002,0.824-2.148,1.601-3.438,2.33
		c-1.289,0.73-2.721,1.32-4.297,1.769s-3.275,0.674-5.102,0.674c-2.471,0-4.781-0.403-6.93-1.208
		c-2.148-0.804-3.994-1.965-5.533-3.481c-1.539-1.516-2.748-3.35-3.625-5.503c-0.877-2.152-1.316-4.557-1.316-7.215
		c0-2.92,0.512-5.54,1.531-7.861c1.021-2.321,2.443-4.286,4.27-5.896c1.826-1.609,4.012-2.836,6.555-3.678
		c2.541-0.843,5.352-1.264,8.432-1.264c2.256,0,4.332,0.15,6.23,0.449c1.898,0.3,3.563,0.655,4.996,1.067v-2.19
		c0-1.272-0.207-2.499-0.617-3.678c-0.412-1.18-1.074-2.227-1.988-3.145c-0.912-0.917-2.104-1.647-3.572-2.19
		c-1.469-0.542-3.258-0.814-5.371-0.814c-2.578,0-5.156,0.3-7.734,0.898c-2.578,0.599-5.371,1.498-8.379,2.695V47.872
		c2.613-1.198,5.389-2.114,8.326-2.751c2.936-0.636,6.016-0.973,9.238-1.011c3.795,0,7.117,0.487,9.963,1.46
		c2.848,0.974,5.229,2.312,7.145,4.015c1.914,1.704,3.348,3.715,4.297,6.036c0.947,2.322,1.422,4.849,1.422,7.581v20.496
		c0,3.594,0.037,6.682,0.107,9.265c0.072,2.583,0.145,4.885,0.217,6.907h-11.496L442.637,94.085z M441.617,76.678
		c-1.219-0.299-2.615-0.57-4.189-0.814c-1.576-0.243-3.17-0.365-4.781-0.365c-3.115,0-5.578,0.646-7.385,1.938
		c-1.809,1.291-2.713,3.266-2.713,5.924c0,1.235,0.205,2.312,0.617,3.229c0.412,0.918,0.967,1.676,1.666,2.274
		c0.697,0.599,1.512,1.048,2.443,1.348c0.932,0.3,1.916,0.449,2.955,0.449c1.289,0,2.506-0.177,3.652-0.533
		c1.145-0.355,2.201-0.805,3.168-1.348c0.967-0.542,1.836-1.151,2.605-1.825s1.424-1.328,1.961-1.965V76.678z"/>
	<path fill="#006837" d="M469.172,99.869V18.56h12.73v81.309H469.172z"/>
	<path fill="#006837" d="M523.207,90.547c2.471,0,5.049-0.261,7.734-0.786c2.686-0.524,5.406-1.272,8.164-2.246v10.613
		c-1.646,0.75-4.172,1.46-7.574,2.134s-6.928,1.011-10.58,1.011c-3.689,0-7.189-0.497-10.502-1.488
		c-3.313-0.992-6.203-2.592-8.674-4.801c-2.471-2.208-4.432-5.072-5.881-8.591c-1.451-3.518-2.176-7.786-2.176-12.803
		c0-4.941,0.68-9.265,2.041-12.971c1.359-3.706,3.186-6.775,5.479-9.209c2.291-2.433,4.914-4.258,7.869-5.475
		c2.953-1.216,6.006-1.825,9.158-1.825c3.293,0,6.328,0.525,9.104,1.572c2.775,1.048,5.174,2.695,7.197,4.941s3.6,5.138,4.727,8.675
		c1.129,3.538,1.693,7.721,1.693,12.55c-0.037,1.873-0.09,3.463-0.162,4.773h-34.107c0.18,2.508,0.717,4.652,1.611,6.43
		c0.895,1.778,2.068,3.22,3.518,4.323c1.451,1.105,3.143,1.909,5.076,2.415C518.855,90.294,520.951,90.547,523.207,90.547z
		 M518.104,54.498c-1.611,0-3.043,0.309-4.297,0.927c-1.254,0.617-2.336,1.46-3.25,2.526c-0.912,1.067-1.637,2.312-2.174,3.734
		c-0.537,1.423-0.896,2.939-1.074,4.548h20.463c0-1.609-0.205-3.125-0.617-4.548c-0.412-1.422-1.02-2.667-1.826-3.734
		c-0.805-1.066-1.809-1.909-3.008-2.526C521.121,54.806,519.715,54.498,518.104,54.498z"/>
	<path fill="#006837" d="M590.293,98.689c-1.611,0.711-3.582,1.32-5.908,1.825c-2.328,0.506-4.781,0.758-7.359,0.758
		c-3.76,0-7.27-0.562-10.527-1.685s-6.105-2.826-8.541-5.11c-2.436-2.283-4.35-5.175-5.746-8.676
		c-1.396-3.5-2.096-7.589-2.096-12.269c0-5.241,0.807-9.733,2.418-13.477c1.611-3.743,3.697-6.785,6.258-9.125
		c2.559-2.339,5.441-4.062,8.646-5.166c3.205-1.104,6.365-1.657,9.48-1.657c2.328,0,4.566,0.216,6.715,0.646
		c2.148,0.431,4.1,1.02,5.854,1.769v10.837c-1.576-0.71-3.248-1.282-5.021-1.712c-1.771-0.43-3.68-0.646-5.721-0.646
		s-3.992,0.328-5.854,0.983c-1.863,0.655-3.51,1.694-4.941,3.116c-1.434,1.423-2.57,3.304-3.412,5.644
		c-0.842,2.34-1.262,5.157-1.262,8.451c0,2.396,0.322,4.652,0.967,6.766c0.645,2.116,1.584,3.922,2.82,5.419
		c1.234,1.498,2.811,2.705,4.727,3.622c1.914,0.917,4.18,1.375,6.795,1.375c2.326,0,4.439-0.243,6.338-0.73
		c1.896-0.486,3.688-1.085,5.371-1.797V98.689z"/>
	<path fill="#006837" d="M633.102,99.813c-1.432,0.449-3.141,0.805-5.129,1.067c-1.988,0.261-3.84,0.393-5.559,0.393
		c-4.369,0-7.941-0.74-10.717-2.218c-2.775-1.478-4.736-3.602-5.881-6.373c-0.824-1.984-1.236-4.679-1.236-8.086V56.407h-9.721
		v-10.95h9.721V30.24h12.73v15.217h15.039v10.95h-15.039v26.448c0,2.097,0.305,3.65,0.914,4.661
		c1.074,1.722,3.203,2.583,6.391,2.583c1.469,0,2.928-0.121,4.379-0.365c1.449-0.243,2.818-0.552,4.107-0.926V99.813z"/>
</g>
<g>
	<path d="M505.182,112.294c-0.157,0.85-0.342,1.673-0.555,2.47l-0.984,3.735h-1.958l-2.851-8.517h2.102l1.051,3.568
		c0.241,0.826,0.454,1.626,0.64,2.399h0.033c0.157-0.75,0.345-1.55,0.563-2.399l0.934-3.568h2.102l0.916,3.568
		c0.196,0.756,0.384,1.556,0.563,2.399h0.033c0.19-0.791,0.404-1.591,0.64-2.399l1.051-3.568h2.102l-2.85,8.517h-1.959l-0.984-3.735
		c-0.224-0.838-0.409-1.661-0.555-2.47H505.182z"/>
	<path d="M516.935,117.041c0.387,0,0.79-0.041,1.211-0.123c0.42-0.082,0.846-0.199,1.277-0.352v1.661
		c-0.258,0.117-0.652,0.229-1.186,0.334c-0.532,0.105-1.084,0.158-1.656,0.158c-0.577,0-1.125-0.078-1.644-0.233
		s-0.971-0.406-1.357-0.751s-0.693-0.794-0.921-1.345c-0.227-0.551-0.34-1.219-0.34-2.004c0-0.773,0.106-1.45,0.319-2.03
		s0.499-1.061,0.857-1.441s0.77-0.667,1.231-0.857c0.463-0.19,0.94-0.286,1.434-0.286c0.516,0,0.99,0.082,1.425,0.246
		s0.811,0.422,1.127,0.773s0.563,0.804,0.739,1.358c0.177,0.554,0.266,1.208,0.266,1.964c-0.006,0.293-0.015,0.542-0.025,0.747
		h-5.339c0.028,0.393,0.112,0.728,0.252,1.006c0.141,0.278,0.324,0.504,0.551,0.677c0.228,0.173,0.492,0.299,0.795,0.378
		S516.581,117.041,516.935,117.041z M516.136,111.398c-0.252,0-0.477,0.048-0.673,0.145s-0.365,0.229-0.508,0.396
		c-0.144,0.167-0.257,0.362-0.341,0.584s-0.141,0.46-0.168,0.712h3.203c0-0.252-0.032-0.489-0.097-0.712s-0.16-0.417-0.286-0.584
		s-0.283-0.299-0.471-0.396S516.388,111.398,516.136,111.398z"/>
	<path d="M522.266,106.74h2.135l-1.631,4.843h-1.79L522.266,106.74z"/>
	<path d="M530.588,111.635h-0.168c-0.611,0-1.147,0.095-1.61,0.286c-0.462,0.19-0.819,0.482-1.072,0.875v5.704h-1.992v-8.517h1.648
		l0.185,1.187h0.033c0.235-0.434,0.56-0.775,0.972-1.024s0.906-0.374,1.483-0.374c0.202,0,0.376,0.012,0.521,0.035V111.635z"/>
	<path d="M535.96,117.041c0.387,0,0.79-0.041,1.211-0.123c0.42-0.082,0.846-0.199,1.277-0.352v1.661
		c-0.258,0.117-0.652,0.229-1.186,0.334c-0.532,0.105-1.084,0.158-1.656,0.158c-0.577,0-1.125-0.078-1.644-0.233
		s-0.971-0.406-1.357-0.751s-0.693-0.794-0.921-1.345c-0.227-0.551-0.34-1.219-0.34-2.004c0-0.773,0.106-1.45,0.319-2.03
		s0.499-1.061,0.857-1.441s0.77-0.667,1.231-0.857c0.463-0.19,0.94-0.286,1.434-0.286c0.516,0,0.99,0.082,1.425,0.246
		s0.811,0.422,1.127,0.773s0.563,0.804,0.739,1.358c0.177,0.554,0.266,1.208,0.266,1.964c-0.006,0.293-0.015,0.542-0.025,0.747
		h-5.339c0.028,0.393,0.112,0.728,0.252,1.006c0.141,0.278,0.324,0.504,0.551,0.677c0.228,0.173,0.492,0.299,0.795,0.378
		S535.606,117.041,535.96,117.041z M535.161,111.398c-0.252,0-0.477,0.048-0.673,0.145s-0.365,0.229-0.508,0.396
		c-0.144,0.167-0.257,0.362-0.341,0.584s-0.141,0.46-0.168,0.712h3.203c0-0.252-0.032-0.489-0.097-0.712s-0.16-0.417-0.286-0.584
		s-0.283-0.299-0.471-0.396S535.413,111.398,535.161,111.398z"/>
	<path d="M549.118,118.491c-0.225,0.07-0.492,0.126-0.803,0.167c-0.312,0.041-0.602,0.062-0.871,0.062
		c-0.684,0-1.242-0.116-1.677-0.347s-0.741-0.564-0.921-0.998c-0.129-0.311-0.193-0.732-0.193-1.266v-4.412h-1.521v-1.714h1.521
		v-2.382h1.993v2.382H549v1.714h-2.354v4.14c0,0.328,0.047,0.571,0.143,0.729c0.168,0.27,0.502,0.404,1,0.404
		c0.23,0,0.459-0.019,0.686-0.057c0.228-0.038,0.441-0.086,0.644-0.145V118.491z"/>
	<path d="M555.465,117.594h-0.033c-0.112,0.123-0.247,0.249-0.403,0.378c-0.157,0.129-0.337,0.25-0.538,0.365
		c-0.202,0.114-0.427,0.207-0.673,0.277c-0.247,0.07-0.513,0.105-0.799,0.105c-0.387,0-0.748-0.063-1.084-0.189
		c-0.337-0.126-0.626-0.308-0.866-0.545c-0.241-0.237-0.431-0.524-0.567-0.861c-0.138-0.337-0.206-0.713-0.206-1.129
		c0-0.457,0.08-0.867,0.239-1.23c0.16-0.363,0.383-0.671,0.669-0.923c0.285-0.252,0.627-0.444,1.025-0.576
		c0.397-0.132,0.838-0.198,1.319-0.198c0.354,0,0.679,0.023,0.976,0.07s0.558,0.103,0.782,0.167v-0.343
		c0-0.199-0.032-0.391-0.097-0.576s-0.168-0.349-0.312-0.492c-0.143-0.144-0.329-0.258-0.559-0.343
		c-0.23-0.085-0.511-0.127-0.841-0.127c-0.403,0-0.808,0.047-1.211,0.141s-0.841,0.234-1.312,0.422v-1.626
		c0.409-0.188,0.844-0.331,1.303-0.431c0.46-0.1,0.942-0.152,1.446-0.158c0.594,0,1.114,0.076,1.56,0.229s0.818,0.362,1.118,0.628
		s0.524,0.582,0.673,0.945s0.223,0.759,0.223,1.187v3.208c0,0.563,0.006,1.046,0.017,1.45c0.012,0.404,0.022,0.765,0.034,1.081h-1.8
		L555.465,117.594z M555.306,114.87c-0.19-0.047-0.409-0.089-0.656-0.127c-0.246-0.038-0.496-0.057-0.748-0.057
		c-0.487,0-0.873,0.101-1.156,0.303s-0.424,0.511-0.424,0.927c0,0.193,0.031,0.362,0.097,0.505c0.063,0.144,0.15,0.262,0.26,0.356
		s0.237,0.164,0.383,0.211s0.3,0.07,0.463,0.07c0.201,0,0.392-0.028,0.571-0.083s0.345-0.126,0.496-0.211s0.287-0.18,0.407-0.286
		c0.121-0.105,0.224-0.208,0.308-0.308V114.87z"/>
	<path d="M559.617,118.5v-12.727h1.993V118.5H559.617z"/>
	<path d="M563.964,105.773h1.993v7.664h0.042l3.102-3.454h2.464l-3.573,3.999l3.599,4.518h-2.413l-3.187-3.964h-0.033v3.964h-1.993
		V105.773z"/>
	<path d="M572.767,105.773h2.094v2.259h-2.094V105.773z M572.817,109.983h1.992v8.517h-1.992V109.983z"/>
	<path d="M578.879,111.169h0.033c0.118-0.176,0.267-0.349,0.446-0.519c0.179-0.17,0.384-0.319,0.613-0.448s0.483-0.233,0.761-0.312
		s0.573-0.119,0.887-0.119c0.298,0,0.585,0.035,0.862,0.105s0.531,0.18,0.761,0.33s0.433,0.343,0.609,0.58s0.315,0.52,0.416,0.848
		c0.057,0.182,0.094,0.379,0.113,0.593c0.021,0.214,0.03,0.461,0.03,0.743v5.528h-1.993v-5.203c0-0.229-0.008-0.425-0.025-0.589
		c-0.017-0.164-0.047-0.308-0.092-0.431c-0.102-0.27-0.254-0.463-0.458-0.58c-0.205-0.117-0.453-0.176-0.744-0.176
		c-0.387,0-0.759,0.095-1.114,0.286c-0.356,0.19-0.671,0.467-0.946,0.831v5.862h-1.992v-8.517h1.648L578.879,111.169z"/>
	<path d="M591.885,118.719c0-0.117,0.002-0.262,0.004-0.435c0.003-0.173,0.01-0.318,0.021-0.435h-0.017
		c-0.124,0.105-0.265,0.209-0.425,0.312s-0.335,0.196-0.525,0.281s-0.4,0.152-0.631,0.202c-0.229,0.05-0.465,0.075-0.706,0.075
		c-0.432,0-0.854-0.081-1.265-0.242c-0.412-0.161-0.778-0.416-1.098-0.765s-0.577-0.795-0.773-1.34s-0.294-1.201-0.294-1.969
		s0.1-1.44,0.298-2.017c0.199-0.577,0.464-1.059,0.795-1.446c0.33-0.387,0.71-0.678,1.139-0.875s0.87-0.294,1.324-0.294
		c0.499,0,0.942,0.11,1.329,0.33s0.703,0.5,0.949,0.839h0.034l0.084-0.958h1.749v8.675c0,0.498-0.04,0.926-0.118,1.283
		s-0.193,0.674-0.345,0.949c-0.18,0.322-0.408,0.604-0.686,0.844s-0.594,0.439-0.949,0.598c-0.356,0.158-0.747,0.277-1.173,0.355
		c-0.427,0.08-0.878,0.119-1.354,0.119c-0.27,0-0.533-0.011-0.791-0.031s-0.5-0.05-0.727-0.088
		c-0.228-0.038-0.435-0.082-0.622-0.131c-0.188-0.051-0.347-0.102-0.476-0.154v-1.696c0.37,0.129,0.758,0.227,1.165,0.294
		c0.406,0.067,0.833,0.102,1.281,0.102c0.892,0,1.581-0.18,2.068-0.541c0.488-0.359,0.731-0.906,0.731-1.639V118.719z
		 M590.103,117.058c0.202,0,0.393-0.026,0.572-0.079c0.179-0.053,0.344-0.12,0.495-0.202s0.287-0.173,0.408-0.272
		c0.12-0.1,0.223-0.199,0.307-0.299V112.4c-0.213-0.264-0.477-0.483-0.79-0.659c-0.314-0.176-0.647-0.267-1.001-0.272
		c-0.123,0-0.253,0.016-0.391,0.048s-0.276,0.089-0.416,0.171c-0.141,0.082-0.273,0.192-0.399,0.33s-0.236,0.312-0.332,0.523
		s-0.172,0.463-0.231,0.756c-0.059,0.293-0.088,0.633-0.088,1.02c0,0.428,0.039,0.81,0.117,1.147
		c0.079,0.337,0.196,0.624,0.354,0.861s0.352,0.419,0.584,0.545S589.794,117.058,590.103,117.058z"/>
	<path d="M604.714,107.46c-0.219-0.059-0.444-0.107-0.677-0.145s-0.453-0.057-0.66-0.057c-0.225,0-0.423,0.028-0.597,0.083
		s-0.321,0.148-0.441,0.277c-0.121,0.129-0.212,0.296-0.273,0.501s-0.093,0.454-0.093,0.747v1.116h2.262v1.714h-2.262v6.803h-1.992
		v-6.803h-1.379v-1.714h1.379v-1.011c0-0.598,0.08-1.112,0.239-1.542c0.16-0.431,0.383-0.785,0.669-1.063
		c0.285-0.278,0.622-0.483,1.009-0.615s0.807-0.198,1.261-0.198c0.28,0,0.56,0.025,0.837,0.075s0.517,0.11,0.719,0.18V107.46z"/>
	<path d="M613.029,114.246c0,0.668-0.096,1.277-0.286,1.828s-0.464,1.022-0.819,1.415c-0.356,0.393-0.786,0.696-1.291,0.91
		c-0.504,0.214-1.067,0.321-1.689,0.321c-0.639,0-1.212-0.107-1.72-0.321c-0.507-0.214-0.938-0.517-1.29-0.91
		c-0.354-0.393-0.624-0.864-0.812-1.415s-0.281-1.16-0.281-1.828s0.095-1.277,0.285-1.828s0.464-1.022,0.82-1.415
		c0.355-0.393,0.786-0.696,1.29-0.91c0.505-0.214,1.068-0.321,1.69-0.321c0.639,0,1.212,0.107,1.719,0.321
		c0.508,0.214,0.938,0.517,1.291,0.91c0.353,0.393,0.623,0.864,0.811,1.415C612.936,112.968,613.029,113.578,613.029,114.246z
		 M610.97,114.246c0-0.451-0.051-0.85-0.151-1.195c-0.102-0.346-0.241-0.636-0.421-0.87s-0.395-0.41-0.647-0.527
		c-0.252-0.117-0.526-0.176-0.823-0.176c-0.292,0-0.563,0.059-0.812,0.176c-0.25,0.117-0.464,0.293-0.644,0.527
		c-0.179,0.234-0.319,0.524-0.42,0.87s-0.151,0.744-0.151,1.195s0.051,0.85,0.151,1.195s0.242,0.634,0.425,0.866
		c0.182,0.231,0.397,0.407,0.647,0.527c0.249,0.12,0.522,0.18,0.819,0.18s0.568-0.06,0.815-0.18c0.246-0.12,0.459-0.296,0.639-0.527
		s0.319-0.52,0.421-0.866C610.919,115.095,610.97,114.697,610.97,114.246z"/>
	<path d="M622.563,114.246c0,0.668-0.096,1.277-0.286,1.828s-0.464,1.022-0.819,1.415c-0.356,0.393-0.786,0.696-1.291,0.91
		c-0.504,0.214-1.067,0.321-1.689,0.321c-0.639,0-1.212-0.107-1.72-0.321c-0.507-0.214-0.938-0.517-1.29-0.91
		c-0.354-0.393-0.624-0.864-0.812-1.415s-0.281-1.16-0.281-1.828s0.095-1.277,0.285-1.828s0.464-1.022,0.82-1.415
		c0.355-0.393,0.786-0.696,1.29-0.91c0.505-0.214,1.068-0.321,1.69-0.321c0.639,0,1.212,0.107,1.719,0.321
		c0.508,0.214,0.938,0.517,1.291,0.91c0.353,0.393,0.623,0.864,0.811,1.415C622.469,112.968,622.563,113.578,622.563,114.246z
		 M620.503,114.246c0-0.451-0.051-0.85-0.151-1.195c-0.102-0.346-0.241-0.636-0.421-0.87s-0.395-0.41-0.647-0.527
		c-0.252-0.117-0.526-0.176-0.823-0.176c-0.292,0-0.563,0.059-0.812,0.176c-0.25,0.117-0.464,0.293-0.644,0.527
		c-0.179,0.234-0.319,0.524-0.42,0.87s-0.151,0.744-0.151,1.195s0.051,0.85,0.151,1.195s0.242,0.634,0.425,0.866
		c0.182,0.231,0.397,0.407,0.647,0.527c0.249,0.12,0.522,0.18,0.819,0.18s0.568-0.06,0.815-0.18c0.246-0.12,0.459-0.296,0.639-0.527
		s0.319-0.52,0.421-0.866C620.452,115.095,620.503,114.697,620.503,114.246z"/>
	<path d="M623.908,114.413c0-0.744,0.098-1.408,0.294-1.991s0.464-1.072,0.803-1.468s0.728-0.691,1.165-0.888
		c0.437-0.196,0.891-0.294,1.361-0.294c0.219,0,0.426,0.021,0.622,0.062s0.381,0.097,0.555,0.167s0.337,0.149,0.488,0.237
		s0.291,0.179,0.42,0.272h0.017c-0.005-0.117-0.01-0.283-0.013-0.497c-0.002-0.214-0.004-0.447-0.004-0.699v-3.542h1.993v10.195
		c0,0.563,0.005,1.046,0.017,1.45c0.011,0.404,0.022,0.765,0.033,1.081h-1.799l-0.084-0.905h-0.034
		c-0.117,0.146-0.259,0.29-0.424,0.431c-0.166,0.141-0.348,0.262-0.547,0.365s-0.418,0.183-0.656,0.242s-0.497,0.088-0.777,0.088
		c-0.442,0-0.867-0.082-1.273-0.246s-0.771-0.417-1.093-0.76s-0.58-0.791-0.773-1.345S623.908,115.163,623.908,114.413z
		 M627.834,117.058c0.196,0,0.383-0.026,0.56-0.079c0.176-0.053,0.343-0.123,0.5-0.211c0.156-0.088,0.295-0.185,0.416-0.29
		c0.12-0.105,0.223-0.208,0.307-0.308v-4.043c-0.235-0.199-0.499-0.365-0.79-0.497c-0.292-0.132-0.6-0.198-0.925-0.198
		c-0.207,0-0.425,0.044-0.651,0.132c-0.228,0.088-0.435,0.237-0.622,0.448c-0.188,0.211-0.345,0.504-0.471,0.879
		c-0.127,0.375-0.189,0.853-0.189,1.433c0,0.855,0.158,1.523,0.475,2.004S627.223,117.052,627.834,117.058z"/>
</g>
<g>
</g>
<g>
</g>
<g>
</g>
<g>
</g>
<g>
</g>
<g>
</g>
<g>
</g>
<g>
</g>
<g>
</g>
<g>
</g>
<g>
</g>
<g>
</g>
<g>
</g>
<g>
</g>
<g>
</g>
</svg>
